<?xml version="1.0" encoding="UTF-8" standalone="no"?><svg xmlns="http://www.w3.org/2000/svg" xmlns:xlink="http://www.w3.org/1999/xlink" contentScriptType="application/ecmascript" contentStyleType="text/css" height="127px" preserveAspectRatio="none" style="width:255px;height:127px;background:#FFFFFF;" version="1.1" viewBox="0 0 255 127" width="255px" zoomAndPan="magnify"><defs/><g><text fill="#000000" font-family="sans-serif" font-size="12" font-weight="bold" lengthAdjust="spacing" textLength="45" x="8" y="18.0001">General</text><line style="stroke:#000000;stroke-width:1.0;" x1="6" x2="6" y1="6" y2="20.4001"/><line style="stroke:#000000;stroke-width:1.0;" x1="6" x2="56" y1="6" y2="6"/><line style="stroke:#000000;stroke-width:1.0;" x1="56" x2="56" y1="6" y2="20.4001"/><line style="stroke:#000000;stroke-width:1.0;" x1="56" x2="66" y1="20.4001" y2="20.4001"/><text fill="#000000" font-family="sans-serif" font-size="12" lengthAdjust="spacing" textLength="53" x="68" y="18.0001">Fullscreen</text><line style="stroke:#000000;stroke-width:1.0;" x1="66" x2="66" y1="6" y2="20.4001"/><line style="stroke:#000000;stroke-width:1.0;" x1="66" x2="124" y1="6" y2="6"/><line style="stroke:#000000;stroke-width:1.0;" x1="124" x2="124" y1="6" y2="20.4001"/><line style="stroke:#000000;stroke-width:1.0;" x1="124" x2="134" y1="20.4001" y2="20.4001"/><text fill="#000000" font-family="sans-serif" font-size="12" lengthAdjust="spacing" textLength="46" x="136" y="18.0001">Behavior</text><line style="stroke:#000000;stroke-width:1.0;" x1="134" x2="134" y1="6" y2="20.4001"/><line style="stroke:#000000;stroke-width:1.0;" x1="134" x2="185" y1="6" y2="6"/><line style="stroke:#000000;stroke-width:1.0;" x1="185" x2="185" y1="6" y2="20.4001"/><line style="stroke:#000000;stroke-width:1.0;" x1="185" x2="195" y1="20.4001" y2="20.4001"/><text fill="#000000" font-family="sans-serif" font-size="12" lengthAdjust="spacing" textLength="37" x="197" y="18.0001">Saving</text><line style="stroke:#000000;stroke-width:1.0;" x1="195" x2="195" y1="6" y2="20.4001"/><line style="stroke:#000000;stroke-width:1.0;" x1="195" x2="237" y1="6" y2="6"/><line style="stroke:#000000;stroke-width:1.0;" x1="237" x2="237" y1="6" y2="20.4001"/><line style="stroke:#000000;stroke-width:1.0;" x1="237" x2="247" y1="20.4001" y2="20.4001"/><text fill="#000000" font-family="sans-serif" font-size="12" lengthAdjust="spacing" textLength="79" x="8" y="36.4002">Open image in:</text><rect fill="#EEEEEE" height="17.4001" style="stroke:#000000;stroke-width:1.0;" width="95" x="89" y="24.4001"/><text fill="#000000" font-family="sans-serif" font-size="12" lengthAdjust="spacing" textLength="64" x="91" y="38.4002">Smart Mode</text><line style="stroke:#000000;stroke-width:1.0;" x1="173" x2="173" y1="24.4001" y2="41.8002"/><polygon fill="#000000" points="176,30.4001,182,30.4001,179,36.8002" style="stroke:#000000;stroke-width:1.0;"/><text fill="#000000" font-family="sans-serif" font-size="12" lengthAdjust="spacing" textLength="155" x="27" y="57.8003">Smooth images when zoomed</text><rect fill="none" height="10" style="stroke:#000000;stroke-width:1.5;" width="10" x="9" y="48.0003"/><polygon fill="#000000" points="10,51.8002,13,54.8002,20,45.8002,13,52.8002" style="stroke:#000000;stroke-width:1.5;"/><text fill="#000000" font-family="sans-serif" font-size="12" lengthAdjust="spacing" textLength="120" x="27" y="74.2004">Confirm image deletion</text><rect fill="none" height="10" style="stroke:#000000;stroke-width:1.5;" width="10" x="9" y="64.4004"/><polygon fill="#000000" points="10,68.2003,13,71.2003,20,62.2003,13,69.2003" style="stroke:#000000;stroke-width:1.5;"/><text fill="#000000" font-family="sans-serif" font-size="12" lengthAdjust="spacing" textLength="109" x="27" y="90.6005">Show hidden images</text><rect fill="none" height="10" style="stroke:#000000;stroke-width:1.5;" width="10" x="9" y="80.8005"/><rect fill="#EEEEEE" height="18.4001" rx="5" ry="5" style="stroke:#000000;stroke-width:2.5;" width="44" x="8.5" y="98.5005"/><text fill="#000000" font-family="sans-serif" font-size="12" lengthAdjust="spacing" textLength="30" x="15.5" y="112.5006">Close</text><line style="stroke:#000000;stroke-width:1.0;" x1="5" x2="248" y1="5" y2="5"/><line style="stroke:#000000;stroke-width:1.0;" x1="5" x2="248" y1="120.4006" y2="120.4006"/><line style="stroke:#000000;stroke-width:1.0;" x1="5" x2="5" y1="5" y2="21.4001"/><line style="stroke:#000000;stroke-width:1.0;" x1="248" x2="248" y1="21.4001" y2="95.0005"/><line style="stroke:#000000;stroke-width:1.0;" x1="248" x2="248" y1="5" y2="21.4001"/><line style="stroke:#000000;stroke-width:1.0;" x1="5" x2="5" y1="95.0005" y2="120.4006"/><line style="stroke:#000000;stroke-width:1.0;" x1="5" x2="5" y1="21.4001" y2="95.0005"/><line style="stroke:#000000;stroke-width:1.0;" x1="248" x2="248" y1="95.0005" y2="120.4006"/><!--MD5=[ea9d2adfc0c0e48be5ea72555c87f6e3]
@startsalt
{+
{/ <b>General | Fullscreen | Behavior | Saving }
{
{ Open image in: | ^Smart Mode^ }
[X] Smooth images when zoomed
[X] Confirm image deletion
[ ] Show hidden images
}
[Close]
}
@endsalt

PlantUML version 1.2021.16(Wed Dec 08 17:25:22 GMT 2021)
(GPL source distribution)
Java Runtime: OpenJDK Runtime Environment
JVM: OpenJDK 64-Bit Server VM
Default Encoding: UTF-8
Language: en
Country: US
--></g></svg>