<?xml version="1.0" encoding="UTF-8" standalone="no"?><svg xmlns="http://www.w3.org/2000/svg" xmlns:xlink="http://www.w3.org/1999/xlink" contentScriptType="application/ecmascript" contentStyleType="text/css" height="298px" preserveAspectRatio="none" style="width:471px;height:298px;background:#FFFFFF;" version="1.1" viewBox="0 0 471 298" width="471px" zoomAndPan="magnify"><defs><filter height="300%" id="fzoi01n0jjdo1" width="300%" x="-1" y="-1"><feGaussianBlur result="blurOut" stdDeviation="2.0"/><feColorMatrix in="blurOut" result="blurOut2" type="matrix" values="0 0 0 0 0 0 0 0 0 0 0 0 0 0 0 0 0 0 .4 0"/><feOffset dx="4.0" dy="4.0" in="blurOut2" result="blurOut3"/><feBlend in="SourceGraphic" in2="blurOut3" mode="normal"/></filter></defs><g><!--MD5=[97ab183161fd5d1db7fba7485cf76add]
entity Admin--><ellipse cx="262.5" cy="14" fill="#FEFECE" filter="url(#fzoi01n0jjdo1)" rx="8" ry="8" style="stroke:#A80036;stroke-width:1.5;"/><path d="M262.5,22 L262.5,49 M249.5,30 L275.5,30 M262.5,49 L249.5,64 M262.5,49 L275.5,64 " fill="none" filter="url(#fzoi01n0jjdo1)" style="stroke:#A80036;stroke-width:1.5;"/><text fill="#000000" font-family="sans-serif" font-size="14" lengthAdjust="spacing" textLength="74" x="225.5" y="83.4999">Main Admin</text><ellipse cx="135.3885" cy="267.9777" fill="#FEFECE" filter="url(#fzoi01n0jjdo1)" rx="80.3885" ry="18.4777" style="stroke:#A80036;stroke-width:1.5;"/><text fill="#000000" font-family="sans-serif" font-size="14" lengthAdjust="spacing" textLength="118" x="76.3885" y="271.5777">Use the application</text><!--MD5=[fee662a292a0353a69bd162820bae93b]
entity User--><ellipse cx="20.5" cy="14" fill="#FEFECE" filter="url(#fzoi01n0jjdo1)" rx="8" ry="8" style="stroke:#A80036;stroke-width:1.5;"/><path d="M20.5,22 L20.5,49 M7.5,30 L33.5,30 M20.5,49 L7.5,64 M20.5,49 L33.5,64 " fill="none" filter="url(#fzoi01n0jjdo1)" style="stroke:#A80036;stroke-width:1.5;"/><text fill="#000000" font-family="sans-serif" font-size="14" lengthAdjust="spacing" textLength="29" x="6" y="83.4999">User</text><ellipse cx="113.6985" cy="45.3793" fill="#FEFECE" filter="url(#fzoi01n0jjdo1)" rx="32.6985" ry="14.8793" style="stroke:#A80036;stroke-width:1.5;"/><text fill="#000000" font-family="sans-serif" font-size="14" lengthAdjust="spacing" textLength="30" x="98.6985" y="48.9793">Start</text><path d="M334.5,32.5 L334.5,41.5 L299.69,45.5 L334.5,49.5 L334.5,58.1 A0,0 0 0 0 334.5,58.1 L462.5,58.1 A0,0 0 0 0 462.5,58.1 L462.5,42.5 L452.5,32.5 L334.5,32.5 A0,0 0 0 0 334.5,32.5 " fill="#FBFB77" filter="url(#fzoi01n0jjdo1)" style="stroke:#A80036;stroke-width:1.0;"/><path d="M452.5,32.5 L452.5,42.5 L462.5,42.5 L452.5,32.5 " fill="#FBFB77" style="stroke:#A80036;stroke-width:1.0;"/><text fill="#000000" font-family="sans-serif" font-size="13" lengthAdjust="spacing" textLength="107" x="340.5" y="50.5">This is an example.</text><path d="M251.5,247.5 L251.5,264 L216.16,268 L251.5,272 L251.5,288.7 A0,0 0 0 0 251.5,288.7 L375.5,288.7 A0,0 0 0 0 375.5,288.7 L375.5,257.5 L365.5,247.5 L251.5,247.5 A0,0 0 0 0 251.5,247.5 " fill="#FBFB77" filter="url(#fzoi01n0jjdo1)" style="stroke:#A80036;stroke-width:1.0;"/><path d="M365.5,247.5 L365.5,257.5 L375.5,257.5 L365.5,247.5 " fill="#FBFB77" style="stroke:#A80036;stroke-width:1.0;"/><text fill="#000000" font-family="sans-serif" font-size="13" lengthAdjust="spacing" textLength="87" x="257.5" y="265.5">A note can also</text><text fill="#000000" font-family="sans-serif" font-size="13" lengthAdjust="spacing" textLength="103" x="257.5" y="281.1">be on several lines</text><path d="M61.5,146.5 L61.5,187.7 L209.5,187.7 L209.5,156.5 L199.5,146.5 L61.5,146.5 " fill="#FBFB77" filter="url(#fzoi01n0jjdo1)" style="stroke:#A80036;stroke-width:1.0;"/><path d="M199.5,146.5 L199.5,156.5 L209.5,156.5 L199.5,146.5 " fill="#FBFB77" style="stroke:#A80036;stroke-width:1.0;"/><text fill="#000000" font-family="sans-serif" font-size="13" lengthAdjust="spacing" textLength="127" x="67.5" y="164.5">This note is connected</text><text fill="#000000" font-family="sans-serif" font-size="13" lengthAdjust="spacing" textLength="101" x="67.5" y="180.1">to several objects.</text><!--MD5=[f4b2be5085d6f52f3a0e36c62efcf3ad]
link User to Start--><path d="M35.03,45.5 C48.47,45.5 61.91,45.5 75.35,45.5 " fill="none" id="User-to-Start" style="stroke:#A80036;stroke-width:1.0;"/><polygon fill="#A80036" points="80.7,45.5,71.7,41.5,75.7,45.5,71.7,49.5,80.7,45.5" style="stroke:#A80036;stroke-width:1.0;"/><!--MD5=[9b1e83a301d632e8d5a1d64f176fc1f5]
link User to Use--><path d="M20.26,86.56 C21.69,116.16 27.14,156.52 44.5,187.5 C58.48,212.45 83.37,233.37 103.59,247.47 " fill="none" id="User-to-Use" style="stroke:#A80036;stroke-width:1.0;"/><polygon fill="#A80036" points="107.83,250.38,102.6662,241.9934,103.7052,247.554,98.1446,248.5931,107.83,250.38" style="stroke:#A80036;stroke-width:1.0;"/><!--MD5=[eedd4bf29063d6184eb2b121c1f53f26]
link Admin to Use--><path d="M259.09,86.7 C255.08,116.37 246.37,156.77 227.5,187.5 C212.34,212.19 186.99,233.25 166.74,247.48 " fill="none" id="Admin-to-Use" style="stroke:#A80036;stroke-width:1.0;"/><polygon fill="#A80036" points="162.5,250.42,172.1782,248.5946,166.6135,247.5777,167.6305,242.013,162.5,250.42" style="stroke:#A80036;stroke-width:1.0;"/><!--MD5=[18a852dfe38659cca840945dc1aef57a]
link Start to N2--><path d="M116.11,60.68 C120.03,81.95 127.43,122.18 131.87,146.29 " fill="none" id="Start-N2" style="stroke:#A80036;stroke-width:1.0;stroke-dasharray:7.0,7.0;"/><!--MD5=[582b4f0da0cf139d0f490575cc867c3a]
link N2 to Use--><path d="M135.5,187.56 C135.5,205.59 135.5,232.11 135.5,249.47 " fill="none" id="N2-Use" style="stroke:#A80036;stroke-width:1.0;stroke-dasharray:7.0,7.0;"/><!--MD5=[ca2bc12048fe61e170e063d6e4c6d740]
@startuml
:Main Admin: as Admin
(Use the application) as (Use)

User -> (Start)
User - -> (Use)

Admin - - -> (Use)

note right of Admin : This is an example.

note right of (Use)
  A note can also
  be on several lines
end note

note "This note is connected\nto several objects." as N2
(Start) .. N2
N2 .. (Use)
@enduml

PlantUML version 1.2021.16(Wed Dec 08 17:25:22 GMT 2021)
(GPL source distribution)
Java Runtime: OpenJDK Runtime Environment
JVM: OpenJDK 64-Bit Server VM
Default Encoding: UTF-8
Language: en
Country: US
--></g></svg>