<svg xmlns="http://www.w3.org/2000/svg" xmlns:xlink="http://www.w3.org/1999/xlink" version="1.1" class="marks" width="200" height="200" viewBox="0 0 200 200"><g fill="none" stroke-miterlimit="10" transform="translate(0,0)"><g class="mark-group role-frame root" role="graphics-object" aria-roledescription="group mark container"><g transform="translate(0,0)"><path class="background" aria-hidden="true" d="M0,0h200v200h-200Z"/><g><g class="mark-arc role-mark" role="graphics-symbol" aria-roledescription="arc mark container"><path transform="translate(100,100)" d="M1.249979166770843,-94.79418632181475A5,5,0,0,1,6.578925438706151,-99.7833540229629A100,100,0,0,1,56.15587745799332,-82.7436851180973A5,5,0,0,1,57.291582132374856,-75.53260769430403L48.04611131990698,-63.67159017464066A5,5,0,0,1,41.34619947433666,-62.573890633621005A75,75,0,0,0,5.859355468847665,-74.77076937874644A5,5,0,0,1,1.249979166770843,-79.75548733732953Z" fill="#1f77b4"/><path transform="translate(100,100)" d="M59.26329854369188,-73.99568672600813A5,5,0,0,1,66.53347062207693,-74.65451953486287A100,100,0,0,1,99.98264660927005,1.862894791935032A5,5,0,0,1,94.56168214493749,6.751924040752925L79.5765991649175,5.483162744105012A5,5,0,0,1,74.99852934261239,0.4696769584597191A75,75,0,0,0,50.58874338609864,-55.36947753605285A5,5,0,0,1,50.017827731224,-62.134669206344775Z" fill="#aec7e8"/><path transform="translate(100,100)" d="M94.3507695932532,9.242969517051268A5,5,0,0,1,98.87256574672017,14.973835268911486A100,100,0,0,1,-10.291431828918874,99.4690224688607A5,5,0,0,1,-14.70568329780712,93.65491491148175L-12.17720748594053,78.8302976410507A5,5,0,0,1,-6.795360399005936,74.69151944529995A75,75,0,0,0,74.0098635744039,12.14660832076687A5,5,0,0,1,79.36568661323321,7.974208220403354Z" fill="#ff7f0e"/><path transform="translate(100,100)" d="M-17.1700537546541,93.23459369994906A5,5,0,0,1,-23.26197559472452,97.25677606948753A100,100,0,0,1,-56.43748732607907,82.55186263385379A5,5,0,0,1,-57.548614816466426,75.33695733860156L-48.26278315668409,63.50751113296112A5,5,0,0,1,-41.55916996874323,62.43264684048812A75,75,0,0,0,-18.34725094042661,72.72123749585822A5,5,0,0,1,-14.641577942787514,78.40997642951801Z" fill="#ffbb78"/><path transform="translate(100,100)" d="M-59.51508296996049,73.79332698429454A5,5,0,0,1,-66.78745771226507,74.42738402182633A100,100,0,0,1,-98.24614394968582,-18.646586792697857A5,5,0,0,1,-92.08035023873101,-22.554585082526422L-77.52190419757338,-18.784423811087397A5,5,0,0,1,-73.85192879160365,-13.072590170272427A75,75,0,0,0,-50.77711234394015,55.19678307665114A5,5,0,0,1,-50.22925131017818,61.963880778654065Z" fill="#2ca02c"/><path transform="translate(100,100)" d="M-91.45361742766445,-24.974708561396234A5,5,0,0,1,-94.9475062254673,-31.38424862195759A100,100,0,0,1,-5.898785033402901,-99.825870069485A5,5,0,0,1,-0.6039618813790337,-94.80050336563691L-0.7064452021511416,-79.76215357867821A5,5,0,0,1,-5.349683533598304,-74.8089626053613A75,75,0,0,0,-70.91407956847154,-24.41707023695694A5,5,0,0,1,-76.89517138650682,-21.20454728995724Z" fill="#98df8a"/></g></g><path class="foreground" aria-hidden="true" d="" display="none"/></g></g></g></svg>