<svg xmlns="http://www.w3.org/2000/svg" xmlns:xlink="http://www.w3.org/1999/xlink" version="1.1" class="marks" width="858" height="540" viewBox="0 0 858 540"><g fill="none" stroke-miterlimit="10" transform="translate(38,20)"><g class="mark-group role-frame root" role="graphics-object" aria-roledescription="group mark container"><g transform="translate(0,0)"><path class="background" aria-hidden="true" d="M0,0h800v500h-800Z"/><g><g class="mark-group role-axis" role="graphics-symbol" aria-roledescription="axis" aria-label="X-axis for a linear scale with values from 3,500 to 10,500"><g transform="translate(0.5,0.5)"><path class="background" aria-hidden="true" d="M0,0h0v0h0Z" pointer-events="none"/><g><g class="mark-rule role-axis-grid" pointer-events="none"><line transform="translate(57,0)" x2="0" y2="500" stroke="#ddd" stroke-width="1" opacity="1"/><line transform="translate(171,0)" x2="0" y2="500" stroke="#ddd" stroke-width="1" opacity="1"/><line transform="translate(286,0)" x2="0" y2="500" stroke="#ddd" stroke-width="1" opacity="1"/><line transform="translate(400,0)" x2="0" y2="500" stroke="#ddd" stroke-width="1" opacity="1"/><line transform="translate(514,0)" x2="0" y2="500" stroke="#ddd" stroke-width="1" opacity="1"/><line transform="translate(629,0)" x2="0" y2="500" stroke="#ddd" stroke-width="1" opacity="1"/><line transform="translate(743,0)" x2="0" y2="500" stroke="#ddd" stroke-width="1" opacity="1"/></g><g class="mark-rule role-axis-tick" pointer-events="none"><line transform="translate(57,0)" x2="0" y2="0" stroke="#888" stroke-width="1" opacity="1"/><line transform="translate(171,0)" x2="0" y2="0" stroke="#888" stroke-width="1" opacity="1"/><line transform="translate(286,0)" x2="0" y2="0" stroke="#888" stroke-width="1" opacity="1"/><line transform="translate(400,0)" x2="0" y2="0" stroke="#888" stroke-width="1" opacity="1"/><line transform="translate(514,0)" x2="0" y2="0" stroke="#888" stroke-width="1" opacity="1"/><line transform="translate(629,0)" x2="0" y2="0" stroke="#888" stroke-width="1" opacity="1"/><line transform="translate(743,0)" x2="0" y2="0" stroke="#888" stroke-width="1" opacity="1"/></g><g class="mark-text role-axis-label" pointer-events="none"><text text-anchor="middle" transform="translate(57,-5)" font-family="sans-serif" font-size="12px" font-weight="bold" fill="#000" opacity="1">4,000</text><text text-anchor="middle" transform="translate(171,-5)" font-family="sans-serif" font-size="12px" font-weight="bold" fill="#000" opacity="1">5,000</text><text text-anchor="middle" transform="translate(286,-5)" font-family="sans-serif" font-size="12px" font-weight="bold" fill="#000" opacity="1">6,000</text><text text-anchor="middle" transform="translate(400,-5)" font-family="sans-serif" font-size="12px" font-weight="bold" fill="#000" opacity="1">7,000</text><text text-anchor="middle" transform="translate(514,-5)" font-family="sans-serif" font-size="12px" font-weight="bold" fill="#000" opacity="1">8,000</text><text text-anchor="middle" transform="translate(629,-5)" font-family="sans-serif" font-size="12px" font-weight="bold" fill="#000" opacity="1">9,000</text><text text-anchor="middle" transform="translate(743,-5)" font-family="sans-serif" font-size="12px" font-weight="bold" fill="#000" opacity="1">10,000</text></g></g><path class="foreground" aria-hidden="true" d="" pointer-events="none" display="none"/></g></g><g class="mark-group role-axis" role="graphics-symbol" aria-roledescription="axis" aria-label="X-axis titled 'Miles driven per capita each year' for a linear scale with values from 3,500 to 10,500"><g transform="translate(0.5,500.5)"><path class="background" aria-hidden="true" d="M0,0h0v0h0Z" pointer-events="none"/><g><g class="mark-text role-axis-title" pointer-events="none"><text text-anchor="middle" transform="translate(400,13)" font-family="sans-serif" font-size="11px" font-weight="bold" fill="#000" opacity="1">Miles driven per capita each year</text></g></g><path class="foreground" aria-hidden="true" d="" pointer-events="none" display="none"/></g></g><g class="mark-group role-axis" role="graphics-symbol" aria-roledescription="axis" aria-label="Y-axis for a linear scale with values from $1.20 to $3.40"><g transform="translate(0.5,0.5)"><path class="background" aria-hidden="true" d="M0,0h0v0h0Z" pointer-events="none"/><g><g class="mark-rule role-axis-grid" pointer-events="none"><line transform="translate(0,432)" x2="800" y2="0" stroke="#ddd" stroke-width="1" opacity="1"/><line transform="translate(0,318)" x2="800" y2="0" stroke="#ddd" stroke-width="1" opacity="1"/><line transform="translate(0,205)" x2="800" y2="0" stroke="#ddd" stroke-width="1" opacity="1"/><line transform="translate(0,91)" x2="800" y2="0" stroke="#ddd" stroke-width="1" opacity="1"/></g><g class="mark-rule role-axis-tick" pointer-events="none"><line transform="translate(0,432)" x2="0" y2="0" stroke="#888" stroke-width="1" opacity="1"/><line transform="translate(0,318)" x2="0" y2="0" stroke="#888" stroke-width="1" opacity="1"/><line transform="translate(0,205)" x2="0" y2="0" stroke="#888" stroke-width="1" opacity="1"/><line transform="translate(0,91)" x2="0" y2="0" stroke="#888" stroke-width="1" opacity="1"/></g><g class="mark-text role-axis-label" pointer-events="none"><text text-anchor="end" transform="translate(-2,436)" font-family="sans-serif" font-size="12px" font-weight="bold" fill="#000" opacity="1">$1.50</text><text text-anchor="end" transform="translate(-2,322)" font-family="sans-serif" font-size="12px" font-weight="bold" fill="#000" opacity="1">$2.00</text><text text-anchor="end" transform="translate(-2,209)" font-family="sans-serif" font-size="12px" font-weight="bold" fill="#000" opacity="1">$2.50</text><text text-anchor="end" transform="translate(-2,95)" font-family="sans-serif" font-size="12px" font-weight="bold" fill="#000" opacity="1">$3.00</text></g></g><path class="foreground" aria-hidden="true" d="" pointer-events="none" display="none"/></g></g><g class="mark-group role-axis" role="graphics-symbol" aria-roledescription="axis" aria-label="Y-axis titled 'Price of a gallon of gasoline (adjusted for inflation)' for a linear scale with values from 1.2 to 3.4"><g transform="translate(800.5,0.5)"><path class="background" aria-hidden="true" d="M0,0h0v0h0Z" pointer-events="none"/><g><g class="mark-text role-axis-title" pointer-events="none"><text text-anchor="middle" transform="translate(4,250) rotate(90) translate(0,-2)" font-family="sans-serif" font-size="11px" font-weight="bold" fill="#000" opacity="1">Price of a gallon of gasoline (adjusted for inflation)</text></g></g><path class="foreground" aria-hidden="true" d="" pointer-events="none" display="none"/></g></g><g class="mark-line role-mark" role="graphics-symbol" aria-roledescription="line mark container"><path d="M20,232C20,232,22.333333333333332,222.5,24,227C25.666666666666668,231.5,26.333333333333332,255.5,30,259C33.666666666666664,262.5,42.666666666666664,248.33333333333334,46,248C49.333333333333336,247.66666666666666,48.5,254.83333333333334,50,257C51.5,259.1666666666667,52.166666666666664,259.1666666666667,55,261C57.833333333333336,262.8333333333333,62.5,263,67,268C71.5,273,76.66666666666667,286.8333333333333,82,291C87.33333333333333,295.1666666666667,92.83333333333333,293.8333333333333,99,293C105.16666666666667,292.1666666666667,113.16666666666667,287.1666666666667,119,286C124.83333333333333,284.8333333333333,128.5,286,134,286C139.5,286,145,285.5,152,286C159,286.5,168.83333333333334,286.3333333333333,176,289C183.16666666666666,291.6666666666667,188.66666666666666,297.5,195,302C201.33333333333334,306.5,206.16666666666666,310.6666666666667,214,316C221.83333333333334,321.3333333333333,230.5,328.6666666666667,242,334C253.5,339.3333333333333,272.8333333333333,346.8333333333333,283,348C293.1666666666667,349.1666666666667,303.6666666666667,358.8333333333333,303,341C302.3333333333333,323.1666666666667,279.8333333333333,256.5,279,241C278.1666666666667,225.5,289.5,247.33333333333334,298,248C306.5,248.66666666666666,320,247,330,245C340,243,348.5,232.5,358,236C367.5,239.5,384.8333333333333,278,387,266C389.1666666666667,254,375,204.5,371,164C367,123.5,363.3333333333333,46.5,363,23C362.6666666666667,-0.5,366,8.666666666666668,369,23C372,37.33333333333333,377,84.83333333333334,381,109C385,133.16666666666666,387.3333333333333,151.33333333333334,393,168C398.6666666666667,184.66666666666666,407.6666666666667,197.66666666666666,415,209C422.3333333333333,220.33333333333334,428.8333333333333,208.66666666666666,437,236C445.1666666666667,263.3333333333333,455.5,350.1666666666667,464,373C472.5,395.8333333333333,478,370,488,373C498,376,512,390.6666666666667,524,391C536,391.3333333333333,551.5,382.6666666666667,560,375C568.5,367.3333333333333,572.5,346.1666666666667,575,345C577.5,343.8333333333333,572.5,360.6666666666667,575,368C577.5,375.3333333333333,583.8333333333334,382.1666666666667,590,389C596.1666666666666,395.8333333333333,607.3333333333334,405.3333333333333,612,409C616.6666666666666,412.6666666666667,612.3333333333334,411,618,411C623.6666666666666,411,640.5,412,646,409C651.5,406,646,394.8333333333333,651,393C656,391.1666666666667,668.5,387.3333333333333,676,398C683.5,408.6666666666667,690.8333333333334,451.3333333333333,696,457C701.1666666666666,462.6666666666667,704.5,451,707,432C709.5,413,710.8333333333334,353.3333333333333,711,343C711.1666666666666,332.6666666666667,706.1666666666666,360.5,708,370C709.8333333333334,379.5,718.6666666666666,403.3333333333333,722,400C725.3333333333334,396.6666666666667,724.6666666666666,369,728,350C731.3333333333334,331,738.1666666666666,311.3333333333333,742,286C745.8333333333334,260.6666666666667,750.1666666666666,222.5,751,198C751.8333333333334,173.5,747.8333333333334,155,747,139C746.1666666666666,123,749,121.83333333333333,746,102C743,82.16666666666667,736,-1.6666666666666643,729,20C722,41.666666666666664,709.3333333333334,205.33333333333334,704,232C698.6666666666666,258.6666666666667,697,180,697,180" stroke="#000" stroke-width="3"/></g><g class="mark-symbol role-mark" role="graphics-symbol" aria-roledescription="symbol mark container"><path transform="translate(20,232)" d="M3.5,0A3.5,3.5,0,1,1,-3.5,0A3.5,3.5,0,1,1,3.5,0" fill="#fff" stroke="#000" stroke-width="1"/><path transform="translate(24,227)" d="M3.5,0A3.5,3.5,0,1,1,-3.5,0A3.5,3.5,0,1,1,3.5,0" fill="#fff" stroke="#000" stroke-width="1"/><path transform="translate(30,259)" d="M3.5,0A3.5,3.5,0,1,1,-3.5,0A3.5,3.5,0,1,1,3.5,0" fill="#fff" stroke="#000" stroke-width="1"/><path transform="translate(46,248)" d="M3.5,0A3.5,3.5,0,1,1,-3.5,0A3.5,3.5,0,1,1,3.5,0" fill="#fff" stroke="#000" stroke-width="1"/><path transform="translate(50,257)" d="M3.5,0A3.5,3.5,0,1,1,-3.5,0A3.5,3.5,0,1,1,3.5,0" fill="#fff" stroke="#000" stroke-width="1"/><path transform="translate(55,261)" d="M3.5,0A3.5,3.5,0,1,1,-3.5,0A3.5,3.5,0,1,1,3.5,0" fill="#fff" stroke="#000" stroke-width="1"/><path transform="translate(67,268)" d="M3.5,0A3.5,3.5,0,1,1,-3.5,0A3.5,3.5,0,1,1,3.5,0" fill="#fff" stroke="#000" stroke-width="1"/><path transform="translate(82,291)" d="M3.5,0A3.5,3.5,0,1,1,-3.5,0A3.5,3.5,0,1,1,3.5,0" fill="#fff" stroke="#000" stroke-width="1"/><path transform="translate(99,293)" d="M3.5,0A3.5,3.5,0,1,1,-3.5,0A3.5,3.5,0,1,1,3.5,0" fill="#fff" stroke="#000" stroke-width="1"/><path transform="translate(119,286)" d="M3.5,0A3.5,3.5,0,1,1,-3.5,0A3.5,3.5,0,1,1,3.5,0" fill="#fff" stroke="#000" stroke-width="1"/><path transform="translate(134,286)" d="M3.5,0A3.5,3.5,0,1,1,-3.5,0A3.5,3.5,0,1,1,3.5,0" fill="#fff" stroke="#000" stroke-width="1"/><path transform="translate(152,286)" d="M3.5,0A3.5,3.5,0,1,1,-3.5,0A3.5,3.5,0,1,1,3.5,0" fill="#fff" stroke="#000" stroke-width="1"/><path transform="translate(176,289)" d="M3.5,0A3.5,3.5,0,1,1,-3.5,0A3.5,3.5,0,1,1,3.5,0" fill="#fff" stroke="#000" stroke-width="1"/><path transform="translate(195,302)" d="M3.5,0A3.5,3.5,0,1,1,-3.5,0A3.5,3.5,0,1,1,3.5,0" fill="#fff" stroke="#000" stroke-width="1"/><path transform="translate(214,316)" d="M3.5,0A3.5,3.5,0,1,1,-3.5,0A3.5,3.5,0,1,1,3.5,0" fill="#fff" stroke="#000" stroke-width="1"/><path transform="translate(242,334)" d="M3.5,0A3.5,3.5,0,1,1,-3.5,0A3.5,3.5,0,1,1,3.5,0" fill="#fff" stroke="#000" stroke-width="1"/><path transform="translate(283,348)" d="M3.5,0A3.5,3.5,0,1,1,-3.5,0A3.5,3.5,0,1,1,3.5,0" fill="#fff" stroke="#000" stroke-width="1"/><path transform="translate(303,341)" d="M3.5,0A3.5,3.5,0,1,1,-3.5,0A3.5,3.5,0,1,1,3.5,0" fill="#fff" stroke="#000" stroke-width="1"/><path transform="translate(279,241)" d="M3.5,0A3.5,3.5,0,1,1,-3.5,0A3.5,3.5,0,1,1,3.5,0" fill="#fff" stroke="#000" stroke-width="1"/><path transform="translate(298,248)" d="M3.5,0A3.5,3.5,0,1,1,-3.5,0A3.5,3.5,0,1,1,3.5,0" fill="#fff" stroke="#000" stroke-width="1"/><path transform="translate(330,245)" d="M3.5,0A3.5,3.5,0,1,1,-3.5,0A3.5,3.5,0,1,1,3.5,0" fill="#fff" stroke="#000" stroke-width="1"/><path transform="translate(358,236)" d="M3.5,0A3.5,3.5,0,1,1,-3.5,0A3.5,3.5,0,1,1,3.5,0" fill="#fff" stroke="#000" stroke-width="1"/><path transform="translate(387,266)" d="M3.5,0A3.5,3.5,0,1,1,-3.5,0A3.5,3.5,0,1,1,3.5,0" fill="#fff" stroke="#000" stroke-width="1"/><path transform="translate(371,164)" d="M3.5,0A3.5,3.5,0,1,1,-3.5,0A3.5,3.5,0,1,1,3.5,0" fill="#fff" stroke="#000" stroke-width="1"/><path transform="translate(363,23)" d="M3.5,0A3.5,3.5,0,1,1,-3.5,0A3.5,3.5,0,1,1,3.5,0" fill="#fff" stroke="#000" stroke-width="1"/><path transform="translate(369,23)" d="M3.5,0A3.5,3.5,0,1,1,-3.5,0A3.5,3.5,0,1,1,3.5,0" fill="#fff" stroke="#000" stroke-width="1"/><path transform="translate(381,109)" d="M3.5,0A3.5,3.5,0,1,1,-3.5,0A3.5,3.5,0,1,1,3.5,0" fill="#fff" stroke="#000" stroke-width="1"/><path transform="translate(393,168)" d="M3.5,0A3.5,3.5,0,1,1,-3.5,0A3.5,3.5,0,1,1,3.5,0" fill="#fff" stroke="#000" stroke-width="1"/><path transform="translate(415,209)" d="M3.5,0A3.5,3.5,0,1,1,-3.5,0A3.5,3.5,0,1,1,3.5,0" fill="#fff" stroke="#000" stroke-width="1"/><path transform="translate(437,236)" d="M3.5,0A3.5,3.5,0,1,1,-3.5,0A3.5,3.5,0,1,1,3.5,0" fill="#fff" stroke="#000" stroke-width="1"/><path transform="translate(464,373)" d="M3.5,0A3.5,3.5,0,1,1,-3.5,0A3.5,3.5,0,1,1,3.5,0" fill="#fff" stroke="#000" stroke-width="1"/><path transform="translate(488,373)" d="M3.5,0A3.5,3.5,0,1,1,-3.5,0A3.5,3.5,0,1,1,3.5,0" fill="#fff" stroke="#000" stroke-width="1"/><path transform="translate(524,391)" d="M3.5,0A3.5,3.5,0,1,1,-3.5,0A3.5,3.5,0,1,1,3.5,0" fill="#fff" stroke="#000" stroke-width="1"/><path transform="translate(560,375)" d="M3.5,0A3.5,3.5,0,1,1,-3.5,0A3.5,3.5,0,1,1,3.5,0" fill="#fff" stroke="#000" stroke-width="1"/><path transform="translate(575,345)" d="M3.5,0A3.5,3.5,0,1,1,-3.5,0A3.5,3.5,0,1,1,3.5,0" fill="#fff" stroke="#000" stroke-width="1"/><path transform="translate(575,368)" d="M3.5,0A3.5,3.5,0,1,1,-3.5,0A3.5,3.5,0,1,1,3.5,0" fill="#fff" stroke="#000" stroke-width="1"/><path transform="translate(590,389)" d="M3.5,0A3.5,3.5,0,1,1,-3.5,0A3.5,3.5,0,1,1,3.5,0" fill="#fff" stroke="#000" stroke-width="1"/><path transform="translate(612,409)" d="M3.5,0A3.5,3.5,0,1,1,-3.5,0A3.5,3.5,0,1,1,3.5,0" fill="#fff" stroke="#000" stroke-width="1"/><path transform="translate(618,411)" d="M3.5,0A3.5,3.5,0,1,1,-3.5,0A3.5,3.5,0,1,1,3.5,0" fill="#fff" stroke="#000" stroke-width="1"/><path transform="translate(646,409)" d="M3.5,0A3.5,3.5,0,1,1,-3.5,0A3.5,3.5,0,1,1,3.5,0" fill="#fff" stroke="#000" stroke-width="1"/><path transform="translate(651,393)" d="M3.5,0A3.5,3.5,0,1,1,-3.5,0A3.5,3.5,0,1,1,3.5,0" fill="#fff" stroke="#000" stroke-width="1"/><path transform="translate(676,398)" d="M3.5,0A3.5,3.5,0,1,1,-3.5,0A3.5,3.5,0,1,1,3.5,0" fill="#fff" stroke="#000" stroke-width="1"/><path transform="translate(696,457)" d="M3.5,0A3.5,3.5,0,1,1,-3.5,0A3.5,3.5,0,1,1,3.5,0" fill="#fff" stroke="#000" stroke-width="1"/><path transform="translate(707,432)" d="M3.5,0A3.5,3.5,0,1,1,-3.5,0A3.5,3.5,0,1,1,3.5,0" fill="#fff" stroke="#000" stroke-width="1"/><path transform="translate(711,343)" d="M3.5,0A3.5,3.5,0,1,1,-3.5,0A3.5,3.5,0,1,1,3.5,0" fill="#fff" stroke="#000" stroke-width="1"/><path transform="translate(708,370)" d="M3.5,0A3.5,3.5,0,1,1,-3.5,0A3.5,3.5,0,1,1,3.5,0" fill="#fff" stroke="#000" stroke-width="1"/><path transform="translate(722,400)" d="M3.5,0A3.5,3.5,0,1,1,-3.5,0A3.5,3.5,0,1,1,3.5,0" fill="#fff" stroke="#000" stroke-width="1"/><path transform="translate(728,350)" d="M3.5,0A3.5,3.5,0,1,1,-3.5,0A3.5,3.5,0,1,1,3.5,0" fill="#fff" stroke="#000" stroke-width="1"/><path transform="translate(742,286)" d="M3.5,0A3.5,3.5,0,1,1,-3.5,0A3.5,3.5,0,1,1,3.5,0" fill="#fff" stroke="#000" stroke-width="1"/><path transform="translate(751,198)" d="M3.5,0A3.5,3.5,0,1,1,-3.5,0A3.5,3.5,0,1,1,3.5,0" fill="#fff" stroke="#000" stroke-width="1"/><path transform="translate(747,139)" d="M3.5,0A3.5,3.5,0,1,1,-3.5,0A3.5,3.5,0,1,1,3.5,0" fill="#fff" stroke="#000" stroke-width="1"/><path transform="translate(746,102)" d="M3.5,0A3.5,3.5,0,1,1,-3.5,0A3.5,3.5,0,1,1,3.5,0" fill="#fff" stroke="#000" stroke-width="1"/><path transform="translate(729,20)" d="M3.5,0A3.5,3.5,0,1,1,-3.5,0A3.5,3.5,0,1,1,3.5,0" fill="#fff" stroke="#000" stroke-width="1"/><path transform="translate(704,232)" d="M3.5,0A3.5,3.5,0,1,1,-3.5,0A3.5,3.5,0,1,1,3.5,0" fill="#fff" stroke="#000" stroke-width="1"/><path transform="translate(697,180)" d="M3.5,0A3.5,3.5,0,1,1,-3.5,0A3.5,3.5,0,1,1,3.5,0" fill="#fff" stroke="#000" stroke-width="1"/></g><g class="mark-text role-mark" role="graphics-object" aria-roledescription="text mark container"><text text-anchor="end" transform="translate(13,236)" font-family="sans-serif" font-size="11px" fill="#000">1956</text><text text-anchor="start" transform="translate(30,231)" font-family="sans-serif" font-size="11px" fill="#000">1957</text><text text-anchor="middle" transform="translate(30,274)" font-family="sans-serif" font-size="11px" fill="#000">1958</text><text text-anchor="middle" transform="translate(46,241)" font-family="sans-serif" font-size="11px" fill="#000">1959</text><text text-anchor="start" transform="translate(56,261)" font-family="sans-serif" font-size="11px" fill="#000">1960</text><text text-anchor="middle" transform="translate(55,276)" font-family="sans-serif" font-size="11px" fill="#000">1961</text><text text-anchor="start" transform="translate(73,272)" font-family="sans-serif" font-size="11px" fill="#000">1962</text><text text-anchor="middle" transform="translate(82,306)" font-family="sans-serif" font-size="11px" fill="#000">1963</text><text text-anchor="middle" transform="translate(99,308)" font-family="sans-serif" font-size="11px" fill="#000">1964</text><text text-anchor="middle" transform="translate(119,301)" font-family="sans-serif" font-size="11px" fill="#000">1965</text><text text-anchor="middle" transform="translate(134,279)" font-family="sans-serif" font-size="11px" fill="#000">1966</text><text text-anchor="middle" transform="translate(152,301)" font-family="sans-serif" font-size="11px" fill="#000">1967</text><text text-anchor="start" transform="translate(182,293)" font-family="sans-serif" font-size="11px" fill="#000">1968</text><text text-anchor="start" transform="translate(201,306)" font-family="sans-serif" font-size="11px" fill="#000">1969</text><text text-anchor="start" transform="translate(220,320)" font-family="sans-serif" font-size="11px" fill="#000">1970</text><text text-anchor="middle" transform="translate(242,349)" font-family="sans-serif" font-size="11px" fill="#000">1971</text><text text-anchor="middle" transform="translate(283,363)" font-family="sans-serif" font-size="11px" fill="#000">1972</text><text text-anchor="start" transform="translate(309,345)" font-family="sans-serif" font-size="11px" fill="#000">1973</text><text text-anchor="end" transform="translate(272,245)" font-family="sans-serif" font-size="11px" fill="#000">1974</text><text text-anchor="middle" transform="translate(298,263)" font-family="sans-serif" font-size="11px" fill="#000">1975</text><text text-anchor="middle" transform="translate(330,260)" font-family="sans-serif" font-size="11px" fill="#000">1976</text><text text-anchor="middle" transform="translate(358,229)" font-family="sans-serif" font-size="11px" fill="#000">1977</text><text text-anchor="middle" transform="translate(387,281)" font-family="sans-serif" font-size="11px" fill="#000">1978</text><text text-anchor="end" transform="translate(364,168)" font-family="sans-serif" font-size="11px" fill="#000">1979</text><text text-anchor="end" transform="translate(356,27)" font-family="sans-serif" font-size="11px" fill="#000">1980</text><text text-anchor="start" transform="translate(375,27)" font-family="sans-serif" font-size="11px" fill="#000">1981</text><text text-anchor="start" transform="translate(387,113)" font-family="sans-serif" font-size="11px" fill="#000">1982</text><text text-anchor="start" transform="translate(399,172)" font-family="sans-serif" font-size="11px" fill="#000">1983</text><text text-anchor="start" transform="translate(421,213)" font-family="sans-serif" font-size="11px" fill="#000">1984</text><text text-anchor="start" transform="translate(443,240)" font-family="sans-serif" font-size="11px" fill="#000">1985</text><text text-anchor="end" transform="translate(457,377)" font-family="sans-serif" font-size="11px" fill="#000">1986</text><text text-anchor="middle" transform="translate(488,366)" font-family="sans-serif" font-size="11px" fill="#000">1987</text><text text-anchor="middle" transform="translate(524,406)" font-family="sans-serif" font-size="11px" fill="#000">1988</text><text text-anchor="end" transform="translate(553,379)" font-family="sans-serif" font-size="11px" fill="#000">1989</text><text text-anchor="middle" transform="translate(575,338)" font-family="sans-serif" font-size="11px" fill="#000">1990</text><text text-anchor="start" transform="translate(581,372)" font-family="sans-serif" font-size="11px" fill="#000">1991</text><text text-anchor="start" transform="translate(596,393)" font-family="sans-serif" font-size="11px" fill="#000">1992</text><text text-anchor="end" transform="translate(605,413)" font-family="sans-serif" font-size="11px" fill="#000">1993</text><text text-anchor="middle" transform="translate(618,426)" font-family="sans-serif" font-size="11px" fill="#000">1994</text><text text-anchor="middle" transform="translate(646,424)" font-family="sans-serif" font-size="11px" fill="#000">1995</text><text text-anchor="middle" transform="translate(651,386)" font-family="sans-serif" font-size="11px" fill="#000">1996</text><text text-anchor="start" transform="translate(682,402)" font-family="sans-serif" font-size="11px" fill="#000">1997</text><text text-anchor="middle" transform="translate(696,472)" font-family="sans-serif" font-size="11px" fill="#000">1998</text><text text-anchor="start" transform="translate(713,436)" font-family="sans-serif" font-size="11px" fill="#000">1999</text><text text-anchor="middle" transform="translate(711,336)" font-family="sans-serif" font-size="11px" fill="#000">2000</text><text text-anchor="end" transform="translate(701,374)" font-family="sans-serif" font-size="11px" fill="#000">2001</text><text text-anchor="middle" transform="translate(722,415)" font-family="sans-serif" font-size="11px" fill="#000">2002</text><text text-anchor="start" transform="translate(734,354)" font-family="sans-serif" font-size="11px" fill="#000">2003</text><text text-anchor="end" transform="translate(735,290)" font-family="sans-serif" font-size="11px" fill="#000">2004</text><text text-anchor="end" transform="translate(744,202)" font-family="sans-serif" font-size="11px" fill="#000">2005</text><text text-anchor="start" transform="translate(753,143)" font-family="sans-serif" font-size="11px" fill="#000">2006</text><text text-anchor="start" transform="translate(752,106)" font-family="sans-serif" font-size="11px" fill="#000">2007</text><text text-anchor="end" transform="translate(722,24)" font-family="sans-serif" font-size="11px" fill="#000">2008</text><text text-anchor="middle" transform="translate(704,247)" font-family="sans-serif" font-size="11px" fill="#000">2009</text><text text-anchor="end" transform="translate(690,184)" font-family="sans-serif" font-size="11px" fill="#000">2010</text></g></g><path class="foreground" aria-hidden="true" d="" display="none"/></g></g></g></svg>