<?xml version="1.0" encoding="UTF-8" standalone="no"?><svg xmlns="http://www.w3.org/2000/svg" xmlns:xlink="http://www.w3.org/1999/xlink" contentScriptType="application/ecmascript" contentStyleType="text/css" height="374px" preserveAspectRatio="none" style="width:235px;height:374px;background:#FFFFFF;" version="1.1" viewBox="0 0 235 374" width="235px" zoomAndPan="magnify"><defs><filter height="300%" id="fuxhijcf85a6p" width="300%" x="-1" y="-1"><feGaussianBlur result="blurOut" stdDeviation="2.0"/><feColorMatrix in="blurOut" result="blurOut2" type="matrix" values="0 0 0 0 0 0 0 0 0 0 0 0 0 0 0 0 0 0 .4 0"/><feOffset dx="4.0" dy="4.0" in="blurOut2" result="blurOut3"/><feBlend in="SourceGraphic" in2="blurOut3" mode="normal"/></filter></defs><g><rect fill="#FEFECE" filter="url(#fuxhijcf85a6p)" height="34.4001" style="stroke:#A80036;stroke-width:1.5;" width="52" x="169.5" y="119.5"/><text fill="#000000" font-family="sans-serif" font-size="12" lengthAdjust="spacing" textLength="38" x="176.5" y="133.5001">London</text><line style="stroke:#A80036;stroke-width:1.5;" x1="170.5" x2="220.5" y1="137.9001" y2="137.9001"/><rect fill="#FEFECE" filter="url(#fuxhijcf85a6p)" height="34.4001" style="stroke:#A80036;stroke-width:1.5;" width="75" x="7" y="232"/><text fill="#000000" font-family="sans-serif" font-size="12" lengthAdjust="spacing" textLength="61" x="14" y="246.0001">Washington</text><line style="stroke:#A80036;stroke-width:1.5;" x1="8" x2="81" y1="250.4001" y2="250.4001"/><rect fill="#FEFECE" filter="url(#fuxhijcf85a6p)" height="34.4001" style="stroke:#A80036;stroke-width:1.5;" width="44" x="113.5" y="326"/><text fill="#000000" font-family="sans-serif" font-size="12" lengthAdjust="spacing" textLength="30" x="120.5" y="340.0001">Berlin</text><line style="stroke:#A80036;stroke-width:1.5;" x1="114.5" x2="156.5" y1="344.4001" y2="344.4001"/><rect fill="#FEFECE" filter="url(#fuxhijcf85a6p)" height="34.4001" style="stroke:#A80036;stroke-width:1.5;" width="62" x="58.5" y="7"/><text fill="#000000" font-family="sans-serif" font-size="12" lengthAdjust="spacing" textLength="48" x="65.5" y="21.0001">NewYork</text><line style="stroke:#A80036;stroke-width:1.5;" x1="59.5" x2="119.5" y1="25.4001" y2="25.4001"/><rect fill="#FEFECE" filter="url(#fuxhijcf85a6p)" height="66.4001" style="stroke:#A80036;stroke-width:1.5;" width="74" x="52.5" y="105"/><text fill="#000000" font-family="sans-serif" font-size="12" lengthAdjust="spacing" textLength="60" x="59.5" y="119.0001">CapitalCity</text><line style="stroke:#A80036;stroke-width:1.0;" x1="52.5" x2="126.5" y1="123.4001" y2="123.4001"/><text fill="#000000" font-family="sans-serif" font-size="10" lengthAdjust="spacing" textLength="14" x="82.5" y="135.4001">UK</text><line style="stroke:#A80036;stroke-width:1.0;" x1="52.5" x2="126.5" y1="139.4001" y2="139.4001"/><text fill="#000000" font-family="sans-serif" font-size="10" lengthAdjust="spacing" textLength="21" x="79" y="151.4001">USA</text><line style="stroke:#A80036;stroke-width:1.0;" x1="52.5" x2="126.5" y1="155.4001" y2="155.4001"/><text fill="#000000" font-family="sans-serif" font-size="10" lengthAdjust="spacing" textLength="39" x="70" y="167.4001">Germany</text><!--MD5=[08c2154df57d6956de6a57e0600d8c0c]
link CapitalCity to London--><path d="M127.5,130.5 C139.55,137.35 152.77,142.42 164.27,144.91 " fill="none" id="CapitalCity-to-London" style="stroke:#A80036;stroke-width:1.0;"/><polygon fill="#A80036" points="169.41,145.87,161.2935,140.2913,164.4943,144.9555,159.8302,148.1563,169.41,145.87" style="stroke:#A80036;stroke-width:1.0;"/><!--MD5=[ce1df1cec5f1bd19f4efb3c41b6a206d]
link CapitalCity to Washington--><path d="M51.5,146.5 C19.61,146.5 29.22,196.99 37.66,226.75 " fill="none" id="CapitalCity-to-Washington" style="stroke:#A80036;stroke-width:1.0;"/><polygon fill="#A80036" points="39.1,231.69,40.42,221.93,37.7,226.89,32.74,224.17,39.1,231.69" style="stroke:#A80036;stroke-width:1.0;"/><!--MD5=[ca073b26b61f93d6677a90d4638426cb]
link CapitalCity to Berlin--><path d="M127.5,161.5 C159.06,161.5 145.95,273.04 138.89,320.76 " fill="none" id="CapitalCity-to-Berlin" style="stroke:#A80036;stroke-width:1.0;"/><polygon fill="#A80036" points="138.1,325.98,143.3932,317.6744,138.8431,321.0355,135.482,316.4855,138.1,325.98" style="stroke:#A80036;stroke-width:1.0;"/><!--MD5=[bd294936e9d7f09591172f202d803ee0]
link NewYork to CapitalCity--><path codeLine="12" d="M101.38,41.13 C123.82,72.76 167.21,140.36 132.64,146.11 " fill="none" id="NewYork-to-CapitalCity" style="stroke:#A80036;stroke-width:1.0;"/><polygon fill="#A80036" points="127.5,146.5,136.7817,149.7939,132.4851,146.1143,136.1647,141.8177,127.5,146.5" style="stroke:#A80036;stroke-width:1.0;"/><!--MD5=[913b58ab6668850dd817e66e77c9f328]
@startuml
object London
object Washington
object Berlin
object NewYork

map CapitalCity {
 UK *-> London
 USA *- -> Washington
 Germany *- - -> Berlin
}

NewYork - -> CapitalCity::USA
@enduml

PlantUML version 1.2021.16(Wed Dec 08 17:25:22 GMT 2021)
(GPL source distribution)
Java Runtime: OpenJDK Runtime Environment
JVM: OpenJDK 64-Bit Server VM
Default Encoding: UTF-8
Language: en
Country: US
--></g></svg>