<svg xmlns="http://www.w3.org/2000/svg" xmlns:xlink="http://www.w3.org/1999/xlink" version="1.1" class="marks" width="274" height="210" viewBox="0 0 274 210"><rect width="274" height="210" fill="white"/><g fill="none" stroke-miterlimit="10" transform="translate(5,5)"><g class="mark-group role-frame root" role="graphics-object" aria-roledescription="group mark container"><g transform="translate(0,0)"><path class="background" aria-hidden="true" d="M0,0h200v200h-200Z"/><g><g class="mark-arc role-mark layer_0_marks" role="graphics-object" aria-roledescription="arc mark container"><path aria-label="value: 4; category: 1" role="graphics-symbol" aria-roledescription="arc mark" transform="translate(100,100)" d="M61.421271268966784,-78.91405093963935A100,100,0,0,0,6.123233995736766e-15,-100L3.061616997868383e-15,-50A50,50,0,0,1,30.710635634483392,-39.457025469819676Z" fill="#4c78a8"/><path aria-label="value: 6; category: 2" role="graphics-symbol" aria-roledescription="arc mark" transform="translate(100,100)" d="M99.65844930066699,8.257934547233234A100,100,0,0,0,61.421271268966784,-78.91405093963935L30.710635634483392,-39.457025469819676A50,50,0,0,1,49.829224650333494,4.128967273616617Z" fill="#f58518"/><path aria-label="value: 10; category: 3" role="graphics-symbol" aria-roledescription="arc mark" transform="translate(100,100)" d="M-16.459459028073383,98.63613034027225A100,100,0,0,0,99.65844930066699,8.257934547233234L49.829224650333494,4.128967273616617A50,50,0,0,1,-8.229729514036691,49.31806517013612Z" fill="#e45756"/><path aria-label="value: 3; category: 4" role="graphics-symbol" aria-roledescription="arc mark" transform="translate(100,100)" d="M-61.421271268966784,78.91405093963935A100,100,0,0,0,-16.459459028073383,98.63613034027225L-8.229729514036691,49.31806517013612A50,50,0,0,1,-30.710635634483392,39.457025469819676Z" fill="#72b7b2"/><path aria-label="value: 7; category: 5" role="graphics-symbol" aria-roledescription="arc mark" transform="translate(100,100)" d="M-96.94002659393306,-24.548548714079885A100,100,0,0,0,-61.421271268966784,78.91405093963935L-30.710635634483392,39.457025469819676A50,50,0,0,1,-48.47001329696653,-12.274274357039943Z" fill="#54a24b"/><path aria-label="value: 8; category: 6" role="graphics-symbol" aria-roledescription="arc mark" transform="translate(100,100)" d="M-1.8369701987210297e-14,-100A100,100,0,0,0,-96.94002659393306,-24.548548714079885L-48.47001329696653,-12.274274357039943A50,50,0,0,1,-9.184850993605149e-15,-50Z" fill="#eeca3b"/></g><g class="mark-arc role-mark layer_1_marks" role="graphics-object" aria-roledescription="arc mark container"><path aria-label="Other: 2; category: 1" role="graphics-symbol" aria-roledescription="arc mark" transform="translate(100,100)" d="M12.987978768187343,-37.83268966802539A40,40,0,0,0,2.4492935982947065e-15,-40L6.123233995736766e-16,-10A10,10,0,0,1,3.2469946920468358,-9.458172417006347Z" fill="#4c78a8"/><path aria-label="Other: 5; category: 2" role="graphics-symbol" aria-roledescription="arc mark" transform="translate(100,100)" d="M36.630933066202296,-16.06781698611878A40,40,0,0,0,12.987978768187343,-37.83268966802539L3.2469946920468358,-9.458172417006347A10,10,0,0,1,9.157733266550574,-4.016954246529695Z" fill="#f58518"/><path aria-label="Other: 11; category: 3" role="graphics-symbol" aria-roledescription="arc mark" transform="translate(100,100)" d="M6.583783611229359,39.45445213610889A40,40,0,0,0,36.630933066202296,-16.06781698611878L9.157733266550574,-4.016954246529695A10,10,0,0,1,1.6459459028073398,9.863613034027223Z" fill="#e45756"/><path aria-label="Other: 7; category: 4" role="graphics-symbol" aria-roledescription="arc mark" transform="translate(100,100)" d="M-33.48665913050114,21.87792632489707A40,40,0,0,0,6.583783611229359,39.45445213610889L1.6459459028073398,9.863613034027223A10,10,0,0,1,-8.371664782625285,5.469481581224268Z" fill="#72b7b2"/><path aria-label="Other: 1; category: 5" role="graphics-symbol" aria-roledescription="arc mark" transform="translate(100,100)" d="M-36.63093306620229,16.067816986118792A40,40,0,0,0,-33.48665913050114,21.87792632489707L-8.371664782625285,5.469481581224268A10,10,0,0,1,-9.157733266550572,4.016954246529698Z" fill="#54a24b"/><path aria-label="Other: 12; category: 6" role="graphics-symbol" aria-roledescription="arc mark" transform="translate(100,100)" d="M-7.347880794884118e-15,-40A40,40,0,0,0,-36.63093306620229,16.067816986118792L-9.157733266550572,4.016954246529698A10,10,0,0,1,-1.8369701987210296e-15,-10Z" fill="#eeca3b"/></g><g class="mark-group role-legend" role="graphics-symbol" aria-roledescription="legend" aria-label="Symbol legend titled 'category' for fill color with 6 values: 1, 2, 3, 4, 5, 6"><g transform="translate(218,0)"><path class="background" aria-hidden="true" d="M0,0h46v92h-46Z" pointer-events="none"/><g><g class="mark-group role-legend-entry"><g transform="translate(0,16)"><path class="background" aria-hidden="true" d="M0,0h0v0h0Z" pointer-events="none"/><g><g class="mark-group role-scope" role="graphics-object" aria-roledescription="group mark container"><g transform="translate(0,0)"><path class="background" aria-hidden="true" d="M0,0h22v11h-22Z" pointer-events="none" opacity="1"/><g><g class="mark-symbol role-legend-symbol" pointer-events="none"><path transform="translate(6,6)" d="M5,0A5,5,0,1,1,-5,0A5,5,0,1,1,5,0" fill="#4c78a8" stroke-width="1.5" opacity="1"/></g><g class="mark-text role-legend-label" pointer-events="none"><text text-anchor="start" transform="translate(16,9)" font-family="sans-serif" font-size="10px" fill="#000" opacity="1">1</text></g></g><path class="foreground" aria-hidden="true" d="" pointer-events="none" display="none"/></g><g transform="translate(0,13)"><path class="background" aria-hidden="true" d="M0,0h22v11h-22Z" pointer-events="none" opacity="1"/><g><g class="mark-symbol role-legend-symbol" pointer-events="none"><path transform="translate(6,6)" d="M5,0A5,5,0,1,1,-5,0A5,5,0,1,1,5,0" fill="#f58518" stroke-width="1.5" opacity="1"/></g><g class="mark-text role-legend-label" pointer-events="none"><text text-anchor="start" transform="translate(16,9)" font-family="sans-serif" font-size="10px" fill="#000" opacity="1">2</text></g></g><path class="foreground" aria-hidden="true" d="" pointer-events="none" display="none"/></g><g transform="translate(0,26)"><path class="background" aria-hidden="true" d="M0,0h22v11h-22Z" pointer-events="none" opacity="1"/><g><g class="mark-symbol role-legend-symbol" pointer-events="none"><path transform="translate(6,6)" d="M5,0A5,5,0,1,1,-5,0A5,5,0,1,1,5,0" fill="#e45756" stroke-width="1.5" opacity="1"/></g><g class="mark-text role-legend-label" pointer-events="none"><text text-anchor="start" transform="translate(16,9)" font-family="sans-serif" font-size="10px" fill="#000" opacity="1">3</text></g></g><path class="foreground" aria-hidden="true" d="" pointer-events="none" display="none"/></g><g transform="translate(0,39)"><path class="background" aria-hidden="true" d="M0,0h22v11h-22Z" pointer-events="none" opacity="1"/><g><g class="mark-symbol role-legend-symbol" pointer-events="none"><path transform="translate(6,6)" d="M5,0A5,5,0,1,1,-5,0A5,5,0,1,1,5,0" fill="#72b7b2" stroke-width="1.5" opacity="1"/></g><g class="mark-text role-legend-label" pointer-events="none"><text text-anchor="start" transform="translate(16,9)" font-family="sans-serif" font-size="10px" fill="#000" opacity="1">4</text></g></g><path class="foreground" aria-hidden="true" d="" pointer-events="none" display="none"/></g><g transform="translate(0,52)"><path class="background" aria-hidden="true" d="M0,0h22v11h-22Z" pointer-events="none" opacity="1"/><g><g class="mark-symbol role-legend-symbol" pointer-events="none"><path transform="translate(6,6)" d="M5,0A5,5,0,1,1,-5,0A5,5,0,1,1,5,0" fill="#54a24b" stroke-width="1.5" opacity="1"/></g><g class="mark-text role-legend-label" pointer-events="none"><text text-anchor="start" transform="translate(16,9)" font-family="sans-serif" font-size="10px" fill="#000" opacity="1">5</text></g></g><path class="foreground" aria-hidden="true" d="" pointer-events="none" display="none"/></g><g transform="translate(0,65)"><path class="background" aria-hidden="true" d="M0,0h22v11h-22Z" pointer-events="none" opacity="1"/><g><g class="mark-symbol role-legend-symbol" pointer-events="none"><path transform="translate(6,6)" d="M5,0A5,5,0,1,1,-5,0A5,5,0,1,1,5,0" fill="#eeca3b" stroke-width="1.5" opacity="1"/></g><g class="mark-text role-legend-label" pointer-events="none"><text text-anchor="start" transform="translate(16,9)" font-family="sans-serif" font-size="10px" fill="#000" opacity="1">6</text></g></g><path class="foreground" aria-hidden="true" d="" pointer-events="none" display="none"/></g></g></g><path class="foreground" aria-hidden="true" d="" pointer-events="none" display="none"/></g></g><g class="mark-text role-legend-title" pointer-events="none"><text text-anchor="start" transform="translate(0,9)" font-family="sans-serif" font-size="11px" font-weight="bold" fill="#000" opacity="1">category</text></g></g><path class="foreground" aria-hidden="true" d="" pointer-events="none" display="none"/></g></g></g><path class="foreground" aria-hidden="true" d="" display="none"/></g></g></g></svg>