<?xml version="1.0" encoding="UTF-8" standalone="no"?>
<!DOCTYPE svg PUBLIC "-//W3C//DTD SVG 1.1//EN"
 "http://www.w3.org/Graphics/SVG/1.1/DTD/svg11.dtd">
<!-- Generated by graphviz version 2.44.0 ()
 -->
<!-- Title: D Pages: 1 -->
<svg width="646pt" height="177pt"
 viewBox="0.00 0.00 646.00 177.00" xmlns="http://www.w3.org/2000/svg" xmlns:xlink="http://www.w3.org/1999/xlink">
<g id="graph0" class="graph" transform="scale(1 1) rotate(0) translate(4 173)">
<title>D</title>
<polygon fill="white" stroke="transparent" points="-4,4 -4,-173 642,-173 642,4 -4,4"/>
<g id="clust1" class="cluster">
<title>cluster_p</title>
<polygon fill="none" stroke="black" points="8,-8 8,-161 630,-161 630,-8 8,-8"/>
<text text-anchor="middle" x="319" y="-145.8" font-family="Times,serif" font-size="14.00">Kroki</text>
</g>
<g id="clust2" class="cluster">
<title>cluster_c1</title>
<polygon fill="none" stroke="black" points="112,-16 112,-130 622,-130 622,-16 112,-16"/>
<text text-anchor="middle" x="367" y="-114.8" font-family="Times,serif" font-size="14.00">Server</text>
</g>
<g id="clust3" class="cluster">
<title>cluster_gc_1</title>
<polygon fill="none" stroke="black" points="519,-24 519,-99 614,-99 614,-24 519,-24"/>
<text text-anchor="middle" x="566.5" y="-83.8" font-family="Times,serif" font-size="14.00">Docker/Server</text>
</g>
<g id="clust4" class="cluster">
<title>cluster_gc_2</title>
<polygon fill="none" stroke="black" points="209,-24 209,-99 511,-99 511,-24 209,-24"/>
<text text-anchor="middle" x="360" y="-83.8" font-family="Times,serif" font-size="14.00">Docker/Mermaid</text>
</g>
<g id="clust5" class="cluster">
<title>cluster_c2</title>
<polygon fill="none" stroke="black" points="16,-24 16,-99 104,-99 104,-24 16,-24"/>
<text text-anchor="middle" x="60" y="-83.8" font-family="Times,serif" font-size="14.00">CLI</text>
</g>
<!-- Filebeat -->
<g id="node1" class="node">
<title>Filebeat</title>
<ellipse fill="none" stroke="black" cx="160" cy="-50" rx="39.79" ry="18"/>
<text text-anchor="middle" x="160" y="-46.3" font-family="Times,serif" font-size="14.00">Filebeat</text>
</g>
<!-- Java -->
<g id="node2" class="node">
<title>Java</title>
<ellipse fill="none" stroke="black" cx="566" cy="-50" rx="27" ry="18"/>
<text text-anchor="middle" x="566" y="-46.3" font-family="Times,serif" font-size="14.00">Java</text>
</g>
<!-- Node.js -->
<g id="node3" class="node">
<title>Node.js</title>
<ellipse fill="none" stroke="black" cx="464" cy="-50" rx="38.99" ry="18"/>
<text text-anchor="middle" x="464" y="-46.3" font-family="Times,serif" font-size="14.00">Node.js</text>
</g>
<!-- Puppeteer -->
<g id="node4" class="node">
<title>Puppeteer</title>
<ellipse fill="none" stroke="black" cx="361" cy="-50" rx="46.29" ry="18"/>
<text text-anchor="middle" x="361" y="-46.3" font-family="Times,serif" font-size="14.00">Puppeteer</text>
</g>
<!-- Chrome -->
<g id="node5" class="node">
<title>Chrome</title>
<ellipse fill="none" stroke="black" cx="257" cy="-50" rx="39.79" ry="18"/>
<text text-anchor="middle" x="257" y="-46.3" font-family="Times,serif" font-size="14.00">Chrome</text>
</g>
<!-- Golang -->
<g id="node6" class="node">
<title>Golang</title>
<ellipse fill="none" stroke="black" cx="60" cy="-50" rx="36.29" ry="18"/>
<text text-anchor="middle" x="60" y="-46.3" font-family="Times,serif" font-size="14.00">Golang</text>
</g>
</g>
</svg>
