<?xml version="1.0" encoding="UTF-8" standalone="no"?><svg xmlns="http://www.w3.org/2000/svg" xmlns:xlink="http://www.w3.org/1999/xlink" contentScriptType="application/ecmascript" contentStyleType="text/css" height="564px" preserveAspectRatio="none" style="width:479px;height:564px;background:#FFFFFF;" version="1.1" viewBox="0 0 479 564" width="479px" zoomAndPan="magnify"><defs><filter height="300%" id="f1cfhnctxkaa1v" width="300%" x="-1" y="-1"><feGaussianBlur result="blurOut" stdDeviation="2.0"/><feColorMatrix in="blurOut" result="blurOut2" type="matrix" values="0 0 0 0 0 0 0 0 0 0 0 0 0 0 0 0 0 0 .4 0"/><feOffset dx="4.0" dy="4.0" in="blurOut2" result="blurOut3"/><feBlend in="SourceGraphic" in2="blurOut3" mode="normal"/></filter></defs><g><!--MD5=[262aabfe314dcb38308ea550cce12173]
cluster Some Group--><polygon fill="#FFFFFF" filter="url(#f1cfhnctxkaa1v)" points="16,6,109,6,116,28.7999,440,28.7999,440,104,16,104,16,6" style="stroke:#000000;stroke-width:1.5;"/><line style="stroke:#000000;stroke-width:1.5;" x1="16" x2="116" y1="28.7999" y2="28.7999"/><text fill="#000000" font-family="sans-serif" font-size="14" font-weight="bold" lengthAdjust="spacing" textLength="87" x="20" y="21.9999">Some Group</text><!--MD5=[a809f7b457cbc4d947186a4bb863b06b]
cluster Other Groups--><polygon fill="#FFFFFF" filter="url(#f1cfhnctxkaa1v)" points="45,138,55,128,290,128,290,221,280,231,45,231,45,138" style="stroke:#000000;stroke-width:1.5;"/><line style="stroke:#000000;stroke-width:1.5;" x1="280" x2="290" y1="138" y2="128"/><line style="stroke:#000000;stroke-width:1.5;" x1="45" x2="280" y1="138" y2="138"/><line style="stroke:#000000;stroke-width:1.5;" x1="280" x2="280" y1="138" y2="231"/><text fill="#000000" font-family="sans-serif" font-size="14" font-weight="bold" lengthAdjust="spacing" textLength="92" x="117.5" y="154.9999">Other Groups</text><path d="M322.278,161.6117 C324.6977,154.8151 330.8278,153.8831 334.9086,159.9851 C337.5835,153.6879 341.7236,152.851 346.9983,156.9667 C350.7242,151.3573 354.7153,150.809 358.9804,156.3893 C361.5998,149.1346 368.3203,149.0392 372.4065,154.8862 C374.8283,148.5564 380.4508,149.0569 383.7107,154.0494 C387.6627,148.5375 393.0375,149.051 395.8932,155.1952 C399.6375,150.3084 403.7604,150.5002 407.4396,155.273 C412.5245,150.6712 418.158,151.5434 420.2473,158.5719 C424.4688,152.6325 429.9857,153.4031 433.0044,159.8143 C437.7257,154.165 441.4057,154.7989 445.1594,160.822 C452.4346,165.8129 453.848,171.2092 446.0206,177.0039 C454.4669,180.7984 455.5467,186.5348 448.1096,192.4741 C454.7212,197.6044 453.9307,204.7811 445.8793,207.7739 C453.9766,212.7988 451.9358,220.1072 444.8068,224.1339 C441.2218,230.6788 437.2813,230.4564 432.8688,224.9539 C429.399,231.0735 424.4836,231.668 420.6719,225.2876 C417.4487,232.0132 411.4091,232.4316 407.5252,225.945 C405.2752,232.2439 399.8208,232.9783 395.8962,227.6148 C392.5945,234.4197 387.326,234.2447 383.0941,228.5689 C378.784,233.0623 374.6128,232.882 371.8686,226.8921 C367.9665,233.8687 363.1621,233.0737 359.0411,227.1091 C353.9628,233.3772 350.3331,231.7731 346.6797,225.6837 C343.7176,230.6576 337.9766,231.4428 335.0375,225.6588 C331.4246,230.0538 326.1837,229.1667 323.8055,224.1806 C314.1882,220.9028 312.8252,215.1611 319.9292,207.9016 C311.3781,204.7128 310.9641,198.6686 316.3117,192.2644 C309.0742,185.6153 311.4488,180.3974 319.4652,176.8738 C313.0761,170.6536 313.7,165.0734 322.278,161.6117 " fill="#FFFFFF" filter="url(#f1cfhnctxkaa1v)" style="stroke:#000000;stroke-width:1.5;"/><!--MD5=[a8e31809c94bd3920922c17a126bb0b3]
cluster MySql--><path d="M294,265 C294,255 383,255 383,255 C383,255 472,255 472,265 L472,547 C472,557 383,557 383,557 C383,557 294,557 294,547 L294,265 " fill="#FFFFFF" filter="url(#f1cfhnctxkaa1v)" style="stroke:#000000;stroke-width:1.5;"/><path d="M294,265 C294,275 383,275 383,275 C383,275 472,275 472,265 " fill="none" style="stroke:#000000;stroke-width:1.5;"/><text fill="#000000" font-family="sans-serif" font-size="14" font-weight="bold" lengthAdjust="spacing" textLength="43" x="361.5" y="290.9999">MySql</text><!--MD5=[57a7dd60b0970f41fd8892a58576fbc8]
cluster This is my folder--><polygon fill="#FFFFFF" filter="url(#f1cfhnctxkaa1v)" points="318,313,438,313,445,335.7999,448,335.7999,448,411,318,411,318,313" style="stroke:#000000;stroke-width:1.5;"/><line style="stroke:#000000;stroke-width:1.5;" x1="318" x2="445" y1="335.7999" y2="335.7999"/><text fill="#000000" font-family="sans-serif" font-size="14" font-weight="bold" lengthAdjust="spacing" textLength="114" x="322" y="328.9999">This is my folder</text><!--MD5=[b098bf3b49ab5940c6091a421f0675e2]
cluster Foo--><rect fill="#FFFFFF" filter="url(#f1cfhnctxkaa1v)" height="98" style="stroke:#000000;stroke-width:1.5;" width="124" x="321" y="435"/><path d="M358,435 L358,444.7999 L348,454.7999 L321,454.7999 " fill="none" style="stroke:#000000;stroke-width:1.5;"/><text fill="#000000" font-family="sans-serif" font-size="14" font-weight="bold" lengthAdjust="spacing" textLength="27" x="324" y="449.9999">Foo</text><!--MD5=[96f7e1299d4a43069e6ed32352fcac20]
entity HTTP--><ellipse cx="218" cy="64.5" fill="#FEFECE" filter="url(#f1cfhnctxkaa1v)" rx="8" ry="8" style="stroke:#A80036;stroke-width:1.5;"/><text fill="#000000" font-family="sans-serif" font-size="14" lengthAdjust="spacing" textLength="37" x="199.5" y="95.4999">HTTP</text><!--MD5=[cbd7cda55f2530e2efe43ec72c097853]
entity First Component--><rect fill="#FEFECE" filter="url(#f1cfhnctxkaa1v)" height="46.7999" style="stroke:#A80036;stroke-width:1.5;" width="141" x="32.5" y="41"/><rect fill="#FEFECE" height="10" style="stroke:#A80036;stroke-width:1.5;" width="15" x="153.5" y="46"/><rect fill="#FEFECE" height="2" style="stroke:#A80036;stroke-width:1.5;" width="4" x="151.5" y="48"/><rect fill="#FEFECE" height="2" style="stroke:#A80036;stroke-width:1.5;" width="4" x="151.5" y="52"/><text fill="#000000" font-family="sans-serif" font-size="14" lengthAdjust="spacing" textLength="101" x="47.5" y="74.9999">First Component</text><!--MD5=[b9d11f23832c1491231c5b33e55ab8c6]
entity Another Component--><rect fill="#FEFECE" filter="url(#f1cfhnctxkaa1v)" height="46.7999" style="stroke:#A80036;stroke-width:1.5;" width="162" x="262" y="41"/><rect fill="#FEFECE" height="10" style="stroke:#A80036;stroke-width:1.5;" width="15" x="404" y="46"/><rect fill="#FEFECE" height="2" style="stroke:#A80036;stroke-width:1.5;" width="4" x="402" y="48"/><rect fill="#FEFECE" height="2" style="stroke:#A80036;stroke-width:1.5;" width="4" x="402" y="52"/><text fill="#000000" font-family="sans-serif" font-size="14" lengthAdjust="spacing" textLength="122" x="277" y="74.9999">Another Component</text><!--MD5=[76af18d92d7d7c0f7ebd8f4f605ac5aa]
entity FTP--><ellipse cx="70" cy="191.5" fill="#FEFECE" filter="url(#f1cfhnctxkaa1v)" rx="8" ry="8" style="stroke:#A80036;stroke-width:1.5;"/><text fill="#000000" font-family="sans-serif" font-size="14" lengthAdjust="spacing" textLength="26" x="57" y="222.4999">FTP</text><!--MD5=[0e2cc1aee2c7f52697e111b4fb84546c]
entity Second Component--><rect fill="#FEFECE" filter="url(#f1cfhnctxkaa1v)" height="46.7999" style="stroke:#A80036;stroke-width:1.5;" width="160" x="114" y="168"/><rect fill="#FEFECE" height="10" style="stroke:#A80036;stroke-width:1.5;" width="15" x="254" y="173"/><rect fill="#FEFECE" height="2" style="stroke:#A80036;stroke-width:1.5;" width="4" x="252" y="175"/><rect fill="#FEFECE" height="2" style="stroke:#A80036;stroke-width:1.5;" width="4" x="252" y="179"/><text fill="#000000" font-family="sans-serif" font-size="14" lengthAdjust="spacing" textLength="120" x="129" y="201.9999">Second Component</text><!--MD5=[243c1e580c31013c48b02624e18b25a7]
entity Example 1--><rect fill="#FEFECE" filter="url(#f1cfhnctxkaa1v)" height="46.7999" style="stroke:#A80036;stroke-width:1.5;" width="105" x="330.5" y="168"/><rect fill="#FEFECE" height="10" style="stroke:#A80036;stroke-width:1.5;" width="15" x="415.5" y="173"/><rect fill="#FEFECE" height="2" style="stroke:#A80036;stroke-width:1.5;" width="4" x="413.5" y="175"/><rect fill="#FEFECE" height="2" style="stroke:#A80036;stroke-width:1.5;" width="4" x="413.5" y="179"/><text fill="#000000" font-family="sans-serif" font-size="14" lengthAdjust="spacing" textLength="65" x="345.5" y="201.9999">Example 1</text><!--MD5=[3e0e08c92570480402984701ab5a6d2d]
entity Folder 3--><rect fill="#FEFECE" filter="url(#f1cfhnctxkaa1v)" height="46.7999" style="stroke:#A80036;stroke-width:1.5;" width="90" x="338" y="348"/><rect fill="#FEFECE" height="10" style="stroke:#A80036;stroke-width:1.5;" width="15" x="408" y="353"/><rect fill="#FEFECE" height="2" style="stroke:#A80036;stroke-width:1.5;" width="4" x="406" y="355"/><rect fill="#FEFECE" height="2" style="stroke:#A80036;stroke-width:1.5;" width="4" x="406" y="359"/><text fill="#000000" font-family="sans-serif" font-size="14" lengthAdjust="spacing" textLength="50" x="353" y="381.9999">Folder 3</text><!--MD5=[63877ed85df621d134a6c80fb52dad56]
entity Frame 4--><rect fill="#FEFECE" filter="url(#f1cfhnctxkaa1v)" height="46.7999" style="stroke:#A80036;stroke-width:1.5;" width="91" x="337.5" y="470"/><rect fill="#FEFECE" height="10" style="stroke:#A80036;stroke-width:1.5;" width="15" x="408.5" y="475"/><rect fill="#FEFECE" height="2" style="stroke:#A80036;stroke-width:1.5;" width="4" x="406.5" y="477"/><rect fill="#FEFECE" height="2" style="stroke:#A80036;stroke-width:1.5;" width="4" x="406.5" y="481"/><text fill="#000000" font-family="sans-serif" font-size="14" lengthAdjust="spacing" textLength="51" x="352.5" y="503.9999">Frame 4</text><!--MD5=[46d996859f59e5baf77956ce93023cee]
link HTTP to First Component--><path d="M208.97,64.5 C197.15,64.5 185.34,64.5 173.53,64.5 " fill="none" id="HTTP-First Component" style="stroke:#A80036;stroke-width:1.0;"/><!--MD5=[1966a42bb49d59057147dbda06282f4b]
link FTP to Second Component--><path d="M79.2,191.5 C90.71,191.5 102.22,191.5 113.73,191.5 " fill="none" id="FTP-Second Component" style="stroke:#A80036;stroke-width:1.0;"/><!--MD5=[d3aefbd8005e27b21e7ce98ddd948193]
link First Component to FTP--><path d="M97.02,88.14 C90.14,114.21 79.06,156.17 73.47,177.36 " fill="none" id="First Component-to-FTP" style="stroke:#A80036;stroke-width:1.0;"/><polygon fill="#A80036" points="72.17,182.27,78.3299,174.5852,73.4432,177.4348,70.5936,172.5481,72.17,182.27" style="stroke:#A80036;stroke-width:1.0;"/><!--MD5=[efc1ffe8b578a0fb156c7bce303319bb]
link Another Component to Example 1--><path d="M350.24,88.14 C356.94,109.07 366.92,140.23 374.1,162.68 " fill="none" id="Another Component-to-Example 1" style="stroke:#A80036;stroke-width:1.0;"/><polygon fill="#A80036" points="375.68,167.61,376.7435,157.8187,374.1546,162.8484,369.1249,160.2594,375.68,167.61" style="stroke:#A80036;stroke-width:1.0;"/><!--MD5=[7ec8393a78a133520e8846dd05a7857a]
link Example 1 to Folder 3--><path d="M383,215.04 C383,247.59 383,307.68 383,342.86 " fill="none" id="Example 1-to-Folder 3" style="stroke:#A80036;stroke-width:1.0;"/><polygon fill="#A80036" points="383,347.86,387,338.86,383,342.86,379,338.86,383,347.86" style="stroke:#A80036;stroke-width:1.0;"/><!--MD5=[b96c7096199393c1414a8b4e9ed2c30f]
link Folder 3 to Frame 4--><path d="M383,395.07 C383,414.72 383,443.3 383,464.42 " fill="none" id="Folder 3-to-Frame 4" style="stroke:#A80036;stroke-width:1.0;"/><polygon fill="#A80036" points="383,469.62,387,460.62,383,464.62,379,460.62,383,469.62" style="stroke:#A80036;stroke-width:1.0;"/><!--MD5=[935c53fea10e4c74bd8905bd6042b17e]
@startuml

package "Some Group" {
  HTTP - [First Component]
  [Another Component]
}

node "Other Groups" {
  FTP - [Second Component]
  [First Component] - -> FTP
}

cloud {
  [Example 1]
}


database "MySql" {
  folder "This is my folder" {
    [Folder 3]
  }
  frame "Foo" {
    [Frame 4]
  }
}


[Another Component] - -> [Example 1]
[Example 1] - -> [Folder 3]
[Folder 3] - -> [Frame 4]

@enduml

PlantUML version 1.2021.16(Wed Dec 08 17:25:22 GMT 2021)
(GPL source distribution)
Java Runtime: OpenJDK Runtime Environment
JVM: OpenJDK 64-Bit Server VM
Default Encoding: UTF-8
Language: en
Country: US
--></g></svg>