<svg xmlns="http://www.w3.org/2000/svg" xmlns:xlink="http://www.w3.org/1999/xlink" version="1.1" class="marks" width="841" height="648" viewBox="0 0 841 648"><g fill="none" stroke-miterlimit="10" transform="translate(33,11)"><g class="mark-group role-frame root" role="graphics-object" aria-roledescription="group mark container"><g transform="translate(0,0)"><path class="background" aria-hidden="true" d="M0,0h800v600h-800Z"/><g><g class="mark-group role-axis" role="graphics-symbol" aria-roledescription="axis" aria-label="Y-axis titled 'IMDB Rating' for a linear scale with values from 0 to 8"><g transform="translate(0.5,0.5)"><path class="background" aria-hidden="true" d="M0,0h0v0h0Z" pointer-events="none"/><g><g class="mark-rule role-axis-tick" pointer-events="none"><line transform="translate(0,600)" x2="-5" y2="0" stroke="#888" stroke-width="1" opacity="1"/><line transform="translate(0,529)" x2="-5" y2="0" stroke="#888" stroke-width="1" opacity="1"/><line transform="translate(0,457)" x2="-5" y2="0" stroke="#888" stroke-width="1" opacity="1"/><line transform="translate(0,386)" x2="-5" y2="0" stroke="#888" stroke-width="1" opacity="1"/><line transform="translate(0,314)" x2="-5" y2="0" stroke="#888" stroke-width="1" opacity="1"/><line transform="translate(0,243)" x2="-5" y2="0" stroke="#888" stroke-width="1" opacity="1"/><line transform="translate(0,171)" x2="-5" y2="0" stroke="#888" stroke-width="1" opacity="1"/><line transform="translate(0,100)" x2="-5" y2="0" stroke="#888" stroke-width="1" opacity="1"/><line transform="translate(0,29)" x2="-5" y2="0" stroke="#888" stroke-width="1" opacity="1"/></g><g class="mark-text role-axis-label" pointer-events="none"><text text-anchor="end" transform="translate(-7,603)" font-family="sans-serif" font-size="10px" fill="#000" opacity="1">0</text><text text-anchor="end" transform="translate(-7,531.5714285714286)" font-family="sans-serif" font-size="10px" fill="#000" opacity="1">1</text><text text-anchor="end" transform="translate(-7,460.1428571428571)" font-family="sans-serif" font-size="10px" fill="#000" opacity="1">2</text><text text-anchor="end" transform="translate(-7,388.71428571428567)" font-family="sans-serif" font-size="10px" fill="#000" opacity="1">3</text><text text-anchor="end" transform="translate(-7,317.2857142857143)" font-family="sans-serif" font-size="10px" fill="#000" opacity="1">4</text><text text-anchor="end" transform="translate(-7,245.85714285714286)" font-family="sans-serif" font-size="10px" fill="#000" opacity="1">5</text><text text-anchor="end" transform="translate(-7,174.42857142857142)" font-family="sans-serif" font-size="10px" fill="#000" opacity="1">6</text><text text-anchor="end" transform="translate(-7,103.00000000000004)" font-family="sans-serif" font-size="10px" fill="#000" opacity="1">7</text><text text-anchor="end" transform="translate(-7,31.571428571428605)" font-family="sans-serif" font-size="10px" fill="#000" opacity="1">8</text></g><g class="mark-rule role-axis-domain" pointer-events="none"><line transform="translate(0,600)" x2="0" y2="-600" stroke="#888" stroke-width="1" opacity="1"/></g><g class="mark-text role-axis-title" pointer-events="none"><text text-anchor="middle" transform="translate(-17,300) rotate(-90) translate(0,-2)" font-family="sans-serif" font-size="11px" font-weight="bold" fill="#000" opacity="1">IMDB Rating</text></g></g><path class="foreground" aria-hidden="true" d="" pointer-events="none" display="none"/></g></g><g class="mark-group role-axis" role="graphics-symbol" aria-roledescription="axis" aria-label="X-axis titled 'Rotten Tomatoes Rating' for a linear scale with values from 0 to 97"><g transform="translate(0.5,600.5)"><path class="background" aria-hidden="true" d="M0,0h0v0h0Z" pointer-events="none"/><g><g class="mark-rule role-axis-tick" pointer-events="none"><line transform="translate(0,0)" x2="0" y2="5" stroke="#888" stroke-width="1" opacity="1"/><line transform="translate(82,0)" x2="0" y2="5" stroke="#888" stroke-width="1" opacity="1"/><line transform="translate(165,0)" x2="0" y2="5" stroke="#888" stroke-width="1" opacity="1"/><line transform="translate(247,0)" x2="0" y2="5" stroke="#888" stroke-width="1" opacity="1"/><line transform="translate(330,0)" x2="0" y2="5" stroke="#888" stroke-width="1" opacity="1"/><line transform="translate(412,0)" x2="0" y2="5" stroke="#888" stroke-width="1" opacity="1"/><line transform="translate(495,0)" x2="0" y2="5" stroke="#888" stroke-width="1" opacity="1"/><line transform="translate(577,0)" x2="0" y2="5" stroke="#888" stroke-width="1" opacity="1"/><line transform="translate(660,0)" x2="0" y2="5" stroke="#888" stroke-width="1" opacity="1"/><line transform="translate(742,0)" x2="0" y2="5" stroke="#888" stroke-width="1" opacity="1"/></g><g class="mark-text role-axis-label" pointer-events="none"><text text-anchor="middle" transform="translate(0,15)" font-family="sans-serif" font-size="10px" fill="#000" opacity="1">0</text><text text-anchor="middle" transform="translate(82.4742268041237,15)" font-family="sans-serif" font-size="10px" fill="#000" opacity="1">10</text><text text-anchor="middle" transform="translate(164.9484536082474,15)" font-family="sans-serif" font-size="10px" fill="#000" opacity="1">20</text><text text-anchor="middle" transform="translate(247.42268041237114,15)" font-family="sans-serif" font-size="10px" fill="#000" opacity="1">30</text><text text-anchor="middle" transform="translate(329.8969072164948,15)" font-family="sans-serif" font-size="10px" fill="#000" opacity="1">40</text><text text-anchor="middle" transform="translate(412.3711340206185,15)" font-family="sans-serif" font-size="10px" fill="#000" opacity="1">50</text><text text-anchor="middle" transform="translate(494.8453608247423,15)" font-family="sans-serif" font-size="10px" fill="#000" opacity="1">60</text><text text-anchor="middle" transform="translate(577.319587628866,15)" font-family="sans-serif" font-size="10px" fill="#000" opacity="1">70</text><text text-anchor="middle" transform="translate(659.7938144329896,15)" font-family="sans-serif" font-size="10px" fill="#000" opacity="1">80</text><text text-anchor="middle" transform="translate(742.2680412371134,15)" font-family="sans-serif" font-size="10px" fill="#000" opacity="1">90</text></g><g class="mark-rule role-axis-domain" pointer-events="none"><line transform="translate(0,0)" x2="800" y2="0" stroke="#888" stroke-width="1" opacity="1"/></g><g class="mark-text role-axis-title" pointer-events="none"><text text-anchor="middle" transform="translate(400,30)" font-family="sans-serif" font-size="11px" font-weight="bold" fill="#000" opacity="1">Rotten Tomatoes Rating</text></g></g><path class="foreground" aria-hidden="true" d="" pointer-events="none" display="none"/></g></g><g class="mark-symbol role-mark points" role="graphics-symbol" aria-roledescription="symbol mark container"><path transform="translate(511.34020618556696,357.1428571428572)" d="M2.5,0A2.5,2.5,0,1,1,-2.5,0A2.5,2.5,0,1,1,2.5,0" fill="#4c78a8" fill-opacity="0.5"/><path transform="translate(206.18556701030926,185.71428571428572)" d="M2.5,0A2.5,2.5,0,1,1,-2.5,0A2.5,2.5,0,1,1,2.5,0" fill="#4c78a8" fill-opacity="0.5"/><path transform="translate(709.2783505154639,100.00000000000004)" d="M2.5,0A2.5,2.5,0,1,1,-2.5,0A2.5,2.5,0,1,1,2.5,0" fill="#4c78a8" fill-opacity="0.5"/><path transform="translate(668.0412371134021,100.00000000000004)" d="M2.5,0A2.5,2.5,0,1,1,-2.5,0A2.5,2.5,0,1,1,2.5,0" fill="#4c78a8" fill-opacity="0.5"/><path transform="translate(692.7835051546392,64.28571428571432)" d="M2.5,0A2.5,2.5,0,1,1,-2.5,0A2.5,2.5,0,1,1,2.5,0" fill="#4c78a8" fill-opacity="0.5"/><path transform="translate(800,0)" d="M2.5,0A2.5,2.5,0,1,1,-2.5,0A2.5,2.5,0,1,1,2.5,0" fill="#4c78a8" fill-opacity="0.5"/><path transform="translate(717.5257731958764,114.28571428571435)" d="M2.5,0A2.5,2.5,0,1,1,-2.5,0A2.5,2.5,0,1,1,2.5,0" fill="#4c78a8" fill-opacity="0.5"/><path transform="translate(800,14.285714285714368)" d="M2.5,0A2.5,2.5,0,1,1,-2.5,0A2.5,2.5,0,1,1,2.5,0" fill="#4c78a8" fill-opacity="0.5"/><path transform="translate(189.69072164948452,371.42857142857144)" d="M2.5,0A2.5,2.5,0,1,1,-2.5,0A2.5,2.5,0,1,1,2.5,0" fill="#4c78a8" fill-opacity="0.5"/><path transform="translate(313.4020618556701,242.85714285714286)" d="M2.5,0A2.5,2.5,0,1,1,-2.5,0A2.5,2.5,0,1,1,2.5,0" fill="#4c78a8" fill-opacity="0.5"/><path transform="translate(329.8969072164948,257.14285714285717)" d="M2.5,0A2.5,2.5,0,1,1,-2.5,0A2.5,2.5,0,1,1,2.5,0" fill="#4c78a8" fill-opacity="0.5"/><path transform="translate(684.5360824742268,78.57142857142863)" d="M2.5,0A2.5,2.5,0,1,1,-2.5,0A2.5,2.5,0,1,1,2.5,0" fill="#4c78a8" fill-opacity="0.5"/><path transform="translate(379.38144329896903,164.2857142857143)" d="M2.5,0A2.5,2.5,0,1,1,-2.5,0A2.5,2.5,0,1,1,2.5,0" fill="#4c78a8" fill-opacity="0.5"/><path transform="translate(82.4742268041237,242.85714285714286)" d="M2.5,0A2.5,2.5,0,1,1,-2.5,0A2.5,2.5,0,1,1,2.5,0" fill="#4c78a8" fill-opacity="0.5"/></g><g class="mark-line role-mark trend" role="graphics-symbol" aria-roledescription="line mark container"><path d="M82.4742268041237,240.65237760505812L89.64948453608248,242.89445918144673L96.82474226804125,245.04443211630124L104,247.10229640962163L111.17525773195878,249.06805206140766L118.35051546391753,250.94169907165957L125.5257731958763,252.72323744037726L132.70103092783506,254.41266716756076L139.87628865979383,256.0099882532101L147.05154639175254,257.5152006973252L154.22680412371133,258.92830449990606L161.4020618556701,260.2492996609529L168.57731958762884,261.4781861804654L175.75257731958763,262.6149640584438L182.9278350515464,263.65963329488795L190.10309278350516,264.6121938897979L197.27835051546393,265.47264584317355L204.4536082474227,266.24098915501514L211.62886597938146,266.9172238253225L218.80412371134022,267.50134985409574L225.97938144329896,267.9933672413347L233.15463917525773,268.3932759870395L240.32989690721652,268.70107609121004L247.50515463917523,268.9167675538464L251.0927835051546,268.9900725445893L254.68041237113403,269.0403503749486L261.8556701030928,269.07182455451664L265.44329896907215,269.0530209037253L269.0309278350515,269.01119009255046L276.20618556701027,268.85844698905L279.7938144329897,268.74753469672453L283.3814432989691,268.61359524401547L290.55670103092785,268.27663485744677L297.7319587628866,267.8475658293437L304.90721649484533,267.32638815970654L312.08247422680415,266.7131018485352L319.25773195876286,266.00770689582964L326.4329896907216,265.21020330158984L333.60824742268045,264.32059106581596L340.7835051546392,263.3388701885079L347.9587628865979,262.2650406696655L355.1340206185567,261.0991025092889L362.3092783505155,259.8410557073782L369.4845360824742,258.4909002639333L376.65979381443304,257.04863617895415L383.8350515463918,255.51426345244087L391.0103092783506,253.88778208439336L398.1855670103093,252.16919207481172L405.36082474226805,250.35849342369576L412.5360824742268,248.4556861310457L419.7113402061856,246.4607701968614L426.88659793814435,244.37374562114292L434.061855670103,242.19461240389026L441.2371134020619,239.92337054510338L448.41237113402065,237.5600200447823L455.5876288659794,235.1045609029271L462.7628865979381,232.55699311953762L469.938144329897,229.91731669461396L484.28865979381453,224.3616379201641L498.639175257732,218.43752457957743L512.9896907216495,212.14497667285403L527.340206185567,205.48399419999376L541.6907216494847,198.45457716099673L556.0412371134021,191.05672555586298L570.3917525773195,183.29043938459245L584.7422680412371,175.1557186471851L599.0927835051547,166.65256334364105L613.4432989690722,157.7809734739602L627.7938144329897,148.54094903814243L656.4948453608248,128.95559646809667L685.1958762886599,107.89650563350388L713.8969072164949,85.36367653436395L742.5979381443299,61.357109170676914L771.2989690721649,35.87680354244287L800,8.922759649661472" stroke="firebrick" stroke-width="2"/></g><g class="mark-text role-mark" role="graphics-object" aria-roledescription="text mark container"><text text-anchor="middle" transform="translate(511.340206185567,351.6428571428572)" font-family="sans-serif" font-size="8px" fill="#000" opacity="1">Slam</text><text text-anchor="middle" transform="translate(206.18556701030926,180.21428571428572)" font-family="sans-serif" font-size="8px" fill="#000" opacity="1">Pirates</text><text text-anchor="start" transform="translate(712.7783505154639,102.00000000000004)" font-family="sans-serif" font-size="8px" fill="#000" opacity="1">Duel in the Sun</text><text text-anchor="middle" transform="translate(668.0412371134021,94.50000000000004)" font-family="sans-serif" font-size="8px" fill="#000" opacity="1">Tom Jones</text><text text-anchor="middle" transform="translate(692.7835051546392,58.78571428571432)" font-family="sans-serif" font-size="8px" fill="#000" opacity="1">Oliver!</text><text text-anchor="start" transform="translate(0,0)" font-family="sans-serif" font-size="8px" fill="#000" opacity="0">To Kill A Mockingbird</text><text text-anchor="middle" transform="translate(717.5257731958764,123.78571428571435)" font-family="sans-serif" font-size="8px" fill="#000" opacity="1">Hollywood Shuffle</text><text text-anchor="start" transform="translate(0,0)" font-family="sans-serif" font-size="8px" fill="#000" opacity="0">The Best Years of Our Lives</text><text text-anchor="middle" transform="translate(189.69072164948452,365.92857142857144)" font-family="sans-serif" font-size="8px" fill="#000" opacity="1">My Big Fat Independent Movie</text><text text-anchor="middle" transform="translate(313.4020618556701,237.35714285714286)" font-family="sans-serif" font-size="8px" fill="#000" opacity="1">Battle for the Planet of the Apes</text><text text-anchor="middle" transform="translate(329.8969072164948,251.64285714285717)" font-family="sans-serif" font-size="8px" fill="#000" opacity="1">Bogus</text><text text-anchor="middle" transform="translate(684.5360824742268,73.07142857142863)" font-family="sans-serif" font-size="8px" fill="#000" opacity="1">Beverly Hills Cop</text><text text-anchor="middle" transform="translate(379.38144329896903,158.7857142857143)" font-family="sans-serif" font-size="8px" fill="#000" opacity="1">Beverly Hills Cop II</text><text text-anchor="end" transform="translate(78.9742268041237,244.85714285714286)" font-family="sans-serif" font-size="8px" fill="#000" opacity="1">Beverly Hills Cop III</text></g></g><path class="foreground" aria-hidden="true" d="" display="none"/></g></g></g></svg>