<?xml version="1.0" encoding="UTF-8" standalone="no"?><svg xmlns="http://www.w3.org/2000/svg" xmlns:xlink="http://www.w3.org/1999/xlink" contentScriptType="application/ecmascript" contentStyleType="text/css" height="197px" preserveAspectRatio="none" style="width:620px;height:197px;background:#FFFFFF;" version="1.1" viewBox="0 0 620 197" width="620px" zoomAndPan="magnify"><defs/><g><rect fill="#FFFFFF" height="166.3994" rx="5" ry="5" style="stroke:#FFFFFF;stroke-width:1.5;" width="162" x="10" y="18.5"/><text fill="#000000" font-family="sans-serif" font-size="14" font-weight="bold" lengthAdjust="spacing" textLength="67" x="15" y="34.4999">firstName</text><text fill="#000000" font-family="sans-serif" font-size="14" lengthAdjust="spacing" textLength="30" x="131" y="34.4999">John</text><line style="stroke:#000000;stroke-width:1.0;" x1="126" x2="126" y1="18.5" y2="39.2999"/><line style="stroke:#000000;stroke-width:1.0;" x1="10" x2="172" y1="39.2999" y2="39.2999"/><text fill="#000000" font-family="sans-serif" font-size="14" font-weight="bold" lengthAdjust="spacing" textLength="65" x="15" y="55.2999">lastName</text><text fill="#000000" font-family="sans-serif" font-size="14" lengthAdjust="spacing" textLength="35" x="131" y="55.2999">Smith</text><line style="stroke:#000000;stroke-width:1.0;" x1="126" x2="126" y1="39.2999" y2="60.0999"/><line style="stroke:#000000;stroke-width:1.0;" x1="10" x2="172" y1="60.0999" y2="60.0999"/><text fill="#000000" font-family="sans-serif" font-size="14" font-weight="bold" lengthAdjust="spacing" textLength="46" x="15" y="76.0998">isAlive</text><text fill="#000000" font-family="sans-serif" font-size="14" lengthAdjust="spacing" textLength="36" x="131" y="76.0998">☑ true</text><line style="stroke:#000000;stroke-width:1.0;" x1="126" x2="126" y1="60.0999" y2="80.8998"/><line style="stroke:#000000;stroke-width:1.0;" x1="10" x2="172" y1="80.8998" y2="80.8998"/><text fill="#000000" font-family="sans-serif" font-size="14" font-weight="bold" lengthAdjust="spacing" textLength="25" x="15" y="96.8997">age</text><text fill="#000000" font-family="sans-serif" font-size="14" lengthAdjust="spacing" textLength="16" x="131" y="96.8997">27</text><line style="stroke:#000000;stroke-width:1.0;" x1="126" x2="126" y1="80.8998" y2="101.6997"/><line style="stroke:#000000;stroke-width:1.0;" x1="10" x2="172" y1="101.6997" y2="101.6997"/><text fill="#000000" font-family="sans-serif" font-size="14" font-weight="bold" lengthAdjust="spacing" textLength="55" x="15" y="117.6996">address</text><text fill="#000000" font-family="sans-serif" font-size="14" lengthAdjust="spacing" textLength="0" x="143" y="117.6996"/><line style="stroke:#000000;stroke-width:1.0;" x1="126" x2="126" y1="101.6997" y2="122.4996"/><line style="stroke:#000000;stroke-width:1.0;" x1="10" x2="172" y1="122.4996" y2="122.4996"/><text fill="#000000" font-family="sans-serif" font-size="14" font-weight="bold" lengthAdjust="spacing" textLength="106" x="15" y="138.4996">phoneNumbers</text><text fill="#000000" font-family="sans-serif" font-size="14" lengthAdjust="spacing" textLength="0" x="143" y="138.4996"/><line style="stroke:#000000;stroke-width:1.0;" x1="126" x2="126" y1="122.4996" y2="143.2996"/><line style="stroke:#000000;stroke-width:1.0;" x1="10" x2="172" y1="143.2996" y2="143.2996"/><text fill="#000000" font-family="sans-serif" font-size="14" font-weight="bold" lengthAdjust="spacing" textLength="55" x="15" y="159.2995">children</text><text fill="#000000" font-family="sans-serif" font-size="14" lengthAdjust="spacing" textLength="0" x="143" y="159.2995"/><line style="stroke:#000000;stroke-width:1.0;" x1="126" x2="126" y1="143.2996" y2="164.0995"/><line style="stroke:#000000;stroke-width:1.0;" x1="10" x2="172" y1="164.0995" y2="164.0995"/><text fill="#000000" font-family="sans-serif" font-size="14" font-weight="bold" lengthAdjust="spacing" textLength="51" x="15" y="180.0994">spouse</text><text fill="#000000" font-family="sans-serif" font-size="14" lengthAdjust="spacing" textLength="11" x="131" y="180.0994">␀</text><line style="stroke:#000000;stroke-width:1.0;" x1="126" x2="126" y1="164.0995" y2="184.8994"/><rect fill="none" height="166.3994" rx="5" ry="5" style="stroke:#000000;stroke-width:1.5;" width="162" x="10" y="18.5"/><rect fill="#FFFFFF" height="83.1997" rx="5" ry="5" style="stroke:#FFFFFF;stroke-width:1.5;" width="200" x="209" y="10"/><text fill="#000000" font-family="sans-serif" font-size="14" font-weight="bold" lengthAdjust="spacing" textLength="96" x="214" y="25.9999">streetAddress</text><text fill="#000000" font-family="sans-serif" font-size="14" lengthAdjust="spacing" textLength="84" x="320" y="25.9999">21 2nd Street</text><line style="stroke:#000000;stroke-width:1.0;" x1="315" x2="315" y1="10" y2="30.7999"/><line style="stroke:#000000;stroke-width:1.0;" x1="209" x2="409" y1="30.7999" y2="30.7999"/><text fill="#000000" font-family="sans-serif" font-size="14" font-weight="bold" lengthAdjust="spacing" textLength="25" x="214" y="46.7999">city</text><text fill="#000000" font-family="sans-serif" font-size="14" lengthAdjust="spacing" textLength="59" x="320" y="46.7999">New York</text><line style="stroke:#000000;stroke-width:1.0;" x1="315" x2="315" y1="30.7999" y2="51.5999"/><line style="stroke:#000000;stroke-width:1.0;" x1="209" x2="409" y1="51.5999" y2="51.5999"/><text fill="#000000" font-family="sans-serif" font-size="14" font-weight="bold" lengthAdjust="spacing" textLength="34" x="214" y="67.5998">state</text><text fill="#000000" font-family="sans-serif" font-size="14" lengthAdjust="spacing" textLength="19" x="320" y="67.5998">NY</text><line style="stroke:#000000;stroke-width:1.0;" x1="315" x2="315" y1="51.5999" y2="72.3998"/><line style="stroke:#000000;stroke-width:1.0;" x1="209" x2="409" y1="72.3998" y2="72.3998"/><text fill="#000000" font-family="sans-serif" font-size="14" font-weight="bold" lengthAdjust="spacing" textLength="79" x="214" y="88.3997">postalCode</text><text fill="#000000" font-family="sans-serif" font-size="14" lengthAdjust="spacing" textLength="77" x="320" y="88.3997">10021-3100</text><line style="stroke:#000000;stroke-width:1.0;" x1="315" x2="315" y1="72.3998" y2="93.1997"/><rect fill="none" height="83.1997" rx="5" ry="5" style="stroke:#000000;stroke-width:1.5;" width="200" x="209" y="10"/><rect fill="#FFFFFF" height="41.5999" rx="5" ry="5" style="stroke:#FFFFFF;stroke-width:1.5;" width="22" x="297" y="111.5"/><text fill="#000000" font-family="sans-serif" font-size="14" lengthAdjust="spacing" textLength="0" x="314" y="127.4999"/><line style="stroke:#000000;stroke-width:1.0;" x1="297" x2="319" y1="132.2999" y2="132.2999"/><text fill="#000000" font-family="sans-serif" font-size="14" lengthAdjust="spacing" textLength="0" x="314" y="148.2999"/><rect fill="none" height="41.5999" rx="5" ry="5" style="stroke:#000000;stroke-width:1.5;" width="22" x="297" y="111.5"/><rect fill="#FFFFFF" height="41.5999" rx="5" ry="5" style="stroke:#FFFFFF;stroke-width:1.5;" width="162" x="446" y="81.5"/><text fill="#000000" font-family="sans-serif" font-size="14" font-weight="bold" lengthAdjust="spacing" textLength="30" x="451" y="97.4999">type</text><text fill="#000000" font-family="sans-serif" font-size="14" lengthAdjust="spacing" textLength="33" x="514" y="97.4999">home</text><line style="stroke:#000000;stroke-width:1.0;" x1="509" x2="509" y1="81.5" y2="102.2999"/><line style="stroke:#000000;stroke-width:1.0;" x1="446" x2="608" y1="102.2999" y2="102.2999"/><text fill="#000000" font-family="sans-serif" font-size="14" font-weight="bold" lengthAdjust="spacing" textLength="53" x="451" y="118.2999">number</text><text fill="#000000" font-family="sans-serif" font-size="14" lengthAdjust="spacing" textLength="89" x="514" y="118.2999">212 555-1234</text><line style="stroke:#000000;stroke-width:1.0;" x1="509" x2="509" y1="102.2999" y2="123.0999"/><rect fill="none" height="41.5999" rx="5" ry="5" style="stroke:#000000;stroke-width:1.5;" width="162" x="446" y="81.5"/><rect fill="#FFFFFF" height="41.5999" rx="5" ry="5" style="stroke:#FFFFFF;stroke-width:1.5;" width="162" x="446" y="141.5"/><text fill="#000000" font-family="sans-serif" font-size="14" font-weight="bold" lengthAdjust="spacing" textLength="30" x="451" y="157.4999">type</text><text fill="#000000" font-family="sans-serif" font-size="14" lengthAdjust="spacing" textLength="32" x="514" y="157.4999">office</text><line style="stroke:#000000;stroke-width:1.0;" x1="509" x2="509" y1="141.5" y2="162.2999"/><line style="stroke:#000000;stroke-width:1.0;" x1="446" x2="608" y1="162.2999" y2="162.2999"/><text fill="#000000" font-family="sans-serif" font-size="14" font-weight="bold" lengthAdjust="spacing" textLength="53" x="451" y="178.2999">number</text><text fill="#000000" font-family="sans-serif" font-size="14" lengthAdjust="spacing" textLength="89" x="514" y="178.2999">646 555-4567</text><line style="stroke:#000000;stroke-width:1.0;" x1="509" x2="509" y1="162.2999" y2="183.0999"/><rect fill="none" height="41.5999" rx="5" ry="5" style="stroke:#000000;stroke-width:1.5;" width="162" x="446" y="141.5"/><rect fill="#FFFFFF" height="15" rx="5" ry="5" style="stroke:#FFFFFF;stroke-width:1.5;" width="30" x="297" y="171.5"/><rect fill="none" height="15" rx="5" ry="5" style="stroke:#000000;stroke-width:1.5;" width="30" x="297" y="171.5"/><path d="M160,111.5 L173,111.5 C183.8741,111.5 202.3413,104.9578 222.2014,96.1939 " fill="none" style="stroke:#000000;stroke-width:1.0;stroke-dasharray:3.0,3.0;"/><path d="M223.4755,99.023 L224.3232,95.2383 L220.9272,93.3648 L229.274,93.0084 L223.4755,99.023 " fill="#000000" style="stroke:#000000;stroke-width:1.0;"/><ellipse cx="160" cy="111.5" fill="#000000" rx="3" ry="3" style="stroke:#000000;stroke-width:1.0;"/><path d="M309.5,121.5 L322.5,121.5 C360.6891,121.5 402.7268,118.1582 438.6682,114.2775 " fill="none" style="stroke:#000000;stroke-width:1.0;stroke-dasharray:3.0,3.0;"/><path d="M439.0023,117.3069 L440.9402,114.027 L438.3341,111.2482 L446.2416,113.4423 L439.0023,117.3069 " fill="#000000" style="stroke:#000000;stroke-width:1.0;"/><ellipse cx="309.5" cy="121.5" fill="#000000" rx="3" ry="3" style="stroke:#000000;stroke-width:1.0;"/><path d="M309.5,143.5 L322.5,143.5 C360.6891,143.5 402.7268,146.8418 438.6682,150.7225 " fill="none" style="stroke:#000000;stroke-width:1.0;stroke-dasharray:3.0,3.0;"/><path d="M438.3341,153.7518 L440.9402,150.973 L439.0023,147.6931 L446.2416,151.5577 L438.3341,153.7518 " fill="#000000" style="stroke:#000000;stroke-width:1.0;"/><ellipse cx="309.5" cy="143.5" fill="#000000" rx="3" ry="3" style="stroke:#000000;stroke-width:1.0;"/><path d="M160,132.5 L173,132.5 C214.6049,132.5 263.3956,132.5 289.5861,132.5 " fill="none" style="stroke:#000000;stroke-width:1.0;stroke-dasharray:3.0,3.0;"/><path d="M289.5861,135.5686 L291.8876,132.5 L289.5861,129.4314 L297.2576,132.5 L289.5861,135.5686 " fill="#000000" style="stroke:#000000;stroke-width:1.0;"/><ellipse cx="160" cy="132.5" fill="#000000" rx="3" ry="3" style="stroke:#000000;stroke-width:1.0;"/><path d="M160,153.5 L173,153.5 C189.4924,153.5 192.86,159.1088 209,162.5 C237.0365,168.3908 269.8405,173.6904 289.8902,176.7518 " fill="none" style="stroke:#000000;stroke-width:1.0;stroke-dasharray:3.0,3.0;"/><path d="M289.4368,179.7578 L292.1447,177.0918 L290.3436,173.7457 L297.4053,177.8853 L289.4368,179.7578 " fill="#000000" style="stroke:#000000;stroke-width:1.0;"/><ellipse cx="160" cy="153.5" fill="#000000" rx="3" ry="3" style="stroke:#000000;stroke-width:1.0;"/><!--MD5=[0e74d7c2379c7e39baa60dd8d2bf0ba9]
@startjson
{
  "firstName": "John",
  "lastName": "Smith",
  "isAlive": true,
  "age": 27,
  "address": {
    "streetAddress": "21 2nd Street",
    "city": "New York",
    "state": "NY",
    "postalCode": "10021-3100"
  },
  "phoneNumbers": [
    {
      "type": "home",
      "number": "212 555-1234"
    },
    {
      "type": "office",
      "number": "646 555-4567"
    }
  ],
  "children": [],
  "spouse": null
}
@endjson

PlantUML version 1.2021.16(Wed Dec 08 17:25:22 GMT 2021)
(GPL source distribution)
Java Runtime: OpenJDK Runtime Environment
JVM: OpenJDK 64-Bit Server VM
Default Encoding: UTF-8
Language: en
Country: US
--></g></svg>