<svg xmlns="http://www.w3.org/2000/svg" xmlns:xlink="http://www.w3.org/1999/xlink" version="1.1" class="marks" width="538" height="232" viewBox="0 0 538 232"><g fill="none" stroke-miterlimit="10" transform="translate(30,10)"><g class="mark-group role-frame root" role="graphics-object" aria-roledescription="group mark container"><g transform="translate(0,0)"><path class="background" aria-hidden="true" d="M0,0h500v200h-500Z"/><g><g class="mark-group role-scope" role="graphics-object" aria-roledescription="group mark container"><g transform="translate(0,0)"><path class="background" aria-hidden="true" d="M0,0h0v0h0Z"/><g><g class="mark-area role-mark" role="graphics-symbol" aria-roledescription="area mark container"><path d="M0,200C18.51851851851852,200,37.03703703703704,200,55.55555555555556,200C74.07407407407408,200,92.5925925925926,200,111.11111111111111,200C129.62962962962965,200,148.14814814814815,200,166.66666666666669,200C185.1851851851852,200,203.70370370370372,200,222.22222222222223,200C240.74074074074073,200,259.25925925925924,200,277.77777777777777,200C296.2962962962963,200,314.81481481481484,200,333.33333333333337,200C351.8518518518519,200,370.3703703703704,200,388.8888888888889,200C407.40740740740745,200,425.9259259259259,200,444.44444444444446,200C462.962962962963,200,481.48148148148147,200,500,200L500,138.75C481.48148148148147,126.87499999999999,462.962962962963,114.99999999999999,444.44444444444446,114.99999999999999C425.9259259259259,114.99999999999999,407.40740740740745,178.75,388.8888888888889,178.75C370.3703703703704,178.75,351.8518518518519,91.25000000000001,333.33333333333337,91.25000000000001C314.81481481481484,91.25000000000001,296.2962962962963,170,277.77777777777777,170C259.25925925925924,170,240.74074074074073,135,222.22222222222223,135C203.70370370370372,135,185.1851851851852,176.25,166.66666666666669,176.25C148.14814814814815,176.25,129.62962962962965,98.75,111.11111111111111,98.75C92.5925925925926,98.75,74.07407407407408,135.20833333333334,55.55555555555556,146.25C37.03703703703704,157.29166666666666,18.51851851851852,161.14583333333334,0,165Z" fill="#4c78a8" fill-opacity="1"/></g></g><path class="foreground" aria-hidden="true" d="" display="none"/></g><g transform="translate(0,0)"><path class="background" aria-hidden="true" d="M0,0h0v0h0Z"/><g><g class="mark-area role-mark" role="graphics-symbol" aria-roledescription="area mark container"><path d="M0,165C18.51851851851852,161.14583333333334,37.03703703703704,157.29166666666666,55.55555555555556,146.25C74.07407407407408,135.20833333333334,92.5925925925926,98.75,111.11111111111111,98.75C129.62962962962965,98.75,148.14814814814815,176.25,166.66666666666669,176.25C185.1851851851852,176.25,203.70370370370372,135,222.22222222222223,135C240.74074074074073,135,259.25925925925924,170,277.77777777777777,170C296.2962962962963,170,314.81481481481484,91.25000000000001,333.33333333333337,91.25000000000001C351.8518518518519,91.25000000000001,370.3703703703704,178.75,388.8888888888889,178.75C407.40740740740745,178.75,425.9259259259259,114.99999999999999,444.44444444444446,114.99999999999999C462.962962962963,114.99999999999999,481.48148148148147,126.87499999999999,500,138.75L500,120C481.48148148148147,107.5,462.962962962963,95,444.44444444444446,95C425.9259259259259,95,407.40740740740745,145,388.8888888888889,145C370.3703703703704,145,351.8518518518519,8.749999999999986,333.33333333333337,8.749999999999986C314.81481481481484,8.749999999999986,296.2962962962963,108.74999999999999,277.77777777777777,108.74999999999999C259.25925925925924,108.74999999999999,240.74074074074073,80,222.22222222222223,75C203.70370370370372,70,185.1851851851852,72.5,166.66666666666669,67.5C148.14814814814815,62.5,129.62962962962965,32.5,111.11111111111111,32.5C92.5925925925926,32.5,74.07407407407408,32.5,55.55555555555556,32.5C37.03703703703704,32.5,18.51851851851852,64.375,0,96.24999999999999Z" fill="#f58518" fill-opacity="1"/></g></g><path class="foreground" aria-hidden="true" d="" display="none"/></g></g><g class="mark-group role-axis" role="graphics-symbol" aria-roledescription="axis" aria-label="X-axis for a discrete scale with 10 values: 0, 1, 2, 3, 4, ending with 9"><g transform="translate(0.5,200.5)"><path class="background" aria-hidden="true" d="M0,0h0v0h0Z" pointer-events="none"/><g><g class="mark-rule role-axis-tick" pointer-events="none"><line transform="translate(0,0)" x2="0" y2="5" stroke="#888" stroke-width="1" opacity="1"/><line transform="translate(56,0)" x2="0" y2="5" stroke="#888" stroke-width="1" opacity="1"/><line transform="translate(111,0)" x2="0" y2="5" stroke="#888" stroke-width="1" opacity="1"/><line transform="translate(167,0)" x2="0" y2="5" stroke="#888" stroke-width="1" opacity="1"/><line transform="translate(222,0)" x2="0" y2="5" stroke="#888" stroke-width="1" opacity="1"/><line transform="translate(278,0)" x2="0" y2="5" stroke="#888" stroke-width="1" opacity="1"/><line transform="translate(333,0)" x2="0" y2="5" stroke="#888" stroke-width="1" opacity="1"/><line transform="translate(389,0)" x2="0" y2="5" stroke="#888" stroke-width="1" opacity="1"/><line transform="translate(444,0)" x2="0" y2="5" stroke="#888" stroke-width="1" opacity="1"/><line transform="translate(500,0)" x2="0" y2="5" stroke="#888" stroke-width="1" opacity="1"/></g><g class="mark-text role-axis-label" pointer-events="none"><text text-anchor="middle" transform="translate(0,15)" font-family="sans-serif" font-size="10px" fill="#000" opacity="1">0</text><text text-anchor="middle" transform="translate(55.55555555555556,15)" font-family="sans-serif" font-size="10px" fill="#000" opacity="1">1</text><text text-anchor="middle" transform="translate(111.11111111111111,15)" font-family="sans-serif" font-size="10px" fill="#000" opacity="1">2</text><text text-anchor="middle" transform="translate(166.66666666666669,15)" font-family="sans-serif" font-size="10px" fill="#000" opacity="1">3</text><text text-anchor="middle" transform="translate(222.22222222222223,15)" font-family="sans-serif" font-size="10px" fill="#000" opacity="1">4</text><text text-anchor="middle" transform="translate(277.77777777777777,15)" font-family="sans-serif" font-size="10px" fill="#000" opacity="1">5</text><text text-anchor="middle" transform="translate(333.33333333333337,15)" font-family="sans-serif" font-size="10px" fill="#000" opacity="1">6</text><text text-anchor="middle" transform="translate(388.8888888888889,15)" font-family="sans-serif" font-size="10px" fill="#000" opacity="1">7</text><text text-anchor="middle" transform="translate(444.44444444444446,15)" font-family="sans-serif" font-size="10px" fill="#000" opacity="1">8</text><text text-anchor="middle" transform="translate(500,15)" font-family="sans-serif" font-size="10px" fill="#000" opacity="1">9</text></g><g class="mark-rule role-axis-domain" pointer-events="none"><line transform="translate(0,0)" x2="500" y2="0" stroke="#888" stroke-width="1" opacity="1"/></g></g><path class="foreground" aria-hidden="true" d="" pointer-events="none" display="none"/></g></g><g class="mark-group role-axis" role="graphics-symbol" aria-roledescription="axis" aria-label="Y-axis for a linear scale with values from 0 to 160"><g transform="translate(0.5,0.5)"><path class="background" aria-hidden="true" d="M0,0h0v0h0Z" pointer-events="none"/><g><g class="mark-rule role-axis-tick" pointer-events="none"><line transform="translate(0,200)" x2="-5" y2="0" stroke="#888" stroke-width="1" opacity="1"/><line transform="translate(0,175)" x2="-5" y2="0" stroke="#888" stroke-width="1" opacity="1"/><line transform="translate(0,150)" x2="-5" y2="0" stroke="#888" stroke-width="1" opacity="1"/><line transform="translate(0,125)" x2="-5" y2="0" stroke="#888" stroke-width="1" opacity="1"/><line transform="translate(0,100)" x2="-5" y2="0" stroke="#888" stroke-width="1" opacity="1"/><line transform="translate(0,75)" x2="-5" y2="0" stroke="#888" stroke-width="1" opacity="1"/><line transform="translate(0,50)" x2="-5" y2="0" stroke="#888" stroke-width="1" opacity="1"/><line transform="translate(0,25)" x2="-5" y2="0" stroke="#888" stroke-width="1" opacity="1"/><line transform="translate(0,0)" x2="-5" y2="0" stroke="#888" stroke-width="1" opacity="1"/></g><g class="mark-text role-axis-label" pointer-events="none"><text text-anchor="end" transform="translate(-7,203)" font-family="sans-serif" font-size="10px" fill="#000" opacity="1">0</text><text text-anchor="end" transform="translate(-7,178)" font-family="sans-serif" font-size="10px" fill="#000" opacity="1">20</text><text text-anchor="end" transform="translate(-7,153)" font-family="sans-serif" font-size="10px" fill="#000" opacity="1">40</text><text text-anchor="end" transform="translate(-7,128)" font-family="sans-serif" font-size="10px" fill="#000" opacity="1">60</text><text text-anchor="end" transform="translate(-7,103)" font-family="sans-serif" font-size="10px" fill="#000" opacity="1">80</text><text text-anchor="end" transform="translate(-7,78)" font-family="sans-serif" font-size="10px" fill="#000" opacity="1">100</text><text text-anchor="end" transform="translate(-7,53)" font-family="sans-serif" font-size="10px" fill="#000" opacity="1">120</text><text text-anchor="end" transform="translate(-7,28)" font-family="sans-serif" font-size="10px" fill="#000" opacity="1">140</text><text text-anchor="end" transform="translate(-7,3)" font-family="sans-serif" font-size="10px" fill="#000" opacity="1">160</text></g><g class="mark-rule role-axis-domain" pointer-events="none"><line transform="translate(0,200)" x2="0" y2="-200" stroke="#888" stroke-width="1" opacity="1"/></g></g><path class="foreground" aria-hidden="true" d="" pointer-events="none" display="none"/></g></g></g><path class="foreground" aria-hidden="true" d="" display="none"/></g></g></g></svg>