<svg xmlns="http://www.w3.org/2000/svg" xmlns:xlink="http://www.w3.org/1999/xlink" version="1.1" class="marks" width="509" height="117" viewBox="0 0 509 117"><g fill="none" stroke-miterlimit="10" transform="translate(3,0)"><g class="mark-group role-frame root" role="graphics-object" aria-roledescription="group mark container"><g transform="translate(0,0)"><path class="background" aria-hidden="true" d="M0,0h500v100h-500Z"/><g><g class="mark-group role-axis" role="graphics-symbol" aria-roledescription="axis" aria-label="X-axis for a linear scale with values from 1 to 20"><g transform="translate(0.5,100.5)"><path class="background" aria-hidden="true" d="M0,0h0v0h0Z" pointer-events="none"/><g><g class="mark-rule role-axis-tick" pointer-events="none"><line transform="translate(0,0)" x2="0" y2="5" stroke="#888" stroke-width="1" opacity="1"/><line transform="translate(26,0)" x2="0" y2="5" stroke="#888" stroke-width="1" opacity="1"/><line transform="translate(53,0)" x2="0" y2="5" stroke="#888" stroke-width="1" opacity="1"/><line transform="translate(79,0)" x2="0" y2="5" stroke="#888" stroke-width="1" opacity="1"/><line transform="translate(105,0)" x2="0" y2="5" stroke="#888" stroke-width="1" opacity="1"/><line transform="translate(132,0)" x2="0" y2="5" stroke="#888" stroke-width="1" opacity="1"/><line transform="translate(158,0)" x2="0" y2="5" stroke="#888" stroke-width="1" opacity="1"/><line transform="translate(184,0)" x2="0" y2="5" stroke="#888" stroke-width="1" opacity="1"/><line transform="translate(211,0)" x2="0" y2="5" stroke="#888" stroke-width="1" opacity="1"/><line transform="translate(237,0)" x2="0" y2="5" stroke="#888" stroke-width="1" opacity="1"/><line transform="translate(263,0)" x2="0" y2="5" stroke="#888" stroke-width="1" opacity="1"/><line transform="translate(289,0)" x2="0" y2="5" stroke="#888" stroke-width="1" opacity="1"/><line transform="translate(316,0)" x2="0" y2="5" stroke="#888" stroke-width="1" opacity="1"/><line transform="translate(342,0)" x2="0" y2="5" stroke="#888" stroke-width="1" opacity="1"/><line transform="translate(368,0)" x2="0" y2="5" stroke="#888" stroke-width="1" opacity="1"/><line transform="translate(395,0)" x2="0" y2="5" stroke="#888" stroke-width="1" opacity="1"/><line transform="translate(421,0)" x2="0" y2="5" stroke="#888" stroke-width="1" opacity="1"/><line transform="translate(447,0)" x2="0" y2="5" stroke="#888" stroke-width="1" opacity="1"/><line transform="translate(474,0)" x2="0" y2="5" stroke="#888" stroke-width="1" opacity="1"/><line transform="translate(500,0)" x2="0" y2="5" stroke="#888" stroke-width="1" opacity="1"/></g><g class="mark-text role-axis-label" pointer-events="none"><text text-anchor="middle" transform="translate(0,15)" font-family="sans-serif" font-size="10px" fill="#000" opacity="1">1</text><text text-anchor="middle" transform="translate(26,15)" font-family="sans-serif" font-size="10px" fill="#000" opacity="1">2</text><text text-anchor="middle" transform="translate(53,15)" font-family="sans-serif" font-size="10px" fill="#000" opacity="1">3</text><text text-anchor="middle" transform="translate(79,15)" font-family="sans-serif" font-size="10px" fill="#000" opacity="1">4</text><text text-anchor="middle" transform="translate(105,15)" font-family="sans-serif" font-size="10px" fill="#000" opacity="1">5</text><text text-anchor="middle" transform="translate(132,15)" font-family="sans-serif" font-size="10px" fill="#000" opacity="1">6</text><text text-anchor="middle" transform="translate(158,15)" font-family="sans-serif" font-size="10px" fill="#000" opacity="1">7</text><text text-anchor="middle" transform="translate(184,15)" font-family="sans-serif" font-size="10px" fill="#000" opacity="1">8</text><text text-anchor="middle" transform="translate(211,15)" font-family="sans-serif" font-size="10px" fill="#000" opacity="1">9</text><text text-anchor="middle" transform="translate(237,15)" font-family="sans-serif" font-size="10px" fill="#000" opacity="1">10</text><text text-anchor="middle" transform="translate(263,15)" font-family="sans-serif" font-size="10px" fill="#000" opacity="1">11</text><text text-anchor="middle" transform="translate(289,15)" font-family="sans-serif" font-size="10px" fill="#000" opacity="1">12</text><text text-anchor="middle" transform="translate(316,15)" font-family="sans-serif" font-size="10px" fill="#000" opacity="1">13</text><text text-anchor="middle" transform="translate(342,15)" font-family="sans-serif" font-size="10px" fill="#000" opacity="1">14</text><text text-anchor="middle" transform="translate(368,15)" font-family="sans-serif" font-size="10px" fill="#000" opacity="1">15</text><text text-anchor="middle" transform="translate(395,15)" font-family="sans-serif" font-size="10px" fill="#000" opacity="1">16</text><text text-anchor="middle" transform="translate(421,15)" font-family="sans-serif" font-size="10px" fill="#000" opacity="1">17</text><text text-anchor="middle" transform="translate(447,15)" font-family="sans-serif" font-size="10px" fill="#000" opacity="1">18</text><text text-anchor="middle" transform="translate(474,15)" font-family="sans-serif" font-size="10px" fill="#000" opacity="1">19</text><text text-anchor="middle" transform="translate(500,15)" font-family="sans-serif" font-size="10px" fill="#000" opacity="1">20</text></g><g class="mark-rule role-axis-domain" pointer-events="none"><line transform="translate(0,0)" x2="500" y2="0" stroke="#888" stroke-width="1" opacity="1"/></g></g><path class="foreground" aria-hidden="true" d="" pointer-events="none" display="none"/></g></g><g class="mark-group role-scope" role="graphics-object" aria-roledescription="group mark container"><g transform="translate(0,0)"><path class="background" aria-hidden="true" d="M0,0h500v100h-500Z"/><g clip-path="url(#clip1)"><g class="mark-group role-scope" role="graphics-object" aria-roledescription="group mark container"><g transform="translate(0,0)"><path class="background" aria-hidden="true" d="M0,0h0v0h0Z"/><g><g class="mark-area role-mark" role="graphics-symbol" aria-roledescription="area mark container"><path d="M0,144C8.666666666666666,117,17.333333333333336,89.99999999999999,26,89.99999999999999C35,89.99999999999999,44,114.00000000000001,53,114.00000000000001C61.666666666666664,114.00000000000001,70.33333333333333,17.999999999999993,79,17.999999999999993C87.66666666666667,17.999999999999993,96.33333333333333,25.785697647332853,105,37.999999999999986C114,50.68408321238509,123,72.85147556845669,132,94C140.66666666666666,114.36524574889354,149.33333333333334,162,158,162C166.66666666666666,162,175.33333333333334,26,184,26C193,26,202,90.46153846153847,211,96C219.66666666666666,101.33333333333333,228.33333333333334,98.66666666666667,237,104C245.66666666666666,109.33333333333333,254.33333333333334,152,263,152C271.6666666666667,152,280.3333333333333,122.45795481015607,289,102C298,80.7552007740687,307,26,316,26C324.6666666666667,26,333.3333333333333,44.66666666666667,342,68C350.6666666666667,91.33333333333333,359.3333333333333,166,368,166C377,166,386,159.33333333333334,395,146C403.6666666666667,133.1604938271605,412.3333333333333,63.99999999999999,421,63.99999999999999C429.6666666666667,63.99999999999999,438.3333333333333,168,447,168C456,168,465,102,474,102C482.6666666666667,102,491.3333333333333,136,500,170L500,200C491.3333333333333,200,482.6666666666667,200,474,200C465,200,456,200,447,200C438.3333333333333,200,429.6666666666667,200,421,200C412.3333333333333,200,403.6666666666667,200,395,200C386,200,377,200,368,200C359.3333333333333,200,350.6666666666667,200,342,200C333.3333333333333,200,324.6666666666667,200,316,200C307,200,298,200,289,200C280.3333333333333,200,271.6666666666667,200,263,200C254.33333333333334,200,245.66666666666666,200,237,200C228.33333333333334,200,219.66666666666666,200,211,200C202,200,193,200,184,200C175.33333333333334,200,166.66666666666666,200,158,200C149.33333333333334,200,140.66666666666666,200,132,200C123,200,114,200,105,200C96.33333333333333,200,87.66666666666667,200,79,200C70.33333333333333,200,61.666666666666664,200,53,200C44,200,35,200,26,200C17.333333333333336,200,8.666666666666666,200,0,200Z" fill="steelblue" fill-opacity="0.6299605249474366"/></g></g><path class="foreground" aria-hidden="true" d="" display="none"/></g><g transform="translate(0,-100)"><path class="background" aria-hidden="true" d="M0,0h0v0h0Z"/><g><g class="mark-area role-mark" role="graphics-symbol" aria-roledescription="area mark container"><path d="M0,144C8.666666666666666,117,17.333333333333336,89.99999999999999,26,89.99999999999999C35,89.99999999999999,44,114.00000000000001,53,114.00000000000001C61.666666666666664,114.00000000000001,70.33333333333333,17.999999999999993,79,17.999999999999993C87.66666666666667,17.999999999999993,96.33333333333333,25.785697647332853,105,37.999999999999986C114,50.68408321238509,123,72.85147556845669,132,94C140.66666666666666,114.36524574889354,149.33333333333334,162,158,162C166.66666666666666,162,175.33333333333334,26,184,26C193,26,202,90.46153846153847,211,96C219.66666666666666,101.33333333333333,228.33333333333334,98.66666666666667,237,104C245.66666666666666,109.33333333333333,254.33333333333334,152,263,152C271.6666666666667,152,280.3333333333333,122.45795481015607,289,102C298,80.7552007740687,307,26,316,26C324.6666666666667,26,333.3333333333333,44.66666666666667,342,68C350.6666666666667,91.33333333333333,359.3333333333333,166,368,166C377,166,386,159.33333333333334,395,146C403.6666666666667,133.1604938271605,412.3333333333333,63.99999999999999,421,63.99999999999999C429.6666666666667,63.99999999999999,438.3333333333333,168,447,168C456,168,465,102,474,102C482.6666666666667,102,491.3333333333333,136,500,170L500,200C491.3333333333333,200,482.6666666666667,200,474,200C465,200,456,200,447,200C438.3333333333333,200,429.6666666666667,200,421,200C412.3333333333333,200,403.6666666666667,200,395,200C386,200,377,200,368,200C359.3333333333333,200,350.6666666666667,200,342,200C333.3333333333333,200,324.6666666666667,200,316,200C307,200,298,200,289,200C280.3333333333333,200,271.6666666666667,200,263,200C254.33333333333334,200,245.66666666666666,200,237,200C228.33333333333334,200,219.66666666666666,200,211,200C202,200,193,200,184,200C175.33333333333334,200,166.66666666666666,200,158,200C149.33333333333334,200,140.66666666666666,200,132,200C123,200,114,200,105,200C96.33333333333333,200,87.66666666666667,200,79,200C70.33333333333333,200,61.666666666666664,200,53,200C44,200,35,200,26,200C17.333333333333336,200,8.666666666666666,200,0,200Z" fill="steelblue" fill-opacity="0.6299605249474366"/></g></g><path class="foreground" aria-hidden="true" d="" display="none"/></g></g></g><path class="foreground" aria-hidden="true" d="" display="none"/></g></g></g><path class="foreground" aria-hidden="true" d="" display="none"/></g></g></g><defs><clipPath id="clip1"><rect x="0" y="0" width="500" height="100"/></clipPath></defs></svg>