<?xml version="1.0" encoding="UTF-8" standalone="no"?><svg xmlns="http://www.w3.org/2000/svg" xmlns:xlink="http://www.w3.org/1999/xlink" contentScriptType="application/ecmascript" contentStyleType="text/css" height="265px" preserveAspectRatio="none" style="width:277px;height:265px;background:#FFFFFF;" version="1.1" viewBox="0 0 277 265" width="277px" zoomAndPan="magnify"><defs><filter height="300%" id="f1foh2dvjef662" width="300%" x="-1" y="-1"><feGaussianBlur result="blurOut" stdDeviation="2.0"/><feColorMatrix in="blurOut" result="blurOut2" type="matrix" values="0 0 0 0 0 0 0 0 0 0 0 0 0 0 0 0 0 0 .4 0"/><feOffset dx="4.0" dy="4.0" in="blurOut2" result="blurOut3"/><feBlend in="SourceGraphic" in2="blurOut3" mode="normal"/></filter></defs><g><rect fill="#FFBBBB" filter="url(#f1foh2dvjef662)" height="131.4001" style="stroke:#A80036;stroke-width:1.0;" width="10" x="93.5" y="72.3999"/><rect fill="#E9967A" filter="url(#f1foh2dvjef662)" height="64.2" style="stroke:#A80036;stroke-width:1.0;" width="10" x="98.5" y="110"/><rect fill="#FFFFFF" filter="url(#f1foh2dvjef662)" height="29.6" style="stroke:#A80036;stroke-width:1.0;" width="10" x="248.5" y="144.6"/><line style="stroke:#A80036;stroke-width:1.0;stroke-dasharray:5.0,5.0;" x1="28" x2="28" y1="40.7999" y2="221.8"/><line style="stroke:#A80036;stroke-width:1.0;stroke-dasharray:5.0,5.0;" x1="98" x2="98" y1="40.7999" y2="221.8"/><line style="stroke:#A80036;stroke-width:1.0;stroke-dasharray:5.0,5.0;" x1="253" x2="253" y1="40.7999" y2="221.8"/><rect fill="#FEFECE" filter="url(#f1foh2dvjef662)" height="30.7999" style="stroke:#A80036;stroke-width:1.5;" width="43" x="5" y="5"/><text fill="#000000" font-family="sans-serif" font-size="14" lengthAdjust="spacing" textLength="29" x="12" y="25.9999">User</text><rect fill="#FEFECE" filter="url(#f1foh2dvjef662)" height="30.7999" style="stroke:#A80036;stroke-width:1.5;" width="43" x="5" y="220.8"/><text fill="#000000" font-family="sans-serif" font-size="14" lengthAdjust="spacing" textLength="29" x="12" y="241.7999">User</text><rect fill="#FEFECE" filter="url(#f1foh2dvjef662)" height="30.7999" style="stroke:#A80036;stroke-width:1.5;" width="23" x="85" y="5"/><text fill="#000000" font-family="sans-serif" font-size="14" lengthAdjust="spacing" textLength="9" x="92" y="25.9999">A</text><rect fill="#FEFECE" filter="url(#f1foh2dvjef662)" height="30.7999" style="stroke:#A80036;stroke-width:1.5;" width="23" x="85" y="220.8"/><text fill="#000000" font-family="sans-serif" font-size="14" lengthAdjust="spacing" textLength="9" x="92" y="241.7999">A</text><rect fill="#FEFECE" filter="url(#f1foh2dvjef662)" height="30.7999" style="stroke:#A80036;stroke-width:1.5;" width="23" x="240" y="5"/><text fill="#000000" font-family="sans-serif" font-size="14" lengthAdjust="spacing" textLength="9" x="247" y="25.9999">B</text><rect fill="#FEFECE" filter="url(#f1foh2dvjef662)" height="30.7999" style="stroke:#A80036;stroke-width:1.5;" width="23" x="240" y="220.8"/><text fill="#000000" font-family="sans-serif" font-size="14" lengthAdjust="spacing" textLength="9" x="247" y="241.7999">B</text><rect fill="#FFBBBB" filter="url(#f1foh2dvjef662)" height="131.4001" style="stroke:#A80036;stroke-width:1.0;" width="10" x="93.5" y="72.3999"/><rect fill="#E9967A" filter="url(#f1foh2dvjef662)" height="64.2" style="stroke:#A80036;stroke-width:1.0;" width="10" x="98.5" y="110"/><rect fill="#FFFFFF" filter="url(#f1foh2dvjef662)" height="29.6" style="stroke:#A80036;stroke-width:1.0;" width="10" x="248.5" y="144.6"/><polygon fill="#A80036" points="81.5,68.3999,91.5,72.3999,81.5,76.3999,85.5,72.3999" style="stroke:#A80036;stroke-width:1.0;"/><line style="stroke:#A80036;stroke-width:1.0;" x1="28.5" x2="87.5" y1="72.3999" y2="72.3999"/><text fill="#000000" font-family="sans-serif" font-size="13" lengthAdjust="spacing" textLength="46" x="35.5" y="67.7999">DoWork</text><line style="stroke:#A80036;stroke-width:1.0;" x1="103.5" x2="150.5" y1="97" y2="97"/><line style="stroke:#A80036;stroke-width:1.0;" x1="150.5" x2="150.5" y1="97" y2="110"/><line style="stroke:#A80036;stroke-width:1.0;" x1="109.5" x2="150.5" y1="110" y2="110"/><polygon fill="#A80036" points="119.5,106,109.5,110,119.5,114,115.5,110" style="stroke:#A80036;stroke-width:1.0;"/><text fill="#000000" font-family="sans-serif" font-size="13" lengthAdjust="spacing" textLength="66" x="115.5" y="92.4">Internal call</text><polygon fill="#A80036" points="236.5,140.6,246.5,144.6,236.5,148.6,240.5,144.6" style="stroke:#A80036;stroke-width:1.0;"/><line style="stroke:#A80036;stroke-width:1.0;" x1="108.5" x2="242.5" y1="144.6" y2="144.6"/><text fill="#000000" font-family="sans-serif" font-size="13" lengthAdjust="spacing" textLength="121" x="115.5" y="140">&lt;&lt; createRequest &gt;&gt;</text><polygon fill="#A80036" points="114.5,170.2,104.5,174.2,114.5,178.2,110.5,174.2" style="stroke:#A80036;stroke-width:1.0;"/><line style="stroke:#A80036;stroke-width:1.0;stroke-dasharray:2.0,2.0;" x1="108.5" x2="252.5" y1="174.2" y2="174.2"/><text fill="#000000" font-family="sans-serif" font-size="13" lengthAdjust="spacing" textLength="92" x="120.5" y="169.6">RequestCreated</text><polygon fill="#A80036" points="39.5,199.8,29.5,203.8,39.5,207.8,35.5,203.8" style="stroke:#A80036;stroke-width:1.0;"/><line style="stroke:#A80036;stroke-width:1.0;" x1="33.5" x2="97.5" y1="203.8" y2="203.8"/><text fill="#000000" font-family="sans-serif" font-size="13" lengthAdjust="spacing" textLength="30" x="45.5" y="199.2">Done</text><!--MD5=[99cb59bc653ca29b871aa3be8cbea24e]
@startuml
participant User

User -> A: DoWork
activate A #FFBBBB

A -> A: Internal call
activate A #DarkSalmon

A -> B: << createRequest >>
activate B

B - -> A: RequestCreated
deactivate B
deactivate A
A -> User: Done
deactivate A
@enduml

PlantUML version 1.2021.16(Wed Dec 08 17:25:22 GMT 2021)
(GPL source distribution)
Java Runtime: OpenJDK Runtime Environment
JVM: OpenJDK 64-Bit Server VM
Default Encoding: UTF-8
Language: en
Country: US
--></g></svg>