<?xml version="1.0" encoding="UTF-8" standalone="no"?><svg xmlns="http://www.w3.org/2000/svg" xmlns:xlink="http://www.w3.org/1999/xlink" contentScriptType="application/ecmascript" contentStyleType="text/css" height="255px" preserveAspectRatio="none" style="width:620px;height:255px;background:#FFFFFF;" version="1.1" viewBox="0 0 620 255" width="620px" zoomAndPan="magnify"><defs/><g><rect fill="#FFFFFF" height="145.5995" rx="5" ry="5" style="stroke:#FFFFFF;stroke-width:1.5;" width="249" x="10" y="10"/><text fill="#000000" font-family="sans-serif" font-size="14" font-weight="bold" lengthAdjust="spacing" textLength="26" x="15" y="25.9999">doe</text><text fill="#000000" font-family="sans-serif" font-size="14" lengthAdjust="spacing" textLength="130" x="124" y="25.9999">a deer, a female deer</text><line style="stroke:#000000;stroke-width:1.0;" x1="119" x2="119" y1="10" y2="30.7999"/><line style="stroke:#000000;stroke-width:1.0;" x1="10" x2="259" y1="30.7999" y2="30.7999"/><text fill="#000000" font-family="sans-serif" font-size="14" font-weight="bold" lengthAdjust="spacing" textLength="21" x="15" y="46.7999">ray</text><text fill="#000000" font-family="sans-serif" font-size="14" lengthAdjust="spacing" textLength="127" x="124" y="46.7999">a drop of golden sun</text><line style="stroke:#000000;stroke-width:1.0;" x1="119" x2="119" y1="30.7999" y2="51.5999"/><line style="stroke:#000000;stroke-width:1.0;" x1="10" x2="259" y1="51.5999" y2="51.5999"/><text fill="#000000" font-family="sans-serif" font-size="14" font-weight="bold" lengthAdjust="spacing" textLength="13" x="15" y="67.5998">pi</text><text fill="#000000" font-family="sans-serif" font-size="14" lengthAdjust="spacing" textLength="52" x="124" y="67.5998">3.14159</text><line style="stroke:#000000;stroke-width:1.0;" x1="119" x2="119" y1="51.5999" y2="72.3998"/><line style="stroke:#000000;stroke-width:1.0;" x1="10" x2="259" y1="72.3998" y2="72.3998"/><text fill="#000000" font-family="sans-serif" font-size="14" font-weight="bold" lengthAdjust="spacing" textLength="37" x="15" y="88.3997">xmas</text><text fill="#000000" font-family="sans-serif" font-size="14" lengthAdjust="spacing" textLength="24" x="124" y="88.3997">true</text><line style="stroke:#000000;stroke-width:1.0;" x1="119" x2="119" y1="72.3998" y2="93.1997"/><line style="stroke:#000000;stroke-width:1.0;" x1="10" x2="259" y1="93.1997" y2="93.1997"/><text fill="#000000" font-family="sans-serif" font-size="14" font-weight="bold" lengthAdjust="spacing" textLength="81" x="15" y="109.1996">french-hens</text><text fill="#000000" font-family="sans-serif" font-size="14" lengthAdjust="spacing" textLength="8" x="124" y="109.1996">3</text><line style="stroke:#000000;stroke-width:1.0;" x1="119" x2="119" y1="93.1997" y2="113.9996"/><line style="stroke:#000000;stroke-width:1.0;" x1="10" x2="259" y1="113.9996" y2="113.9996"/><text fill="#000000" font-family="sans-serif" font-size="14" font-weight="bold" lengthAdjust="spacing" textLength="86" x="15" y="129.9996">calling-birds</text><text fill="#000000" font-family="sans-serif" font-size="14" lengthAdjust="spacing" textLength="0" x="136" y="129.9996"/><line style="stroke:#000000;stroke-width:1.0;" x1="119" x2="119" y1="113.9996" y2="134.7996"/><line style="stroke:#000000;stroke-width:1.0;" x1="10" x2="259" y1="134.7996" y2="134.7996"/><text fill="#000000" font-family="sans-serif" font-size="14" font-weight="bold" lengthAdjust="spacing" textLength="99" x="15" y="150.7995">xmas-fifth-day</text><text fill="#000000" font-family="sans-serif" font-size="14" lengthAdjust="spacing" textLength="0" x="136" y="150.7995"/><line style="stroke:#000000;stroke-width:1.0;" x1="119" x2="119" y1="134.7996" y2="155.5995"/><rect fill="none" height="145.5995" rx="5" ry="5" style="stroke:#000000;stroke-width:1.5;" width="249" x="10" y="10"/><rect fill="#FFFFFF" height="83.1997" rx="5" ry="5" style="stroke:#FFFFFF;stroke-width:1.5;" width="49" x="337.5" y="38.5"/><text fill="#000000" font-family="sans-serif" font-size="14" lengthAdjust="spacing" textLength="30" x="342.5" y="54.4999">huey</text><line style="stroke:#000000;stroke-width:1.0;" x1="337.5" x2="386.5" y1="59.2999" y2="59.2999"/><text fill="#000000" font-family="sans-serif" font-size="14" lengthAdjust="spacing" textLength="39" x="342.5" y="75.2999">dewey</text><line style="stroke:#000000;stroke-width:1.0;" x1="337.5" x2="386.5" y1="80.0999" y2="80.0999"/><text fill="#000000" font-family="sans-serif" font-size="14" lengthAdjust="spacing" textLength="28" x="342.5" y="96.0998">louie</text><line style="stroke:#000000;stroke-width:1.0;" x1="337.5" x2="386.5" y1="100.8998" y2="100.8998"/><text fill="#000000" font-family="sans-serif" font-size="14" lengthAdjust="spacing" textLength="24" x="342.5" y="116.8997">fred</text><rect fill="none" height="83.1997" rx="5" ry="5" style="stroke:#000000;stroke-width:1.5;" width="49" x="337.5" y="38.5"/><rect fill="#FFFFFF" height="103.9996" rx="5" ry="5" style="stroke:#FFFFFF;stroke-width:1.5;" width="132" x="296" y="140"/><text fill="#000000" font-family="sans-serif" font-size="14" font-weight="bold" lengthAdjust="spacing" textLength="86" x="301" y="155.9999">calling-birds</text><text fill="#000000" font-family="sans-serif" font-size="14" lengthAdjust="spacing" textLength="24" x="399" y="155.9999">four</text><line style="stroke:#000000;stroke-width:1.0;" x1="394" x2="394" y1="140" y2="160.7999"/><line style="stroke:#000000;stroke-width:1.0;" x1="296" x2="428" y1="160.7999" y2="160.7999"/><text fill="#000000" font-family="sans-serif" font-size="14" font-weight="bold" lengthAdjust="spacing" textLength="81" x="301" y="176.7999">french-hens</text><text fill="#000000" font-family="sans-serif" font-size="14" lengthAdjust="spacing" textLength="8" x="399" y="176.7999">3</text><line style="stroke:#000000;stroke-width:1.0;" x1="394" x2="394" y1="160.7999" y2="181.5999"/><line style="stroke:#000000;stroke-width:1.0;" x1="296" x2="428" y1="181.5999" y2="181.5999"/><text fill="#000000" font-family="sans-serif" font-size="14" font-weight="bold" lengthAdjust="spacing" textLength="88" x="301" y="197.5998">golden-rings</text><text fill="#000000" font-family="sans-serif" font-size="14" lengthAdjust="spacing" textLength="8" x="399" y="197.5998">5</text><line style="stroke:#000000;stroke-width:1.0;" x1="394" x2="394" y1="181.5999" y2="202.3998"/><line style="stroke:#000000;stroke-width:1.0;" x1="296" x2="428" y1="202.3998" y2="202.3998"/><text fill="#000000" font-family="sans-serif" font-size="14" font-weight="bold" lengthAdjust="spacing" textLength="70" x="301" y="218.3997">partridges</text><text fill="#000000" font-family="sans-serif" font-size="14" lengthAdjust="spacing" textLength="0" x="411" y="218.3997"/><line style="stroke:#000000;stroke-width:1.0;" x1="394" x2="394" y1="202.3998" y2="223.1997"/><line style="stroke:#000000;stroke-width:1.0;" x1="296" x2="428" y1="223.1997" y2="223.1997"/><text fill="#000000" font-family="sans-serif" font-size="14" font-weight="bold" lengthAdjust="spacing" textLength="83" x="301" y="239.1996">turtle-doves</text><text fill="#000000" font-family="sans-serif" font-size="14" lengthAdjust="spacing" textLength="21" x="399" y="239.1996">two</text><line style="stroke:#000000;stroke-width:1.0;" x1="394" x2="394" y1="223.1997" y2="243.9996"/><rect fill="none" height="103.9996" rx="5" ry="5" style="stroke:#000000;stroke-width:1.5;" width="132" x="296" y="140"/><rect fill="#FFFFFF" height="41.5999" rx="5" ry="5" style="stroke:#FFFFFF;stroke-width:1.5;" width="143" x="465" y="192"/><text fill="#000000" font-family="sans-serif" font-size="14" font-weight="bold" lengthAdjust="spacing" textLength="40" x="470" y="207.9999">count</text><text fill="#000000" font-family="sans-serif" font-size="14" lengthAdjust="spacing" textLength="8" x="536" y="207.9999">1</text><line style="stroke:#000000;stroke-width:1.0;" x1="531" x2="531" y1="192" y2="212.7999"/><line style="stroke:#000000;stroke-width:1.0;" x1="465" x2="608" y1="212.7999" y2="212.7999"/><text fill="#000000" font-family="sans-serif" font-size="14" font-weight="bold" lengthAdjust="spacing" textLength="56" x="470" y="228.7999">location</text><text fill="#000000" font-family="sans-serif" font-size="14" lengthAdjust="spacing" textLength="67" x="536" y="228.7999">a pear tree</text><line style="stroke:#000000;stroke-width:1.0;" x1="531" x2="531" y1="212.7999" y2="233.5999"/><rect fill="none" height="41.5999" rx="5" ry="5" style="stroke:#000000;stroke-width:1.5;" width="143" x="465" y="192"/><path d="M247,125 L260,125 C285.5192,125 311.7896,112.965 331.2091,101.3428 " fill="none" style="stroke:#000000;stroke-width:1.0;stroke-dasharray:3.0,3.0;"/><path d="M332.8384,103.9711 L333.1803,100.1208 L329.5798,98.7145 L337.7799,97.2695 L332.8384,103.9711 " fill="#000000" style="stroke:#000000;stroke-width:1.0;"/><ellipse cx="247" cy="125" fill="#000000" rx="3" ry="3" style="stroke:#000000;stroke-width:1.0;"/><path d="M416,213 L429,213 C438.3078,213 448.071,213 457.7548,213 " fill="none" style="stroke:#000000;stroke-width:1.0;stroke-dasharray:3.0,3.0;"/><path d="M457.7548,216.0956 L460.0765,213 L457.7548,209.9044 L465.4938,213 L457.7548,216.0956 " fill="#000000" style="stroke:#000000;stroke-width:1.0;"/><ellipse cx="416" cy="213" fill="#000000" rx="3" ry="3" style="stroke:#000000;stroke-width:1.0;"/><path d="M247,146 L260,146 C269.7898,146 279.675,147.7972 289.2356,150.6812 " fill="none" style="stroke:#000000;stroke-width:1.0;stroke-dasharray:3.0,3.0;"/><path d="M288.2734,153.5775 L291.4078,151.4029 L290.1977,147.7849 L296.4763,153.0867 L288.2734,153.5775 " fill="#000000" style="stroke:#000000;stroke-width:1.0;"/><ellipse cx="247" cy="146" fill="#000000" rx="3" ry="3" style="stroke:#000000;stroke-width:1.0;"/><!--MD5=[424af124b72ef5e9fd8a7001192606be]
@startyaml
doe: "a deer, a female deer"
ray: "a drop of golden sun"
pi: 3.14159
xmas: true
french-hens: 3
calling-birds: 
	- huey
	- dewey
	- louie
	- fred
xmas-fifth-day: 
	calling-birds: four
	french-hens: 3
	golden-rings: 5
	partridges: 
		count: 1
		location: "a pear tree"
	turtle-doves: two
@endyaml

PlantUML version 1.2021.16(Wed Dec 08 17:25:22 GMT 2021)
(GPL source distribution)
Java Runtime: OpenJDK Runtime Environment
JVM: OpenJDK 64-Bit Server VM
Default Encoding: UTF-8
Language: en
Country: US
--></g></svg>