<svg version="1.1" xmlns="http://www.w3.org/2000/svg" viewBox="0 0 673.5 175" width="673.5" height="175">
  <!-- svg-source:excalidraw -->
  
  <defs>
    <style>
      @font-face {
        font-family: "Virgil";
        src: url("https://excalidraw.com/FG_Virgil.woff2");
      }
      @font-face {
        font-family: "Cascadia";
        src: url("https://excalidraw.com/Cascadia.woff2");
      }
    </style>
  </defs>
  <rect x="0" y="0" width="673.5" height="175" fill="#ffffff"></rect><g transform="translate(10 10) rotate(0 124.5 77)"><path d="M0.9560279785073995 2.8078369306841133 C61.62518383820759 -2.7916099281566797, 123.00516484885993 -2.287123469057101, 248.78560727390155 0.9172369009516 M-0.9498586316721797 0.40441615221375227 C94.636275946338 3.567878113848928, 188.1594243373487 2.8192350469273126, 249.95031769143765 -1.1575646137854694 M245.0169618204236 -1.235966332256794 C249.23022302038967 50.45077577196062, 243.5530987585336 96.659360832721, 252.19628239423037 153.74745189398527 M250.96223479136825 -0.9643858633935452 C246.68949809677898 49.67097408436239, 248.15198639042674 100.4573388233781, 249.20724361762404 153.85666633024812 M247.70728848695924 153.86835880961019 C162.2103918783386 151.56228486343386, 72.96402167535761 148.96843846408618, 0.7699275944139241 155.22577715453588 M248.26241026245395 152.43698531459398 C150.01303436946725 153.40503025659928, 52.02991277463731 152.72388177241692, -1.2847303997633814 152.88670022181253 M3.654781587421894 157.96200644224882 C3.5279974143952133 114.11270342208445, 5.246792952343822 73.94686445221305, 1.9437365606427193 2.107518784701824 M1.467539843171835 153.61576974764466 C-1.4445235577970745 121.12292662747204, -1.1447168437391522 90.14168400168418, -0.11143356934189796 0.9901742972433567" stroke="#000000" stroke-width="1" fill="none"></path></g><g transform="translate(85 72) rotate(0 49.5 12.5)"><text x="0" y="18" font-family="Virgil, Segoe UI Emoji" font-size="20px" fill="#000000" text-anchor="start" style="white-space: pre;" direction="ltr">niolesk.top</text></g><g transform="translate(414.5 11) rotate(0 124.5 77)"><path d="M0.29837545284287925 0.7874041786264657 C96.92012077647777 -2.2038663409756767, 192.92275267059608 -2.578520077750121, 251.5959626346872 -1.5989698137281179 M0.18819871003581284 1.4010521387223123 C60.72348093183224 -0.3545871472115464, 123.87073982561353 -2.1645608327977124, 249.0503551616002 -1.2959719957705615 M251.669175632298 3.7769466564059258 C242.92511197216808 45.70405546985567, 249.12934299595653 84.53215763047338, 250.25037456303835 150.8305324241519 M249.12998813018203 -1.3429679833352566 C253.6143180025369 39.35744269751012, 252.22908519633114 81.71264234930277, 250.14042740687728 155.5713573731482 M251.10871309396074 153.61664497879278 C188.613261607172 150.8589052974098, 125.47512259555417 155.06188387250057, 3.0679834019281147 155.8212136720339 M248.0518807655633 153.26357690649803 C172.54329411741344 148.69052185565465, 96.58664670140466 148.9947936551515, -0.6434552877306818 153.1949707522542 M2.012973792850971 154.25795470923185 C0.9175875084847211 108.96354483701288, -0.8704452616721392 65.55987440571188, -3.96074365824461 2.9428728744387627 M0.8214885555207729 152.0740635432303 C-1.1387160889059302 108.0903480041772, -2.3714449278265235 67.08295463919639, 0.7035022340714931 -1.243659134954214" stroke="#ff1111" stroke-width="1" fill="none"></path></g><g transform="translate(503.5 74) rotate(0 32 12.5)"><text x="0" y="18" font-family="Virgil, Segoe UI Emoji" font-size="20px" fill="#ff1111" text-anchor="start" style="white-space: pre;" direction="ltr">kroki.io</text></g><g><g transform="translate(260.0000000000002 81.0035626602882) rotate(0 76.49999999999989 -1.0037786365171115)"><path d="M0.6735700674355032 0.3007251791656018 C25.957438785582745 -0.10697401242520543, 128.5866130101182 -2.1763529686662624, 154.1051235027609 -2.1909554907420956 M-2.40530182376504 -2.004334962219 C22.388204622119623 -1.969278540482781, 126.66565065845828 1.6899700546728502, 152.4670387266574 1.3388172173758663" stroke="#000000" stroke-width="1" fill="none"></path></g><g transform="translate(260.0000000000002 81.0035626602882) rotate(0 76.49999999999989 -1.0037786365171115)"><path d="M124.56533724855888 12.78351345260938 C134.78546976142889 8.383251249544035, 149.14957347545618 1.5022239990449027, 150.3401650024948 -0.9827218344549022 M123.23541283276188 12.002038515855869 C134.47384984881418 6.10151688285559, 142.5735354803416 2.7287976332197132, 151.97253909915662 -0.6527018724123321" stroke="#000000" stroke-width="1" fill="none"></path></g><g transform="translate(260.0000000000002 81.0035626602882) rotate(0 76.49999999999989 -1.0037786365171115)"><path d="M124.85189502131556 -7.735694305701177 C134.99888794504966 -4.218625675850236, 149.25244267289006 -3.1837007844210827, 150.3401650024948 -0.9827218344549022 M123.52197060551856 -8.517169242454688 C134.7145507903305 -7.749977714957103, 142.7211880391603 -4.4598900974824405, 151.97253909915662 -0.6527018724123321" stroke="#000000" stroke-width="1" fill="none"></path></g></g><g transform="translate(316 48) rotate(0 16.5 12.5)"><text x="0" y="18" font-family="Virgil, Segoe UI Emoji" font-size="20px" fill="#000000" text-anchor="start" style="white-space: pre;" direction="ltr">use</text></g></svg>