<?xml version="1.0" encoding="UTF-8" standalone="no"?>
<!DOCTYPE svg PUBLIC "-//W3C//DTD SVG 1.1//EN"
 "http://www.w3.org/Graphics/SVG/1.1/DTD/svg11.dtd">
<!-- Generated by graphviz version 2.44.0 ()
 -->
<!-- Title: g Pages: 1 -->
<svg width="825pt" height="557pt"
 viewBox="0.00 0.00 825.00 557.34" xmlns="http://www.w3.org/2000/svg" xmlns:xlink="http://www.w3.org/1999/xlink">
<g id="graph0" class="graph" transform="scale(1 1) rotate(0) translate(4 553.34)">
<title>g</title>
<polygon fill="white" stroke="transparent" points="-4,4 -4,-553.34 821,-553.34 821,4 -4,4"/>
<!-- node0 -->
<g id="node1" class="node">
<title>node0</title>
<polygon fill="none" stroke="black" points="0,-437.5 0,-489.5 72,-489.5 72,-437.5 0,-437.5"/>
<text text-anchor="middle" x="36" y="-472.7" font-family="Times,serif" font-size="16.00">0x10ba8</text>
<polyline fill="none" stroke="black" points="0,-463.5 72,-463.5 "/>
<text text-anchor="middle" x="36" y="-446.7" font-family="Times,serif" font-size="16.00"> </text>
</g>
<!-- node1 -->
<g id="node2" class="node">
<title>node1</title>
<polygon fill="none" stroke="black" points="108,-434.5 108,-538.5 200,-538.5 200,-434.5 108,-434.5"/>
<text text-anchor="middle" x="154" y="-521.7" font-family="Times,serif" font-size="16.00">0xf7fc4380</text>
<polyline fill="none" stroke="black" points="108,-512.5 200,-512.5 "/>
<text text-anchor="middle" x="154" y="-495.7" font-family="Times,serif" font-size="16.00"> </text>
<polyline fill="none" stroke="black" points="108,-486.5 200,-486.5 "/>
<text text-anchor="middle" x="154" y="-469.7" font-family="Times,serif" font-size="16.00"> </text>
<polyline fill="none" stroke="black" points="108,-460.5 200,-460.5 "/>
<text text-anchor="middle" x="154" y="-443.7" font-family="Times,serif" font-size="16.00">&#45;1</text>
</g>
<!-- node0&#45;&gt;node1 -->
<g id="0" class="edge">
<title>node0:f0&#45;&gt;node1:f0</title>
<path fill="none" stroke="black" d="M72,-476.5C94.8,-476.5 85.52,-511.38 98.29,-522.28"/>
<polygon fill="black" stroke="black" points="97.41,-525.68 108,-525.5 99.61,-519.03 97.41,-525.68"/>
</g>
<!-- node2 -->
<g id="node3" class="node">
<title>node2</title>
<polygon fill="none" stroke="black" points="108,-311.5 108,-415.5 200,-415.5 200,-311.5 108,-311.5"/>
<text text-anchor="middle" x="154" y="-398.7" font-family="Times,serif" font-size="16.00">0xf7fc44b8</text>
<polyline fill="none" stroke="black" points="108,-389.5 200,-389.5 "/>
<text text-anchor="middle" x="154" y="-372.7" font-family="Times,serif" font-size="16.00"> </text>
<polyline fill="none" stroke="black" points="108,-363.5 200,-363.5 "/>
<text text-anchor="middle" x="154" y="-346.7" font-family="Times,serif" font-size="16.00"> </text>
<polyline fill="none" stroke="black" points="108,-337.5 200,-337.5 "/>
<text text-anchor="middle" x="154" y="-320.7" font-family="Times,serif" font-size="16.00">2</text>
</g>
<!-- node0&#45;&gt;node2 -->
<g id="1" class="edge">
<title>node0:f1&#45;&gt;node2:f0</title>
<path fill="none" stroke="black" d="M72,-450.5C94.5,-450.5 85.68,-416.33 98.39,-405.65"/>
<polygon fill="black" stroke="black" points="99.59,-408.94 108,-402.5 97.41,-402.29 99.59,-408.94"/>
</g>
<!-- node3 -->
<g id="node4" class="node">
<title>node3</title>
<polygon fill="none" stroke="black" points="620,-457.5 620,-535.5 817,-535.5 817,-457.5 620,-457.5"/>
<text text-anchor="middle" x="718.5" y="-518.7" font-family="Times,serif" font-size="16.00">3.43322790286038071e&#45;06</text>
<polyline fill="none" stroke="black" points="620,-509.5 817,-509.5 "/>
<text text-anchor="middle" x="718.5" y="-492.7" font-family="Times,serif" font-size="16.00">44.79998779296875</text>
<polyline fill="none" stroke="black" points="620,-483.5 817,-483.5 "/>
<text text-anchor="middle" x="718.5" y="-466.7" font-family="Times,serif" font-size="16.00">0</text>
</g>
<!-- node1&#45;&gt;node3 -->
<g id="2" class="edge">
<title>node1:f0&#45;&gt;node3:f0</title>
<path fill="none" stroke="black" d="M200,-525.5C218.09,-525.5 218.44,-540.15 236,-544.5 275.69,-554.33 287.12,-545.54 328,-544.5 441.89,-541.61 471.32,-548.28 584,-531.5 596.36,-529.66 601.19,-525.44 609.98,-523.5"/>
<polygon fill="black" stroke="black" points="610.4,-526.98 620,-522.5 609.7,-520.01 610.4,-526.98"/>
</g>
<!-- node4 -->
<g id="node5" class="node">
<title>node4</title>
<polygon fill="none" stroke="black" points="236,-408.5 236,-512.5 328,-512.5 328,-408.5 236,-408.5"/>
<text text-anchor="middle" x="282" y="-495.7" font-family="Times,serif" font-size="16.00">0xf7fc4380</text>
<polyline fill="none" stroke="black" points="236,-486.5 328,-486.5 "/>
<text text-anchor="middle" x="282" y="-469.7" font-family="Times,serif" font-size="16.00"> </text>
<polyline fill="none" stroke="black" points="236,-460.5 328,-460.5 "/>
<text text-anchor="middle" x="282" y="-443.7" font-family="Times,serif" font-size="16.00"> </text>
<polyline fill="none" stroke="black" points="236,-434.5 328,-434.5 "/>
<text text-anchor="middle" x="282" y="-417.7" font-family="Times,serif" font-size="16.00">2</text>
</g>
<!-- node1&#45;&gt;node4 -->
<g id="3" class="edge">
<title>node1:f1&#45;&gt;node4:f0</title>
<path fill="none" stroke="black" d="M200,-499.5C212,-499.5 217.25,-499.5 225.88,-499.5"/>
<polygon fill="black" stroke="black" points="226,-503 236,-499.5 226,-496 226,-503"/>
</g>
<!-- node5 -->
<g id="node6" class="node">
<title>node5</title>
<polygon fill="none" stroke="black" points="255,-70.5 255,-174.5 309,-174.5 309,-70.5 255,-70.5"/>
<text text-anchor="middle" x="282" y="-157.7" font-family="Times,serif" font-size="16.00">(nil)</text>
<polyline fill="none" stroke="black" points="255,-148.5 309,-148.5 "/>
<text text-anchor="middle" x="282" y="-131.7" font-family="Times,serif" font-size="16.00"> </text>
<polyline fill="none" stroke="black" points="255,-122.5 309,-122.5 "/>
<text text-anchor="middle" x="282" y="-105.7" font-family="Times,serif" font-size="16.00"> </text>
<polyline fill="none" stroke="black" points="255,-96.5 309,-96.5 "/>
<text text-anchor="middle" x="282" y="-79.7" font-family="Times,serif" font-size="16.00">&#45;1</text>
</g>
<!-- node1&#45;&gt;node5 -->
<g id="4" class="edge">
<title>node1:f2&#45;&gt;node5:f0</title>
<path fill="none" stroke="black" d="M200,-473.5C263.62,-473.5 194.98,-238.13 236,-189.5 246.44,-177.12 267.47,-187.74 277.05,-184.3"/>
<polygon fill="black" stroke="black" points="280.15,-185.93 282,-175.5 274.05,-182.5 280.15,-185.93"/>
</g>
<!-- node4&#45;&gt;node3 -->
<g id="5" class="edge">
<title>node4:f0&#45;&gt;node3:f0</title>
<path fill="none" stroke="black" d="M328,-499.5C454.75,-499.5 488.08,-521.3 609.9,-522.45"/>
<polygon fill="black" stroke="black" points="609.98,-525.95 620,-522.5 610.02,-518.95 609.98,-525.95"/>
</g>
<!-- node6 -->
<g id="node7" class="node">
<title>node6</title>
<polygon fill="none" stroke="black" points="364,-382.5 364,-486.5 456,-486.5 456,-382.5 364,-382.5"/>
<text text-anchor="middle" x="410" y="-469.7" font-family="Times,serif" font-size="16.00">0xf7fc4380</text>
<polyline fill="none" stroke="black" points="364,-460.5 456,-460.5 "/>
<text text-anchor="middle" x="410" y="-443.7" font-family="Times,serif" font-size="16.00"> </text>
<polyline fill="none" stroke="black" points="364,-434.5 456,-434.5 "/>
<text text-anchor="middle" x="410" y="-417.7" font-family="Times,serif" font-size="16.00"> </text>
<polyline fill="none" stroke="black" points="364,-408.5 456,-408.5 "/>
<text text-anchor="middle" x="410" y="-391.7" font-family="Times,serif" font-size="16.00">1</text>
</g>
<!-- node4&#45;&gt;node6 -->
<g id="6" class="edge">
<title>node4:f1&#45;&gt;node6:f0</title>
<path fill="none" stroke="black" d="M328,-473.5C340,-473.5 345.25,-473.5 353.88,-473.5"/>
<polygon fill="black" stroke="black" points="354,-477 364,-473.5 354,-470 354,-477"/>
</g>
<!-- node10 -->
<g id="node11" class="node">
<title>node10</title>
<polygon fill="none" stroke="black" points="383,-232.5 383,-336.5 437,-336.5 437,-232.5 383,-232.5"/>
<text text-anchor="middle" x="410" y="-319.7" font-family="Times,serif" font-size="16.00">(nil)</text>
<polyline fill="none" stroke="black" points="383,-310.5 437,-310.5 "/>
<text text-anchor="middle" x="410" y="-293.7" font-family="Times,serif" font-size="16.00"> </text>
<polyline fill="none" stroke="black" points="383,-284.5 437,-284.5 "/>
<text text-anchor="middle" x="410" y="-267.7" font-family="Times,serif" font-size="16.00"> </text>
<polyline fill="none" stroke="black" points="383,-258.5 437,-258.5 "/>
<text text-anchor="middle" x="410" y="-241.7" font-family="Times,serif" font-size="16.00">&#45;1</text>
</g>
<!-- node4&#45;&gt;node10 -->
<g id="7" class="edge">
<title>node4:f2&#45;&gt;node10:f0</title>
<path fill="none" stroke="black" d="M328,-447.5C384.24,-447.5 329.9,-338.97 371.88,-324.98"/>
<polygon fill="black" stroke="black" points="372.61,-328.41 382,-323.5 371.6,-321.48 372.61,-328.41"/>
</g>
<!-- node6&#45;&gt;node3 -->
<g id="8" class="edge">
<title>node6:f0&#45;&gt;node3:f0</title>
<path fill="none" stroke="black" d="M456,-473.5C464.28,-473.5 575.36,-510.68 610.15,-520.27"/>
<polygon fill="black" stroke="black" points="609.47,-523.7 620,-522.5 611.02,-516.88 609.47,-523.7"/>
</g>
<!-- node7 -->
<g id="node8" class="node">
<title>node7</title>
<polygon fill="none" stroke="black" points="492,-369.5 492,-473.5 584,-473.5 584,-369.5 492,-369.5"/>
<text text-anchor="middle" x="538" y="-456.7" font-family="Times,serif" font-size="16.00">0xf7fc4380</text>
<polyline fill="none" stroke="black" points="492,-447.5 584,-447.5 "/>
<text text-anchor="middle" x="538" y="-430.7" font-family="Times,serif" font-size="16.00"> </text>
<polyline fill="none" stroke="black" points="492,-421.5 584,-421.5 "/>
<text text-anchor="middle" x="538" y="-404.7" font-family="Times,serif" font-size="16.00"> </text>
<polyline fill="none" stroke="black" points="492,-395.5 584,-395.5 "/>
<text text-anchor="middle" x="538" y="-378.7" font-family="Times,serif" font-size="16.00">2</text>
</g>
<!-- node6&#45;&gt;node7 -->
<g id="9" class="edge">
<title>node6:f1&#45;&gt;node7:f0</title>
<path fill="none" stroke="black" d="M456,-447.5C469.02,-447.5 473.24,-455.12 482.13,-458.69"/>
<polygon fill="black" stroke="black" points="481.53,-462.14 492,-460.5 482.79,-455.26 481.53,-462.14"/>
</g>
<!-- node9 -->
<g id="node10" class="node">
<title>node9</title>
<polygon fill="none" stroke="black" points="511,-246.5 511,-350.5 565,-350.5 565,-246.5 511,-246.5"/>
<text text-anchor="middle" x="538" y="-333.7" font-family="Times,serif" font-size="16.00">(nil)</text>
<polyline fill="none" stroke="black" points="511,-324.5 565,-324.5 "/>
<text text-anchor="middle" x="538" y="-307.7" font-family="Times,serif" font-size="16.00"> </text>
<polyline fill="none" stroke="black" points="511,-298.5 565,-298.5 "/>
<text text-anchor="middle" x="538" y="-281.7" font-family="Times,serif" font-size="16.00"> </text>
<polyline fill="none" stroke="black" points="511,-272.5 565,-272.5 "/>
<text text-anchor="middle" x="538" y="-255.7" font-family="Times,serif" font-size="16.00">&#45;1</text>
</g>
<!-- node6&#45;&gt;node9 -->
<g id="10" class="edge">
<title>node6:f2&#45;&gt;node9:f0</title>
<path fill="none" stroke="black" d="M456,-421.5C496.39,-421.5 471.23,-351.92 499.84,-339.41"/>
<polygon fill="black" stroke="black" points="500.82,-342.79 510,-337.5 499.53,-335.91 500.82,-342.79"/>
</g>
<!-- node7&#45;&gt;node1 -->
<g id="12" class="edge">
<title>node7:f1&#45;&gt;node1:f0</title>
<path fill="none" stroke="black" d="M492,-434.5C460.14,-434.5 481.89,-477.92 456,-496.5 365.79,-561.25 317.48,-527.69 210.22,-525.6"/>
<polygon fill="black" stroke="black" points="210.03,-522.1 200,-525.5 209.97,-529.1 210.03,-522.1"/>
</g>
<!-- node7&#45;&gt;node3 -->
<g id="11" class="edge">
<title>node7:f0&#45;&gt;node3:f0</title>
<path fill="none" stroke="black" d="M584,-460.5C611.63,-460.5 594.45,-507.12 610.18,-519.51"/>
<polygon fill="black" stroke="black" points="609.41,-522.94 620,-522.5 611.45,-516.24 609.41,-522.94"/>
</g>
<!-- node8 -->
<g id="node9" class="node">
<title>node8</title>
<polygon fill="none" stroke="black" points="691.5,-317.5 691.5,-421.5 745.5,-421.5 745.5,-317.5 691.5,-317.5"/>
<text text-anchor="middle" x="718.5" y="-404.7" font-family="Times,serif" font-size="16.00">(nil)</text>
<polyline fill="none" stroke="black" points="691.5,-395.5 745.5,-395.5 "/>
<text text-anchor="middle" x="718.5" y="-378.7" font-family="Times,serif" font-size="16.00"> </text>
<polyline fill="none" stroke="black" points="691.5,-369.5 745.5,-369.5 "/>
<text text-anchor="middle" x="718.5" y="-352.7" font-family="Times,serif" font-size="16.00"> </text>
<polyline fill="none" stroke="black" points="691.5,-343.5 745.5,-343.5 "/>
<text text-anchor="middle" x="718.5" y="-326.7" font-family="Times,serif" font-size="16.00">&#45;1</text>
</g>
<!-- node7&#45;&gt;node8 -->
<g id="13" class="edge">
<title>node7:f2&#45;&gt;node8:f0</title>
<path fill="none" stroke="black" d="M584,-408.5C627.64,-408.5 641.1,-408.5 680.02,-408.5"/>
<polygon fill="black" stroke="black" points="680.5,-412 690.5,-408.5 680.5,-405 680.5,-412"/>
</g>
<!-- node11 -->
<g id="node12" class="node">
<title>node11</title>
<polygon fill="none" stroke="black" points="511,-123.5 511,-227.5 565,-227.5 565,-123.5 511,-123.5"/>
<text text-anchor="middle" x="538" y="-210.7" font-family="Times,serif" font-size="16.00">(nil)</text>
<polyline fill="none" stroke="black" points="511,-201.5 565,-201.5 "/>
<text text-anchor="middle" x="538" y="-184.7" font-family="Times,serif" font-size="16.00"> </text>
<polyline fill="none" stroke="black" points="511,-175.5 565,-175.5 "/>
<text text-anchor="middle" x="538" y="-158.7" font-family="Times,serif" font-size="16.00"> </text>
<polyline fill="none" stroke="black" points="511,-149.5 565,-149.5 "/>
<text text-anchor="middle" x="538" y="-132.7" font-family="Times,serif" font-size="16.00">&#45;1</text>
</g>
<!-- node10&#45;&gt;node11 -->
<g id="14" class="edge">
<title>node10:f1&#45;&gt;node11:f0</title>
<path fill="none" stroke="black" d="M438,-297.5C483.02,-297.5 464.72,-226.96 499.85,-215.94"/>
<polygon fill="black" stroke="black" points="500.59,-219.37 510,-214.5 499.61,-212.44 500.59,-219.37"/>
</g>
<!-- node12 -->
<g id="node13" class="node">
<title>node12</title>
<polygon fill="none" stroke="black" points="493,-0.5 493,-104.5 583,-104.5 583,-0.5 493,-0.5"/>
<text text-anchor="middle" x="538" y="-87.7" font-family="Times,serif" font-size="16.00">0xf7fc43e0</text>
<polyline fill="none" stroke="black" points="493,-78.5 583,-78.5 "/>
<text text-anchor="middle" x="538" y="-61.7" font-family="Times,serif" font-size="16.00"> </text>
<polyline fill="none" stroke="black" points="493,-52.5 583,-52.5 "/>
<text text-anchor="middle" x="538" y="-35.7" font-family="Times,serif" font-size="16.00"> </text>
<polyline fill="none" stroke="black" points="493,-26.5 583,-26.5 "/>
<text text-anchor="middle" x="538" y="-9.7" font-family="Times,serif" font-size="16.00">1</text>
</g>
<!-- node10&#45;&gt;node12 -->
<g id="15" class="edge">
<title>node10:f2&#45;&gt;node12:f0</title>
<path fill="none" stroke="black" d="M438,-271.5C517.77,-271.5 418.24,-107.31 481.9,-92.56"/>
<polygon fill="black" stroke="black" points="482.42,-96.02 492,-91.5 481.69,-89.06 482.42,-96.02"/>
</g>
<!-- node11&#45;&gt;node1 -->
<g id="16" class="edge">
<title>node11:f2&#45;&gt;node1:f0</title>
<path fill="none" stroke="black" d="M510,-162.5C348.99,-162.5 306.55,-254.77 236,-399.5 212.13,-448.48 252.39,-516.09 209.99,-524.61"/>
<polygon fill="black" stroke="black" points="209.65,-521.12 200,-525.5 210.27,-528.1 209.65,-521.12"/>
</g>
</g>
</svg>
