<?xml version="1.0" encoding="UTF-8" standalone="no"?><svg xmlns="http://www.w3.org/2000/svg" xmlns:xlink="http://www.w3.org/1999/xlink" contentScriptType="application/ecmascript" contentStyleType="text/css" height="654px" preserveAspectRatio="none" style="width:617px;height:654px;background:#FFFFFF;" version="1.1" viewBox="0 0 617 654" width="617px" zoomAndPan="magnify"><defs><filter height="300%" id="f1r1nt9p96nfw9" width="300%" x="-1" y="-1"><feGaussianBlur result="blurOut" stdDeviation="2.0"/><feColorMatrix in="blurOut" result="blurOut2" type="matrix" values="0 0 0 0 0 0 0 0 0 0 0 0 0 0 0 0 0 0 .4 0"/><feOffset dx="4.0" dy="4.0" in="blurOut2" result="blurOut3"/><feBlend in="SourceGraphic" in2="blurOut3" mode="normal"/></filter></defs><g><ellipse cx="379.83" cy="32" fill="#000000" filter="url(#f1r1nt9p96nfw9)" rx="10" ry="10" style="stroke:none;stroke-width:1.0;"/><g id="State1"><rect fill="#FEFECE" filter="url(#f1r1nt9p96nfw9)" height="50" rx="12.5" ry="12.5" style="stroke:#A80036;stroke-width:1.5;" width="60" x="424.83" y="7"/><line style="stroke:#A80036;stroke-width:1.5;" x1="424.83" x2="484.83" y1="33.7999" y2="33.7999"/><text fill="#000000" font-family="sans-serif" font-size="14" lengthAdjust="spacing" textLength="40" x="434.83" y="25.9999">State1</text></g><g id="State2"><rect fill="#FEFECE" filter="url(#f1r1nt9p96nfw9)" height="50" rx="12.5" ry="12.5" style="stroke:#A80036;stroke-width:1.5;" width="60" x="251.83" y="134"/><line style="stroke:#A80036;stroke-width:1.5;" x1="251.83" x2="311.83" y1="160.7999" y2="160.7999"/><text fill="#000000" font-family="sans-serif" font-size="14" lengthAdjust="spacing" textLength="40" x="261.83" y="152.9999">State2</text></g><ellipse cx="290.83" cy="632" filter="url(#f1r1nt9p96nfw9)" rx="10" ry="10" style="stroke:#000000;stroke-width:1.0;fill:none;"/><ellipse cx="291.33" cy="632.5" fill="#000000" rx="6" ry="6" style="stroke:none;stroke-width:1.0;"/><rect fill="#FEFECE" filter="url(#f1r1nt9p96nfw9)" height="283.7999" rx="12.5" ry="12.5" style="stroke:#A80036;stroke-width:1.5;" width="284" x="139.83" y="261"/><rect fill="#FFFFFF" height="251" rx="12.5" ry="12.5" style="stroke:#FFFFFF;stroke-width:1.0;" width="278" x="142.83" y="290.7999"/><line style="stroke:#A80036;stroke-width:1.5;" x1="139.83" x2="423.83" y1="287.7999" y2="287.7999"/><text fill="#000000" font-family="sans-serif" font-size="14" lengthAdjust="spacing" textLength="40" x="261.83" y="279.9999">State3</text><g id="State3.long1"><rect fill="#FEFECE" filter="url(#f1r1nt9p96nfw9)" height="68" rx="12.5" ry="12.5" style="stroke:#A80036;stroke-width:1.5;" width="178" x="151.83" y="355.7999"/><line style="stroke:#A80036;stroke-width:1.5;" x1="151.83" x2="329.83" y1="399.3998" y2="399.3998"/><text fill="#000000" font-family="sans-serif" font-size="14" lengthAdjust="spacing" textLength="158" x="161.83" y="374.7999">Accumulate Enough Data</text><text fill="#000000" font-family="sans-serif" font-size="14" lengthAdjust="spacing" textLength="107" x="187.33" y="391.5998">Long State Name</text><text fill="#000000" font-family="sans-serif" font-size="12" lengthAdjust="spacing" textLength="52" x="156.83" y="416.3999">Just a test</text></g><ellipse cx="240.83" cy="308.7999" fill="#000000" filter="url(#f1r1nt9p96nfw9)" rx="10" ry="10" style="stroke:none;stroke-width:1.0;"/><g id="State3.ProcessData"><rect fill="#FEFECE" filter="url(#f1r1nt9p96nfw9)" height="50" rx="12.5" ry="12.5" style="stroke:#A80036;stroke-width:1.5;" width="99" x="191.33" y="476.7999"/><line style="stroke:#A80036;stroke-width:1.5;" x1="191.33" x2="290.33" y1="503.5999" y2="503.5999"/><text fill="#000000" font-family="sans-serif" font-size="14" lengthAdjust="spacing" textLength="79" x="201.33" y="495.7999">ProcessData</text></g><!--MD5=[cbbb8dc237c8185397a1ccf2b0af3080]
link *start*State3 to long1--><path d="M240.83,318.8599 C240.83,326.7399 240.83,338.6999 240.83,350.5199 " fill="none" id="*start*State3-to-long1" style="stroke:#A80036;stroke-width:1.0;"/><polygon fill="#A80036" points="240.83,355.5699,244.83,346.5699,240.83,350.5699,236.83,346.5699,240.83,355.5699" style="stroke:#A80036;stroke-width:1.0;"/><!--MD5=[cd06514976a2197e7c66cb27013135c0]
link long1 to long1--><path d="M330.2,381.4199 C340.86,382.9399 347.83,385.7399 347.83,389.7999 C347.83,393.1599 343.05,395.6599 335.35,397.2799 " fill="none" id="long1-to-long1" style="stroke:#A80036;stroke-width:1.0;"/><polygon fill="#A80036" points="330.2,398.1799,339.7534,400.574,335.1256,397.3208,338.3788,392.693,330.2,398.1799" style="stroke:#A80036;stroke-width:1.0;"/><text fill="#000000" font-family="sans-serif" font-size="13" lengthAdjust="spacing" textLength="55" x="353.83" y="395.2999">New Data</text><!--MD5=[02e543224095a440a3409c6f97e15d1f]
link long1 to ProcessData--><path d="M240.83,423.7999 C240.83,438.9099 240.83,456.6599 240.83,471.3199 " fill="none" id="long1-to-ProcessData" style="stroke:#A80036;stroke-width:1.0;"/><polygon fill="#A80036" points="240.83,476.5599,244.83,467.5599,240.83,471.5599,236.83,467.5599,240.83,476.5599" style="stroke:#A80036;stroke-width:1.0;"/><text fill="#000000" font-family="sans-serif" font-size="13" lengthAdjust="spacing" textLength="73" x="241.83" y="455.7999">Enough Data</text><!--MD5=[60533a5dc91355c93bf187ba4549d745]
link *start to State1--><path d="M390.08,32 C399.92,32 409.76,32 419.59,32 " fill="none" id="*start-to-State1" style="stroke:#A80036;stroke-width:1.0;"/><polygon fill="#A80036" points="424.73,32,415.73,28,419.73,32,415.73,36,424.73,32" style="stroke:#A80036;stroke-width:1.0;"/><!--MD5=[dc702cd49c4e27e6abb2620dc4bb28d8]
link State1 to State2--><path d="M424.7,54.77 C394.4,76.66 347.77,110.36 316.08,133.25 " fill="none" id="State1-to-State2" style="stroke:#A80036;stroke-width:1.0;"/><polygon fill="#A80036" points="311.91,136.27,321.5486,134.2458,315.9641,133.3436,316.8663,127.7591,311.91,136.27" style="stroke:#A80036;stroke-width:1.0;"/><text fill="#000000" font-family="sans-serif" font-size="13" lengthAdjust="spacing" textLength="65" x="378.83" y="101">Succeeded</text><!--MD5=[ca1046a354e184ac9d197a073cc82934]
link State1 to *end--><path d="M467.12,57.15 C504.95,135.21 610.97,384.91 506.83,545 C461.12,615.27 347.42,628.12 306.13,630.47 " fill="none" id="State1-to-*end" style="stroke:#A80036;stroke-width:1.0;"/><polygon fill="#A80036" points="301.02,630.73,310.2136,634.2625,306.0134,630.4732,309.8027,626.273,301.02,630.73" style="stroke:#A80036;stroke-width:1.0;"/><text fill="#000000" font-family="sans-serif" font-size="13" lengthAdjust="spacing" textLength="45" x="530.83" y="228">Aborted</text><!--MD5=[428d136baf6462f9e03ffacdcb621855]
link State2 to State3--><path d="M281.83,184.09 C281.83,201.93 281.83,227.88 281.83,255.69 " fill="none" id="State2-to-State3" style="stroke:#A80036;stroke-width:1.0;"/><polygon fill="#A80036" points="281.83,260.91,285.83,251.91,281.83,255.91,277.83,251.91,281.83,260.91" style="stroke:#A80036;stroke-width:1.0;"/><text fill="#000000" font-family="sans-serif" font-size="13" lengthAdjust="spacing" textLength="65" x="282.83" y="228">Succeeded</text><!--MD5=[37ebb224bae70bf8df0e6bab9d19d55b]
link State2 to *end--><path d="M251.56,164.59 C204.18,173.59 113.92,198.43 74.83,261 C7.95,368.05 6,439.19 74.83,545 C120.54,615.27 234.24,628.12 275.53,630.47 " fill="none" id="State2-to-*end" style="stroke:#A80036;stroke-width:1.0;"/><polygon fill="#A80036" points="280.64,630.73,271.8573,626.273,275.6466,630.4732,271.4464,634.2625,280.64,630.73" style="stroke:#A80036;stroke-width:1.0;"/><text fill="#000000" font-family="sans-serif" font-size="13" lengthAdjust="spacing" textLength="45" x="75.83" y="408.5">Aborted</text><!--MD5=[8ec7ebc35d95dc19dc51ed7d52bc84fe]
link State3 to State3--><path d="M423.84,372.46 C444.73,377.26 458.83,387.44 458.83,403 C458.83,417.22 447.05,426.95 429.07,432.18 " fill="none" id="State3-to-State3" style="stroke:#A80036;stroke-width:1.0;"/><polygon fill="#A80036" points="423.84,433.54,433.5575,435.1434,428.6787,432.2802,431.5418,427.4014,423.84,433.54" style="stroke:#A80036;stroke-width:1.0;"/><text fill="#000000" font-family="sans-serif" font-size="13" lengthAdjust="spacing" textLength="35" x="464.83" y="408.5">Failed</text><!--MD5=[0ea1e5ee684c4e9667d1229adf70964c]
link State3 to *end--><path d="M184.87,545.32 C183.14,561.49 186.04,577.39 195.83,592 C213.77,618.76 253.71,627.17 275.66,629.81 " fill="none" id="State3-to-*end" style="stroke:#A80036;stroke-width:1.0;"/><polygon fill="#A80036" points="280.83,630.36,272.3033,625.4309,275.858,629.8314,271.4575,633.386,280.83,630.36" style="stroke:#A80036;stroke-width:1.0;"/><text fill="#000000" font-family="sans-serif" font-size="13" lengthAdjust="spacing" textLength="143" x="196.83" y="589">Succeeded / Save Result</text><!--MD5=[0ea1e5ee684c4e9667d1229adf70964c]
link State3 to *end--><path d="M338.17,545.23 C340.81,555.2 343.08,565.19 344.83,575 C346.16,582.44 348.27,585.27 344.83,592 C336.56,608.18 318.09,619.19 305.07,625.28 " fill="none" id="State3-to-*end-1" style="stroke:#A80036;stroke-width:1.0;"/><polygon fill="#A80036" points="300.21,627.45,310.0589,627.4443,304.7779,625.4167,306.8055,620.1357,300.21,627.45" style="stroke:#A80036;stroke-width:1.0;"/><text fill="#000000" font-family="sans-serif" font-size="13" lengthAdjust="spacing" textLength="45" x="346.83" y="589">Aborted</text><!--MD5=[09011b59a1077c15621fda26d7092165]
@startuml

[*] -> State1
State1 - -> State2 : Succeeded
State1 - -> [*] : Aborted
State2 - -> State3 : Succeeded
State2 - -> [*] : Aborted
state State3 {
  state "Accumulate Enough Data\nLong State Name" as long1
  long1 : Just a test
  [*] - -> long1
  long1 - -> long1 : New Data
  long1 - -> ProcessData : Enough Data
}
State3 - -> State3 : Failed
State3 - -> [*] : Succeeded / Save Result
State3 - -> [*] : Aborted

@enduml

PlantUML version 1.2021.16(Wed Dec 08 17:25:22 GMT 2021)
(GPL source distribution)
Java Runtime: OpenJDK Runtime Environment
JVM: OpenJDK 64-Bit Server VM
Default Encoding: UTF-8
Language: en
Country: US
--></g></svg>