<?xml version="1.0" encoding="UTF-8" standalone="no"?><svg xmlns="http://www.w3.org/2000/svg" xmlns:xlink="http://www.w3.org/1999/xlink" contentScriptType="application/ecmascript" contentStyleType="text/css" height="375px" preserveAspectRatio="none" style="width:1392px;height:375px;background:#FFFFFF;" version="1.1" viewBox="0 0 1392 375" width="1392px" zoomAndPan="magnify"><defs><filter height="300%" id="f1q2wxb4xq7z2p" width="300%" x="-1" y="-1"><feGaussianBlur result="blurOut" stdDeviation="2.0"/><feColorMatrix in="blurOut" result="blurOut2" type="matrix" values="0 0 0 0 0 0 0 0 0 0 0 0 0 0 0 0 0 0 .4 0"/><feOffset dx="4.0" dy="4.0" in="blurOut2" result="blurOut3"/><feBlend in="SourceGraphic" in2="blurOut3" mode="normal"/></filter></defs><g><!--MD5=[d4873e07717233af0d37b192d4f73cba]
entity foo1--><ellipse cx="366" cy="14" fill="#FEFECE" filter="url(#f1q2wxb4xq7z2p)" rx="8" ry="8" style="stroke:#A80036;stroke-width:1.5;"/><path d="M366,22 L366,49 M353,30 L379,30 M366,49 L353,64 M366,49 L379,64 " fill="none" filter="url(#f1q2wxb4xq7z2p)" style="stroke:#A80036;stroke-width:1.5;"/><text fill="#000000" font-family="sans-serif" font-size="14" lengthAdjust="spacing" textLength="26" x="353" y="83.4999">foo1</text><!--MD5=[70f4f2f2902a7ea41b81327309970ed7]
entity foo2--><ellipse cx="366" cy="156" fill="#FEFECE" filter="url(#f1q2wxb4xq7z2p)" rx="8" ry="8" style="stroke:#A80036;stroke-width:1.5;"/><path d="M366,164 L366,191 M353,172 L379,172 M366,191 L353,206 M366,191 L379,206 " fill="none" filter="url(#f1q2wxb4xq7z2p)" style="stroke:#A80036;stroke-width:1.5;"/><text fill="#000000" font-family="sans-serif" font-size="14" lengthAdjust="spacing" textLength="26" x="353" y="225.4999">foo2</text><ellipse cx="96.2487" cy="187.3793" fill="#FEFECE" filter="url(#f1q2wxb4xq7z2p)" rx="27.7487" ry="14.8793" style="stroke:#A80036;stroke-width:1.5;"/><text fill="#000000" font-family="sans-serif" font-size="14" lengthAdjust="spacing" textLength="23" x="84.7487" y="190.9793">ac1</text><!--MD5=[de68cb016a427fece96b1a1523034918]
entity left1--><ellipse cx="19" cy="156" fill="#FEFECE" filter="url(#f1q2wxb4xq7z2p)" rx="8" ry="8" style="stroke:#A80036;stroke-width:1.5;"/><path d="M19,164 L19,191 M6,172 L32,172 M19,191 L6,206 M19,191 L32,206 " fill="none" filter="url(#f1q2wxb4xq7z2p)" style="stroke:#A80036;stroke-width:1.5;"/><text fill="#000000" font-family="sans-serif" font-size="14" lengthAdjust="spacing" textLength="26" x="6" y="225.4999">left1</text><!--MD5=[6d8c7f888472c021908af0555b6d40de]
entity right1--><ellipse cx="177" cy="156" fill="#FEFECE" filter="url(#f1q2wxb4xq7z2p)" rx="8" ry="8" style="stroke:#A80036;stroke-width:1.5;"/><path d="M177,164 L177,191 M164,172 L190,172 M177,191 L164,206 M177,191 L190,206 " fill="none" filter="url(#f1q2wxb4xq7z2p)" style="stroke:#A80036;stroke-width:1.5;"/><text fill="#000000" font-family="sans-serif" font-size="14" lengthAdjust="spacing" textLength="36" x="159" y="225.4999">right1</text><!--MD5=[6b5110e1d1872780b22b589759068f96]
entity up1--><ellipse cx="128" cy="14" fill="#FEFECE" filter="url(#f1q2wxb4xq7z2p)" rx="8" ry="8" style="stroke:#A80036;stroke-width:1.5;"/><path d="M128,22 L128,49 M115,30 L141,30 M128,49 L115,64 M128,49 L141,64 " fill="none" filter="url(#f1q2wxb4xq7z2p)" style="stroke:#A80036;stroke-width:1.5;"/><text fill="#000000" font-family="sans-serif" font-size="14" lengthAdjust="spacing" textLength="24" x="116" y="83.4999">up1</text><!--MD5=[e9bb9e561c9ac0aa3c349e1e9e4790d7]
entity up2--><ellipse cx="64" cy="14" fill="#FEFECE" filter="url(#f1q2wxb4xq7z2p)" rx="8" ry="8" style="stroke:#A80036;stroke-width:1.5;"/><path d="M64,22 L64,49 M51,30 L77,30 M64,49 L51,64 M64,49 L77,64 " fill="none" filter="url(#f1q2wxb4xq7z2p)" style="stroke:#A80036;stroke-width:1.5;"/><text fill="#000000" font-family="sans-serif" font-size="14" lengthAdjust="spacing" textLength="24" x="52" y="83.4999">up2</text><!--MD5=[955a7ba96e9813e2f112fbd8c75aa89a]
entity down1--><ellipse cx="58" cy="298" fill="#FEFECE" filter="url(#f1q2wxb4xq7z2p)" rx="8" ry="8" style="stroke:#A80036;stroke-width:1.5;"/><path d="M58,306 L58,333 M45,314 L71,314 M58,333 L45,348 M58,333 L71,348 " fill="none" filter="url(#f1q2wxb4xq7z2p)" style="stroke:#A80036;stroke-width:1.5;"/><text fill="#000000" font-family="sans-serif" font-size="14" lengthAdjust="spacing" textLength="41" x="37.5" y="367.4999">down1</text><!--MD5=[0918d2da4a65c6c3bc88e0362db30282]
entity down2--><ellipse cx="134" cy="298" fill="#FEFECE" filter="url(#f1q2wxb4xq7z2p)" rx="8" ry="8" style="stroke:#A80036;stroke-width:1.5;"/><path d="M134,306 L134,333 M121,314 L147,314 M134,333 L121,348 M134,333 L147,348 " fill="none" filter="url(#f1q2wxb4xq7z2p)" style="stroke:#A80036;stroke-width:1.5;"/><text fill="#000000" font-family="sans-serif" font-size="14" lengthAdjust="spacing" textLength="41" x="113.5" y="367.4999">down2</text><!--MD5=[b4169b9244bc69ec48b9c046c001b1bb]
entity actor1--><ellipse cx="435" cy="14" fill="#FEFECE" filter="url(#f1q2wxb4xq7z2p)" rx="8" ry="8" style="stroke:#A80036;stroke-width:1.5;"/><path d="M435,22 L435,49 M422,30 L448,30 M435,49 L422,64 M435,49 L448,64 " fill="none" filter="url(#f1q2wxb4xq7z2p)" style="stroke:#A80036;stroke-width:1.5;"/><text fill="#000000" font-family="sans-serif" font-size="14" lengthAdjust="spacing" textLength="39" x="415.5" y="83.4999">actor1</text><!--MD5=[47d04bfa183c2d3f22cd34f901e4d5b2]
entity actor2--><ellipse cx="435" cy="156" fill="#FEFECE" filter="url(#f1q2wxb4xq7z2p)" rx="8" ry="8" style="stroke:#A80036;stroke-width:1.5;"/><path d="M435,164 L435,191 M422,172 L448,172 M435,191 L422,206 M435,191 L448,206 " fill="none" filter="url(#f1q2wxb4xq7z2p)" style="stroke:#A80036;stroke-width:1.5;"/><text fill="#000000" font-family="sans-serif" font-size="14" lengthAdjust="spacing" textLength="39" x="415.5" y="225.4999">actor2</text><!--MD5=[9f289ca539b650134df838be30977bdf]
entity comp1--><rect fill="#FEFECE" filter="url(#f1q2wxb4xq7z2p)" height="46.7999" style="stroke:#A80036;stroke-width:1.5;" width="81" x="563.5" y="22"/><rect fill="#FEFECE" height="10" style="stroke:#A80036;stroke-width:1.5;" width="15" x="624.5" y="27"/><rect fill="#FEFECE" height="2" style="stroke:#A80036;stroke-width:1.5;" width="4" x="622.5" y="29"/><rect fill="#FEFECE" height="2" style="stroke:#A80036;stroke-width:1.5;" width="4" x="622.5" y="33"/><text fill="#000000" font-family="sans-serif" font-size="14" lengthAdjust="spacing" textLength="41" x="578.5" y="55.9999">comp1</text><!--MD5=[9ce2ef9ab72501d0b0a005ad96e63d6d]
entity comp2--><rect fill="#FEFECE" filter="url(#f1q2wxb4xq7z2p)" height="46.7999" style="stroke:#A80036;stroke-width:1.5;" width="81" x="489.5" y="164"/><rect fill="#FEFECE" height="10" style="stroke:#A80036;stroke-width:1.5;" width="15" x="550.5" y="169"/><rect fill="#FEFECE" height="2" style="stroke:#A80036;stroke-width:1.5;" width="4" x="548.5" y="171"/><rect fill="#FEFECE" height="2" style="stroke:#A80036;stroke-width:1.5;" width="4" x="548.5" y="175"/><text fill="#000000" font-family="sans-serif" font-size="14" lengthAdjust="spacing" textLength="41" x="504.5" y="197.9999">comp2</text><!--MD5=[b0987787102391d442837cbcbe544d9b]
entity comp3--><rect fill="#FEFECE" filter="url(#f1q2wxb4xq7z2p)" height="46.7999" style="stroke:#A80036;stroke-width:1.5;" width="81" x="724.5" y="22"/><rect fill="#FEFECE" height="10" style="stroke:#A80036;stroke-width:1.5;" width="15" x="785.5" y="27"/><rect fill="#FEFECE" height="2" style="stroke:#A80036;stroke-width:1.5;" width="4" x="783.5" y="29"/><rect fill="#FEFECE" height="2" style="stroke:#A80036;stroke-width:1.5;" width="4" x="783.5" y="33"/><text fill="#000000" font-family="sans-serif" font-size="14" lengthAdjust="spacing" textLength="41" x="739.5" y="55.9999">comp3</text><!--MD5=[872e7249418d416d387577d1a7b264cc]
entity comp4--><rect fill="#FEFECE" filter="url(#f1q2wxb4xq7z2p)" height="46.7999" style="stroke:#A80036;stroke-width:1.5;" width="81" x="724.5" y="164"/><rect fill="#FEFECE" height="10" style="stroke:#A80036;stroke-width:1.5;" width="15" x="785.5" y="169"/><rect fill="#FEFECE" height="2" style="stroke:#A80036;stroke-width:1.5;" width="4" x="783.5" y="171"/><rect fill="#FEFECE" height="2" style="stroke:#A80036;stroke-width:1.5;" width="4" x="783.5" y="175"/><text fill="#000000" font-family="sans-serif" font-size="14" lengthAdjust="spacing" textLength="41" x="739.5" y="197.9999">comp4</text><!--MD5=[55492eb1c4b62cc9e892e1fafdaeb44c]
entity b1--><path d="M844.5,25 L844.5,49 M844.5,37 L861.5,37 " fill="none" filter="url(#f1q2wxb4xq7z2p)" style="stroke:#A80036;stroke-width:1.5;"/><ellipse cx="873.5" cy="37" fill="#FEFECE" filter="url(#f1q2wxb4xq7z2p)" rx="12" ry="12" style="stroke:#A80036;stroke-width:1.5;"/><text fill="#000000" font-family="sans-serif" font-size="14" lengthAdjust="spacing" textLength="16" x="857" y="66.9999">b1</text><!--MD5=[0aac872f208ab6f5f7887aae079fb447]
entity c1--><ellipse cx="865" cy="179" fill="#FEFECE" filter="url(#f1q2wxb4xq7z2p)" rx="12" ry="12" style="stroke:#A80036;stroke-width:1.5;"/><polygon fill="#A80036" points="861,167,867,162,865,167,867,172,861,167" style="stroke:#A80036;stroke-width:1.0;"/><text fill="#000000" font-family="sans-serif" font-size="14" lengthAdjust="spacing" textLength="15" x="857.5" y="208.9999">c1</text><!--MD5=[362421b883c4ef7f8b848687b6cbb6fd]
entity interf1--><ellipse cx="633" cy="187.5" fill="#FEFECE" filter="url(#f1q2wxb4xq7z2p)" rx="8" ry="8" style="stroke:#A80036;stroke-width:1.5;"/><text fill="#000000" font-family="sans-serif" font-size="14" lengthAdjust="spacing" textLength="39" x="613.5" y="218.4999">interf1</text><!--MD5=[84ef7a1b4c618e2c4fd7a6a73fa68073]
entity mode1actor--><ellipse cx="961" cy="14" fill="#FEFECE" filter="url(#f1q2wxb4xq7z2p)" rx="8" ry="8" style="stroke:#A80036;stroke-width:1.5;"/><path d="M961,22 L961,49 M948,30 L974,30 M961,49 L948,64 M961,49 L974,64 " fill="none" filter="url(#f1q2wxb4xq7z2p)" style="stroke:#A80036;stroke-width:1.5;"/><text fill="#000000" font-family="sans-serif" font-size="14" lengthAdjust="spacing" textLength="72" x="925" y="83.4999">mode1actor</text><!--MD5=[4976a5b047286902c57c2e1f61e2adaf]
entity fooa1--><ellipse cx="961" cy="156" fill="#FEFECE" filter="url(#f1q2wxb4xq7z2p)" rx="8" ry="8" style="stroke:#A80036;stroke-width:1.5;"/><path d="M961,164 L961,191 M948,172 L974,172 M961,191 L948,206 M961,191 L974,206 " fill="none" filter="url(#f1q2wxb4xq7z2p)" style="stroke:#A80036;stroke-width:1.5;"/><text fill="#000000" font-family="sans-serif" font-size="14" lengthAdjust="spacing" textLength="34" x="944" y="225.4999">fooa1</text><!--MD5=[0eb79c23e328b9541d3bb49a06c3a411]
entity mode1actorl--><ellipse cx="215" cy="14" fill="#FEFECE" filter="url(#f1q2wxb4xq7z2p)" rx="8" ry="8" style="stroke:#A80036;stroke-width:1.5;"/><path d="M215,22 L215,49 M202,30 L228,30 M215,49 L202,64 M215,49 L228,64 " fill="none" filter="url(#f1q2wxb4xq7z2p)" style="stroke:#A80036;stroke-width:1.5;"/><text fill="#000000" font-family="sans-serif" font-size="14" lengthAdjust="spacing" textLength="75" x="177.5" y="83.4999">mode1actorl</text><!--MD5=[8f63ece581d86850734b100ee1c096e7]
entity foo1l--><ellipse cx="302" cy="14" fill="#FEFECE" filter="url(#f1q2wxb4xq7z2p)" rx="8" ry="8" style="stroke:#A80036;stroke-width:1.5;"/><path d="M302,22 L302,49 M289,30 L315,30 M302,49 L289,64 M302,49 L315,64 " fill="none" filter="url(#f1q2wxb4xq7z2p)" style="stroke:#A80036;stroke-width:1.5;"/><text fill="#000000" font-family="sans-serif" font-size="14" lengthAdjust="spacing" textLength="29" x="287.5" y="83.4999">foo1l</text><!--MD5=[6e0b287d7aada176fb97614f32c2bf1c]
entity component1--><rect fill="#FEFECE" filter="url(#f1q2wxb4xq7z2p)" height="46.7999" style="stroke:#A80036;stroke-width:1.5;" width="115" x="1032.5" y="22"/><rect fill="#FEFECE" height="10" style="stroke:#A80036;stroke-width:1.5;" width="15" x="1127.5" y="27"/><rect fill="#FEFECE" height="2" style="stroke:#A80036;stroke-width:1.5;" width="4" x="1125.5" y="29"/><rect fill="#FEFECE" height="2" style="stroke:#A80036;stroke-width:1.5;" width="4" x="1125.5" y="33"/><text fill="#000000" font-family="sans-serif" font-size="14" lengthAdjust="spacing" textLength="75" x="1047.5" y="55.9999">component1</text><!--MD5=[7ababdcd263ee09e9a4f093377d957c1]
entity componentC--><rect fill="#FEFECE" filter="url(#f1q2wxb4xq7z2p)" height="46.7999" style="stroke:#A80036;stroke-width:1.5;" width="117" x="1093.5" y="164"/><rect fill="#FEFECE" height="10" style="stroke:#A80036;stroke-width:1.5;" width="15" x="1190.5" y="169"/><rect fill="#FEFECE" height="2" style="stroke:#A80036;stroke-width:1.5;" width="4" x="1188.5" y="171"/><rect fill="#FEFECE" height="2" style="stroke:#A80036;stroke-width:1.5;" width="4" x="1188.5" y="175"/><text fill="#000000" font-family="sans-serif" font-size="14" lengthAdjust="spacing" textLength="77" x="1108.5" y="197.9999">componentC</text><!--MD5=[adc982a932cb2f076949bd1cd03ce467]
entity component3--><ellipse cx="1228" cy="45.5" fill="#FEFECE" filter="url(#f1q2wxb4xq7z2p)" rx="8" ry="8" style="stroke:#A80036;stroke-width:1.5;"/><text fill="#000000" font-family="sans-serif" font-size="14" lengthAdjust="spacing" textLength="75" x="1190.5" y="76.4999">component3</text><!--MD5=[3ba65bc1a471fcc23c939f130c8ded31]
entity aze1--><rect fill="#FEFECE" filter="url(#f1q2wxb4xq7z2p)" height="46.7999" style="stroke:#A80036;stroke-width:1.5;" width="70" x="1308" y="22"/><rect fill="#FEFECE" height="10" style="stroke:#A80036;stroke-width:1.5;" width="15" x="1358" y="27"/><rect fill="#FEFECE" height="2" style="stroke:#A80036;stroke-width:1.5;" width="4" x="1356" y="29"/><rect fill="#FEFECE" height="2" style="stroke:#A80036;stroke-width:1.5;" width="4" x="1356" y="33"/><text fill="#000000" font-family="sans-serif" font-size="14" lengthAdjust="spacing" textLength="30" x="1323" y="55.9999">aze1</text><!--MD5=[23fec14606f56675691a069e4cdfa117]
entity aze2--><rect fill="#FEFECE" filter="url(#f1q2wxb4xq7z2p)" height="46.7999" style="stroke:#A80036;stroke-width:1.5;" width="70" x="1308" y="164"/><rect fill="#FEFECE" height="10" style="stroke:#A80036;stroke-width:1.5;" width="15" x="1358" y="169"/><rect fill="#FEFECE" height="2" style="stroke:#A80036;stroke-width:1.5;" width="4" x="1356" y="171"/><rect fill="#FEFECE" height="2" style="stroke:#A80036;stroke-width:1.5;" width="4" x="1356" y="175"/><text fill="#000000" font-family="sans-serif" font-size="14" lengthAdjust="spacing" textLength="30" x="1323" y="197.9999">aze2</text><!--MD5=[fbab11f161143cf01a766cef342eb953]
link foo1 to foo2--><path d="M353.97,91.98 C353.01,107.73 353.01,125.37 353.98,141.12 " fill="none" id="foo1-foo2" style="stroke:#A80036;stroke-width:1.0;"/><polygon fill="#A80036" points="354.34,146.38,357.7131,137.1268,353.997,141.3918,349.732,137.6756,354.34,146.38" style="stroke:#A80036;stroke-width:1.0;"/><polygon fill="#A80036" points="354.34,86.62,349.732,95.3244,353.997,91.6082,357.7131,95.8732,354.34,86.62" style="stroke:#A80036;stroke-width:1.0;"/><ellipse cx="353.2513" cy="116.55" fill="#FFFFFF" rx="6" ry="6" style="stroke:#A80036;stroke-width:1.5;"/><!--MD5=[fbab11f161143cf01a766cef342eb953]
link foo1 to foo2--><path d="M378.74,91.98 C379.76,107.73 379.75,125.37 378.73,141.12 " fill="none" id="foo1-foo2-1" style="stroke:#A80036;stroke-width:1.0;"/><polygon fill="#A80036" points="378.34,146.38,382.9976,137.702,378.7115,141.3938,375.0197,137.1077,378.34,146.38" style="stroke:#A80036;stroke-width:1.0;"/><polygon fill="#A80036" points="378.34,86.62,374.9933,95.8828,378.6973,91.6072,382.9728,95.3112,378.34,86.62" style="stroke:#A80036;stroke-width:1.0;"/><ellipse cx="379.5" cy="116.55" fill="#FFFFFF" rx="10" ry="10" style="stroke:#FFFFFF;stroke-width:1.0;"/><path d="M372.4268,123.6189 A10,10 0 0 0 386.5689 123.6232" style="stroke:#A80036;stroke-width:1.5;fill:none;"/><path d="M386.5732,109.4811 A10,10 0 0 0 372.4311 109.4768" style="stroke:#A80036;stroke-width:1.5;fill:none;"/><ellipse cx="379.5" cy="116.55" fill="#FFFFFF" rx="6" ry="6" style="stroke:#A80036;stroke-width:1.5;"/><!--MD5=[fab29d1bd3f938581ce6472cd9a26af8]
reverse link left1 to ac1--><path d="M38.86,187.5 C48.67,187.5 58.47,187.5 68.27,187.5 " fill="none" id="left1-backto-ac1" style="stroke:#A80036;stroke-width:1.0;"/><polygon fill="#A80036" points="33.74,187.5,42.74,191.5,38.74,187.5,42.74,183.5,33.74,187.5" style="stroke:#A80036;stroke-width:1.0;"/><ellipse cx="53.5688" cy="187.5" fill="#FFFFFF" rx="10" ry="10" style="stroke:#FFFFFF;stroke-width:1.0;"/><path d="M60.6398,194.5711 A10,10 0 0 0 60.6398 180.4289" style="stroke:#A80036;stroke-width:1.5;fill:none;"/><path d="M46.4977,180.4289 A10,10 0 0 0 46.4977 194.5711" style="stroke:#A80036;stroke-width:1.5;fill:none;"/><ellipse cx="53.5688" cy="187.5" fill="#FFFFFF" rx="6" ry="6" style="stroke:#A80036;stroke-width:1.5;"/><!--MD5=[238ca449d86bcbe6543f6eb0ec9864c0]
link ac1 to right1--><path d="M123.53,187.5 C133.49,187.5 143.45,187.5 153.41,187.5 " fill="none" id="ac1-to-right1" style="stroke:#A80036;stroke-width:1.0;"/><polygon fill="#A80036" points="158.62,187.5,149.62,183.5,153.62,187.5,149.62,191.5,158.62,187.5" style="stroke:#A80036;stroke-width:1.0;"/><ellipse cx="138.47" cy="187.5" fill="#FFFFFF" rx="10" ry="10" style="stroke:#FFFFFF;stroke-width:1.0;"/><path d="M145.5411,194.5711 A10,10 0 0 0 145.5411 180.4289" style="stroke:#A80036;stroke-width:1.5;fill:none;"/><path d="M131.3989,180.4289 A10,10 0 0 0 131.3989 194.5711" style="stroke:#A80036;stroke-width:1.5;fill:none;"/><ellipse cx="138.47" cy="187.5" fill="#FFFFFF" rx="6" ry="6" style="stroke:#A80036;stroke-width:1.5;"/><!--MD5=[5561c28864add9c1ec504b5c82502302]
reverse link up1 to ac1--><path d="M117.66,91.75 C111.28,119.67 103.52,153.6 99.24,172.34 " fill="none" id="up1-backto-ac1" style="stroke:#A80036;stroke-width:1.0;stroke-dasharray:7.0,7.0;"/><polygon fill="#A80036" points="118.83,86.62,112.9239,94.5015,117.7151,91.4941,120.7225,96.2853,118.83,86.62" style="stroke:#A80036;stroke-width:1.0;"/><ellipse cx="107.6625" cy="135.4875" fill="#FFFFFF" rx="10" ry="10" style="stroke:#FFFFFF;stroke-width:1.0;"/><path d="M99.1934,140.8049 A10,10 0 0 0 112.9799 143.9566" style="stroke:#A80036;stroke-width:1.5;fill:none;"/><path d="M116.1316,130.1701 A10,10 0 0 0 102.3451 127.0184" style="stroke:#A80036;stroke-width:1.5;fill:none;"/><ellipse cx="107.6625" cy="135.4875" fill="#FFFFFF" rx="6" ry="6" style="stroke:#A80036;stroke-width:1.5;"/><!--MD5=[dee9a2e08b23205c8982b7002ccf7d81]
reverse link up2 to ac1--><path d="M74.34,91.75 C80.72,119.67 88.48,153.6 92.76,172.34 " fill="none" id="up2-backto-ac1" style="stroke:#A80036;stroke-width:1.0;stroke-dasharray:1.0,3.0;"/><polygon fill="#A80036" points="73.17,86.62,71.2775,96.2853,74.2849,91.4941,79.0761,94.5015,73.17,86.62" style="stroke:#A80036;stroke-width:1.0;"/><ellipse cx="84.3375" cy="135.4875" fill="#FFFFFF" rx="10" ry="10" style="stroke:#FFFFFF;stroke-width:1.0;"/><path d="M79.0201,143.9566 A10,10 0 0 0 92.8066 140.8049" style="stroke:#A80036;stroke-width:1.5;fill:none;"/><path d="M89.6549,127.0184 A10,10 0 0 0 75.8684 130.1701" style="stroke:#A80036;stroke-width:1.5;fill:none;"/><ellipse cx="84.3375" cy="135.4875" fill="#FFFFFF" rx="6" ry="6" style="stroke:#A80036;stroke-width:1.5;"/><!--MD5=[9448d52f5056773a3a13973951b0558f]
link ac1 to down1--><path d="M92.22,202.44 C87.15,221.12 77.9,255.19 70.29,283.21 " fill="none" id="ac1-to-down1" style="stroke:#A80036;stroke-width:1.0;"/><polygon fill="#A80036" points="68.89,288.36,75.0979,280.714,70.1935,283.5329,67.3745,278.6284,68.89,288.36" style="stroke:#A80036;stroke-width:1.0;"/><ellipse cx="82.2075" cy="239.3225" fill="#FFFFFF" rx="10" ry="10" style="stroke:#FFFFFF;stroke-width:1.0;"/><path d="M73.5307,244.2937 A10,10 0 0 0 87.1787 247.9993" style="stroke:#A80036;stroke-width:1.5;fill:none;"/><path d="M90.8843,234.3513 A10,10 0 0 0 77.2363 230.6457" style="stroke:#A80036;stroke-width:1.5;fill:none;"/><ellipse cx="82.2075" cy="239.3225" fill="#FFFFFF" rx="6" ry="6" style="stroke:#A80036;stroke-width:1.5;"/><!--MD5=[fcc6abf978cc94b37a91791fad9a24da]
link ac1 to down2--><path d="M99.78,202.44 C104.85,221.12 114.1,255.19 121.71,283.21 " fill="none" id="ac1-to-down2" style="stroke:#A80036;stroke-width:1.0;"/><polygon fill="#A80036" points="123.11,288.36,124.6255,278.6284,121.8065,283.5329,116.9021,280.714,123.11,288.36" style="stroke:#A80036;stroke-width:1.0;"/><ellipse cx="109.7925" cy="239.3225" fill="#FFFFFF" rx="10" ry="10" style="stroke:#FFFFFF;stroke-width:1.0;"/><path d="M104.8213,247.9993 A10,10 0 0 0 118.4693 244.2937" style="stroke:#A80036;stroke-width:1.5;fill:none;"/><path d="M114.7637,230.6457 A10,10 0 0 0 101.1157 234.3513" style="stroke:#A80036;stroke-width:1.5;fill:none;"/><ellipse cx="109.7925" cy="239.3225" fill="#FFFFFF" rx="6" ry="6" style="stroke:#A80036;stroke-width:1.5;"/><!--MD5=[270b12f543486f7dbd6f8f52bf1d5549]
link actor1 to actor2--><path d="M435,86.62 C435,105.36 435,127.63 435,146.38 " fill="none" id="actor1-actor2" style="stroke:#A80036;stroke-width:1.0;"/><path d="M427.9289,123.5673 A10,10 0 0 0 442.0711 123.5673" style="stroke:#A80036;stroke-width:1.5;fill:none;"/><ellipse cx="435" cy="116.4963" fill="#FFFFFF" rx="6" ry="6" style="stroke:#A80036;stroke-width:1.5;"/><!--MD5=[ad8e7535f0cc2e02d36f446f28b509f6]
link comp1 to comp2--><path d="M586.3427,79.9193 C586.3427,79.9193 560.16,129.43 549.16,150.26 " fill="none" id="comp1-comp2" style="stroke:#A80036;stroke-width:1.0;"/><ellipse cx="545.7914" cy="156.6288" fill="#FFFFFF" rx="8" ry="8" style="stroke:#A80036;stroke-width:1.0;"/><line style="stroke:#A80036;stroke-width:1.0;" x1="549.5327" x2="542.05" y1="149.5575" y2="163.7"/><line style="stroke:#A80036;stroke-width:1.0;" x1="552.8626" x2="538.7201" y1="160.3701" y2="152.8874"/><polygon fill="#A80036" points="591.95,69.31,585.6099,72.7456,586.3427,79.9193,592.6828,76.4838,591.95,69.31" style="stroke:#A80036;stroke-width:1.0;"/><path d="M562.3202,110.2246 A10,10 0 0 0 574.8225 116.8346" style="stroke:#A80036;stroke-width:1.5;fill:none;"/><ellipse cx="571.8763" cy="107.2784" fill="#FFFFFF" rx="6" ry="6" style="stroke:#A80036;stroke-width:1.5;"/><!--MD5=[db9dc8064d9f1a2e3eb476d9045e9b70]
link comp3 to comp4--><path d="M765,77.37 C765,100.6 765,132.3 765,155.55 " fill="none" id="comp3-comp4" style="stroke:#A80036;stroke-width:1.0;"/><polygon fill="#A80036" points="765,163.7,768,155.7,762,155.7,765,163.7" style="stroke:#A80036;stroke-width:1.0;"/><polygon fill="#A80036" points="765,69.31,761.0161,78.3171,765.0089,74.31,769.0161,78.3028,765,69.31" style="stroke:#A80036;stroke-width:1.0;"/><line style="stroke:#A80036;stroke-width:1.0;" x1="765.0089" x2="765" y1="74.31" y2="77.305"/><!--MD5=[a62a97833fc6a6bd4687cb03e039a273]
link b1 to c1--><path d="M865,70.25 C865,95.99 865,136.84 865,162.63 " fill="none" id="b1-c1" style="stroke:#A80036;stroke-width:1.0;"/><ellipse cx="865" cy="116.4213" fill="#FFFFFF" rx="10" ry="10" style="stroke:#FFFFFF;stroke-width:1.0;"/><path d="M857.9289,123.4923 A10,10 0 0 0 872.0711 123.4923" style="stroke:#A80036;stroke-width:1.5;fill:none;"/><path d="M872.0711,109.3502 A10,10 0 0 0 857.9289 109.3502" style="stroke:#A80036;stroke-width:1.5;fill:none;"/><ellipse cx="865" cy="116.4213" fill="#FFFFFF" rx="6" ry="6" style="stroke:#A80036;stroke-width:1.5;"/><!--MD5=[440c5b3fc61d344f71f784a48e48c82b]
link comp1 to interf1--><path d="M610.79,79.3 C616.57,107.2 624.65,146.2 629.3,168.66 " fill="none" id="comp1-interf1" style="stroke:#A80036;stroke-width:1.0;stroke-dasharray:1.0,3.0;"/><path d="M638.9977,173.7614 A9,9 0 0 0 622.4344 177.19" style="stroke:#A80036;stroke-width:1.5;fill:none;"/><rect fill="#FFFFFF" height="10" style="stroke:#A80036;stroke-width:1.5;" width="10" x="603.72" y="64.31"/><!--MD5=[fb795603f02136d249da094f0f1756d4]
link mode1actor to fooa1--><path d="M961,86.62 C961,105.36 961,127.63 961,146.38 " fill="none" id="mode1actor-fooa1" style="stroke:#A80036;stroke-width:1.0;"/><path d="M953.9289,123.5673 A10,10 0 0 0 968.0711 123.5673" style="stroke:#A80036;stroke-width:1.5;fill:none;"/><ellipse cx="961" cy="116.4963" fill="#FFFFFF" rx="6" ry="6" style="stroke:#A80036;stroke-width:1.5;"/><!--MD5=[275f7b022fa871eb4eec864a63d0a75a]
link mode1actorl to foo1l--><path d="M252.72,45.5 C264.27,45.5 275.82,45.5 287.37,45.5 " fill="none" id="mode1actorl-foo1l" style="stroke:#A80036;stroke-width:1.0;"/><path d="M277.1161,52.5711 A10,10 0 0 0 277.1161 38.4289" style="stroke:#A80036;stroke-width:1.5;fill:none;"/><ellipse cx="270.045" cy="45.5" fill="#FFFFFF" rx="6" ry="6" style="stroke:#A80036;stroke-width:1.5;"/><!--MD5=[d855b6ef9c5db24abd1a20a6a80f606f]
link component1 to componentC--><path d="M1102.2,74.04 C1113.08,98.61 1128.92,134.38 1139.8,158.95 " fill="none" id="component1-componentC" style="stroke:#A80036;stroke-width:1.0;"/><ellipse cx="1141.9" cy="163.7" fill="#FFFFFF" rx="6" ry="6" style="stroke:#A80036;stroke-width:1.5;"/><path d="M1145.4952,154.3686 A10,10 0 0 0 1132.5686 160.1048" fill="#FFFFFF" style="stroke:#A80036;stroke-width:1.5;"/><ellipse cx="1100.1" cy="69.31" fill="#FFFFFF" rx="6" ry="6" style="stroke:#A80036;stroke-width:1.5;"/><path d="M1096.5048,78.6414 A10,10 0 0 0 1109.4314 72.9052" fill="#FFFFFF" style="stroke:#A80036;stroke-width:1.5;"/><path d="M1124.6024,107.1664 A10,10 0 0 0 1111.6714 112.8926" style="stroke:#A80036;stroke-width:1.5;fill:none;"/><ellipse cx="1121" cy="116.495" fill="#FFFFFF" rx="6" ry="6" style="stroke:#A80036;stroke-width:1.5;"/><!--MD5=[a2a4955f31a57c18ce3edf8e1a928f15]
link component3 to componentC--><path d="M1218.53,63.95 C1206.2,86.66 1184.43,126.75 1169.17,154.88 " fill="none" id="component3-componentC" style="stroke:#A80036;stroke-width:1.0;"/><ellipse cx="1164.26" cy="163.92" fill="#FFFFFF" rx="6" ry="6" style="stroke:#A80036;stroke-width:1.5;"/><path d="M1173.8466,161.0743 A10,10 0 0 0 1161.4143 154.3334" fill="#FFFFFF" style="stroke:#A80036;stroke-width:1.5;"/><path d="M1214.569,53.5088 A9,9 0 0 0 1229.4329 61.5812" style="stroke:#A80036;stroke-width:1.5;fill:none;"/><text fill="#000000" font-family="sans-serif" font-size="13" lengthAdjust="spacing" textLength="18" x="1147.1769" y="153.2913">foo</text><ellipse cx="1194.9488" cy="107.3825" fill="#FFFFFF" rx="6" ry="6" style="stroke:#A80036;stroke-width:1.5;"/><!--MD5=[620253659b4ea2fec1c8633d1736a48f]
link aze1 to aze2--><path d="M1343,77.37 C1343,100.6 1343,132.3 1343,155.55 " fill="none" id="aze1-aze2" style="stroke:#A80036;stroke-width:1.0;"/><polygon fill="#A80036" points="1343,163.7,1346,155.7,1340,155.7,1343,163.7" style="stroke:#A80036;stroke-width:1.0;"/><rect fill="#FFFFFF" height="10" style="stroke:#A80036;stroke-width:1.5;" width="10" x="1338" y="64.31"/><!--MD5=[c6bbfd3f33e9e9a68bbd37db4a8ef866]
@startuml
actor foo1
actor foo2
foo1 <-0-> foo2
foo1 <-(0)-> foo2
 
(ac1) -le(0)-> left1
ac1 -ri(0)-> right1
ac1 .up(0).> up1
ac1 ~up(0)~> up2
ac1 -do(0)-> down1
ac1 -do(0)-> down2
 
actor1 -0)- actor2
 
component comp1
component comp2
comp1 *-0)-+ comp2
[comp3] <- ->> [comp4]

boundary b1
control c1
b1 -(0)- c1

component comp1
interface interf1
comp1 #~~( interf1

:mode1actor: -0)- fooa1
:mode1actorl: -ri0)- foo1l

[component1] 0)-(0-(0 [componentC]
() component3 )-0-(0 "foo" [componentC]

[aze1] #- ->> [aze2]
@enduml

PlantUML version 1.2021.16(Wed Dec 08 17:25:22 GMT 2021)
(GPL source distribution)
Java Runtime: OpenJDK Runtime Environment
JVM: OpenJDK 64-Bit Server VM
Default Encoding: UTF-8
Language: en
Country: US
--></g></svg>