<?xml version="1.0" encoding="UTF-8" standalone="no"?><svg xmlns="http://www.w3.org/2000/svg" xmlns:xlink="http://www.w3.org/1999/xlink" contentScriptType="application/ecmascript" contentStyleType="text/css" height="231px" preserveAspectRatio="none" style="width:435px;height:231px;background:#FFFFFF;" version="1.1" viewBox="0 0 435 231" width="435px" zoomAndPan="magnify"><defs/><g><line style="stroke:#000000;stroke-width:1.7;" x1="10" x2="10" y1="10" y2="200.4001"/><line style="stroke:#000000;stroke-width:1.7;" x1="418" x2="418" y1="10" y2="200.4001"/><line style="stroke:#AAAAAA;stroke-width:0.5;stroke-dasharray:3.0,5.0;" x1="113" x2="113" y1="10" y2="200.4001"/><line style="stroke:#AAAAAA;stroke-width:0.5;stroke-dasharray:3.0,5.0;" x1="163" x2="163" y1="10" y2="200.4001"/><line style="stroke:#AAAAAA;stroke-width:0.5;stroke-dasharray:3.0,5.0;" x1="213" x2="213" y1="10" y2="200.4001"/><line style="stroke:#AAAAAA;stroke-width:0.5;stroke-dasharray:3.0,5.0;" x1="263" x2="263" y1="10" y2="200.4001"/><line style="stroke:#AAAAAA;stroke-width:0.5;stroke-dasharray:3.0,5.0;" x1="313" x2="313" y1="10" y2="200.4001"/><line style="stroke:#AAAAAA;stroke-width:0.5;stroke-dasharray:3.0,5.0;" x1="363" x2="363" y1="10" y2="200.4001"/><line style="stroke:#AAAAAA;stroke-width:0.5;stroke-dasharray:3.0,5.0;" x1="413" x2="413" y1="10" y2="200.4001"/><line style="stroke:#000000;stroke-width:1.7;" x1="10" x2="418" y1="10" y2="10"/><text fill="#000000" font-family="sans-serif" font-size="12" lengthAdjust="spacing" textLength="70" x="15" y="22.0001">Web Browser</text><line style="stroke:#000000;stroke-width:1.0;" x1="10" x2="86" y1="25.4001" y2="25.4001"/><line style="stroke:#000000;stroke-width:1.0;" x1="86" x2="96" y1="25.4001" y2="10"/><text fill="#000000" font-family="sans-serif" font-size="12" lengthAdjust="spacing" textLength="53" x="15" y="118.0001">Initializing</text><text fill="#000000" font-family="sans-serif" font-size="12" lengthAdjust="spacing" textLength="19" x="15" y="98.0001">idle</text><text fill="#000000" font-family="sans-serif" font-size="12" lengthAdjust="spacing" textLength="58" x="15" y="78.0001">Processing</text><text fill="#000000" font-family="sans-serif" font-size="12" lengthAdjust="spacing" textLength="40" x="15" y="58.0001">Waiting</text><line style="stroke:#038048;stroke-width:1.5;" x1="73" x2="113" y1="112.2" y2="112.2"/><line style="stroke:#038048;stroke-width:1.5;" x1="113" x2="213" y1="92.2" y2="92.2"/><line style="stroke:#038048;stroke-width:1.5;" x1="213" x2="263" y1="72.2" y2="72.2"/><line style="stroke:#038048;stroke-width:1.5;" x1="263" x2="413" y1="52.2" y2="52.2"/><line style="stroke:#038048;stroke-width:1.5;" x1="113" x2="113" y1="92.2" y2="112.2"/><line style="stroke:#038048;stroke-width:1.5;" x1="213" x2="213" y1="72.2" y2="92.2"/><line style="stroke:#038048;stroke-width:1.5;" x1="263" x2="263" y1="52.2" y2="72.2"/><line style="stroke:#A80036;stroke-width:1.5;" x1="113" x2="138" y1="87.2" y2="87.2"/><polygon fill="#A80036" points="120.5175,84.4639,120.5175,89.9362,113,87.2" style="stroke:#A80036;stroke-width:1.5;"/><polygon fill="#A80036" points="130.4825,89.9362,130.4825,84.4639,138,87.2" style="stroke:#A80036;stroke-width:1.5;"/><text fill="#000000" font-family="Serif" font-size="14" lengthAdjust="spacing" textLength="69" x="91" y="79.4">{50 ms lag}</text><line style="stroke:#000000;stroke-width:1.7;" x1="10" x2="418" y1="124.2" y2="124.2"/><text fill="#000000" font-family="sans-serif" font-size="12" lengthAdjust="spacing" textLength="52" x="15" y="136.2001">Web User</text><line style="stroke:#000000;stroke-width:1.0;" x1="10" x2="68" y1="139.6001" y2="139.6001"/><line style="stroke:#000000;stroke-width:1.0;" x1="68" x2="78" y1="139.6001" y2="124.2"/><polygon fill="#D7E0F2" points="53,166.4001,101,166.4001,113,178.4001,101,190.4001,53,190.4001" style="stroke:#D7E0F2;stroke-width:1.5;"/><path d="M53,166.4001 L101,166.4001 L113,178.4001 L101,190.4001 L53,190.4001 " fill="#D7E0F2" style="stroke:#038048;stroke-width:1.5;"/><text fill="#000000" font-family="sans-serif" font-size="12" lengthAdjust="spacing" textLength="36" x="65" y="183.2001">Absent</text><polygon fill="#D7E0F2" points="125,166.4001,351,166.4001,363,178.4001,351,190.4001,125,190.4001,113,178.4001" style="stroke:#038048;stroke-width:1.5;"/><polygon fill="#D7E0F2" points="375,166.4001,413,166.4001,413,190.4001,375,190.4001,363,178.4001" style="stroke:#D7E0F2;stroke-width:1.5;"/><path d="M413,166.4001 L375,166.4001 L363,178.4001 L375,190.4001 L413,190.4001 " fill="#D7E0F2" style="stroke:#038048;stroke-width:1.5;"/><text fill="#000000" font-family="sans-serif" font-size="12" lengthAdjust="spacing" textLength="40" x="218" y="183.2001">Waiting</text><text fill="#000000" font-family="sans-serif" font-size="12" lengthAdjust="spacing" textLength="12" x="375" y="183.2001">ok</text><line style="stroke:#A80036;stroke-width:1.5;" x1="213" x2="288" y1="155.5001" y2="155.5001"/><polygon fill="#A80036" points="220.5175,152.7639,220.5175,158.2363,213,155.5001" style="stroke:#A80036;stroke-width:1.0;"/><polygon fill="#A80036" points="280.4825,158.2363,280.4825,152.7639,288,155.5001" style="stroke:#A80036;stroke-width:1.0;"/><text fill="#000000" font-family="Serif" font-size="14" lengthAdjust="spacing" textLength="55" x="223" y="147.7001">{150 ms}</text><line style="stroke:#000000;stroke-width:2.0;" x1="113" x2="113" y1="200.4001" y2="205.4001"/><line style="stroke:#000000;stroke-width:2.0;" x1="163" x2="163" y1="200.4001" y2="205.4001"/><line style="stroke:#000000;stroke-width:2.0;" x1="213" x2="213" y1="200.4001" y2="205.4001"/><line style="stroke:#000000;stroke-width:2.0;" x1="263" x2="263" y1="200.4001" y2="205.4001"/><line style="stroke:#000000;stroke-width:2.0;" x1="313" x2="313" y1="200.4001" y2="205.4001"/><line style="stroke:#000000;stroke-width:2.0;" x1="363" x2="363" y1="200.4001" y2="205.4001"/><line style="stroke:#000000;stroke-width:2.0;" x1="413" x2="413" y1="200.4001" y2="205.4001"/><line style="stroke:#000000;stroke-width:2.0;" x1="113" x2="413" y1="200.4001" y2="200.4001"/><text fill="#000000" font-family="sans-serif" font-size="12" lengthAdjust="spacing" textLength="7" x="109.5" y="218.4001">0</text><text fill="#000000" font-family="sans-serif" font-size="12" lengthAdjust="spacing" textLength="21" x="202.5" y="218.4001">200</text><text fill="#000000" font-family="sans-serif" font-size="12" lengthAdjust="spacing" textLength="21" x="252.5" y="218.4001">300</text><text fill="#000000" font-family="sans-serif" font-size="12" lengthAdjust="spacing" textLength="21" x="352.5" y="218.4001">500</text><!--MD5=[d3bed446a1660796e1ecfd706b63e6dd]
@startuml
robust "Web Browser" as WB
concise "Web User" as WU

WB is Initializing
WU is Absent

@WB
0 is idle
+200 is Processing
+100 is Waiting
WB@0 <-> @50 : {50 ms lag}

@WU
0 is Waiting
+500 is ok
@200 <-> @+150 : {150 ms}
@enduml

PlantUML version 1.2021.16(Wed Dec 08 17:25:22 GMT 2021)
(GPL source distribution)
Java Runtime: OpenJDK Runtime Environment
JVM: OpenJDK 64-Bit Server VM
Default Encoding: UTF-8
Language: en
Country: US
--></g></svg>