<svg xmlns="http://www.w3.org/2000/svg" xmlns:xlink="http://www.w3.org/1999/xlink" version="1.1" class="marks" width="500" height="250" viewBox="0 0 500 250"><rect width="500" height="250" fill="#fff"/><g fill="none" stroke-miterlimit="10" transform="translate(40,51)"><g class="mark-group role-frame root" role="graphics-object" aria-roledescription="group mark container"><g transform="translate(0,0)"><path class="background" aria-hidden="true" d="M0,0h455v174h-455Z"/><g><g class="mark-group role-title"><g transform="translate(-35,-46)"><path class="background" aria-hidden="true" d="M0,0h0v0h0Z" pointer-events="none"/><g><g class="mark-text role-title-text" role="graphics-symbol" aria-roledescription="title" aria-label="Title text 'Passenger Traffic at Seattle-Tacoma International Airport, One Year to the Next'" pointer-events="none"><text text-anchor="start" transform="translate(0,10)" font-family="sans-serif" font-size="13px" font-weight="bold" fill="#000" opacity="1">Passenger Traffic at Seattle-Tacoma International Airport, One Year to the Next</text></g><g class="mark-text role-title-subtitle" role="graphics-symbol" aria-roledescription="subtitle" aria-label="Subtitle text 'Source: Port of Seattle, Airport Statistics'" pointer-events="none"><text text-anchor="start" transform="translate(0,27)" font-family="sans-serif" font-size="12px" font-style="italic" fill="#000" opacity="1">Source: Port of Seattle, Airport Statistics</text></g></g><path class="foreground" aria-hidden="true" d="" pointer-events="none" display="none"/></g></g><g class="mark-group role-axis" role="graphics-symbol" aria-roledescription="axis" aria-label="X-axis for a time scale with values from September 2019 to April 2020"><g transform="translate(0.5,174.5)"><path class="background" aria-hidden="true" d="M0,0h0v0h0Z" pointer-events="none"/><g><g class="mark-text role-axis-label" pointer-events="none"><text text-anchor="middle" transform="translate(24.000000002376115,18)" font-family="sans-serif" font-size="10px" fill="#555" opacity="1">Oct 2019</text><text text-anchor="middle" transform="translate(92.94535519718846,18)" font-family="sans-serif" font-size="10px" fill="#555" opacity="1">Nov 2019</text><text text-anchor="middle" transform="translate(159.6666666760391,18)" font-family="sans-serif" font-size="10px" fill="#555" opacity="1">Dec 2019</text><text text-anchor="middle" transform="translate(228.61202187085146,18)" font-family="sans-serif" font-size="10px" fill="#555" opacity="1">Jan 2020</text><text text-anchor="middle" transform="translate(297.55737706566384,18)" font-family="sans-serif" font-size="10px" fill="#555" opacity="1">Feb 2020</text><text text-anchor="middle" transform="translate(362.05464482855274,18)" font-family="sans-serif" font-size="10px" fill="#555" opacity="1">Mar 2020</text><text text-anchor="middle" transform="translate(431.0000000233651,18)" font-family="sans-serif" font-size="10px" fill="#555" opacity="1">Apr 2020</text></g></g><path class="foreground" aria-hidden="true" d="" pointer-events="none" display="none"/></g></g><g class="mark-group role-axis" role="graphics-symbol" aria-roledescription="axis" aria-label="Y-axis titled 'Change from Prior Year' for a linear scale with values from −100% to +20%"><g transform="translate(0.5,0.5)"><path class="background" aria-hidden="true" d="M0,0h0v0h0Z" pointer-events="none"/><g><g class="mark-rule role-axis-grid" pointer-events="none"><line transform="translate(0,174)" x2="455" y2="0" stroke="#eee" stroke-width="1" stroke-dasharray="" opacity="1"/><line transform="translate(0,145)" x2="455" y2="0" stroke="#eee" stroke-width="1" stroke-dasharray="" opacity="1"/><line transform="translate(0,116)" x2="455" y2="0" stroke="#eee" stroke-width="1" stroke-dasharray="" opacity="1"/><line transform="translate(0,87)" x2="455" y2="0" stroke="#eee" stroke-width="1" stroke-dasharray="" opacity="1"/><line transform="translate(0,58)" x2="455" y2="0" stroke="#eee" stroke-width="1" stroke-dasharray="" opacity="1"/><line transform="translate(0,29)" x2="455" y2="0" stroke="#888" stroke-width="1" stroke-dasharray="5,4" opacity="1"/><line transform="translate(0,0)" x2="455" y2="0" stroke="#eee" stroke-width="1" stroke-dasharray="" opacity="1"/></g><g class="mark-text role-axis-label" pointer-events="none"><text text-anchor="end" transform="translate(-2,177)" font-family="sans-serif" font-size="10px" fill="#555" fill-opacity="1" opacity="1">−100%</text><text text-anchor="end" transform="translate(-2,148)" font-family="sans-serif" font-size="10px" fill="#555" fill-opacity="1" opacity="1">−80%</text><text text-anchor="end" transform="translate(-2,119)" font-family="sans-serif" font-size="10px" fill="#555" fill-opacity="1" opacity="1">−60%</text><text text-anchor="end" transform="translate(-2,90)" font-family="sans-serif" font-size="10px" fill="#555" fill-opacity="1" opacity="1">−40%</text><text text-anchor="end" transform="translate(-2,60.999999999999986)" font-family="sans-serif" font-size="10px" fill="#555" fill-opacity="1" opacity="1">−20%</text><text text-anchor="end" transform="translate(-2,31.999999999999993)" font-family="sans-serif" font-size="10px" fill="#555" fill-opacity="0" opacity="1">+0%</text><text text-anchor="end" transform="translate(-2,3)" font-family="sans-serif" font-size="10px" fill="#555" fill-opacity="1" opacity="1">+20%</text></g><g class="mark-text role-axis-title" pointer-events="none"><text text-anchor="start" transform="translate(1,3)" font-family="sans-serif" font-size="10px" font-weight="normal" fill="#555" opacity="1">Change from Prior Year</text></g></g><path class="foreground" aria-hidden="true" d="" pointer-events="none" display="none"/></g></g><g class="mark-line role-mark" aria-hidden="true"><path d="M24.000000002376115,20.112588094658268L92.94535519718846,26.132110486376767L159.6666666760391,14.924455087752282L228.61202187085146,20.695076449129235L297.55737706566384,9.587662748507821L362.05464482855274,109.65285552622753L431.0000000233651,164.6837644873604" stroke="steelblue" stroke-width="3"/></g><g class="mark-symbol role-mark" role="graphics-object" aria-roledescription="symbol mark container"><path aria-label="October 2019: +6.1% change from prior year" role="graphics-symbol" aria-roledescription="symbol mark" transform="translate(24.000000002376115,20.112588094658268)" d="M4,0A4,4,0,1,1,-4,0A4,4,0,1,1,4,0" fill="steelblue"/><path aria-label="November 2019: +2.0% change from prior year" role="graphics-symbol" aria-roledescription="symbol mark" transform="translate(92.94535519718846,26.132110486376767)" d="M4,0A4,4,0,1,1,-4,0A4,4,0,1,1,4,0" fill="steelblue"/><path aria-label="December 2019: +9.7% change from prior year" role="graphics-symbol" aria-roledescription="symbol mark" transform="translate(159.6666666760391,14.924455087752282)" d="M4,0A4,4,0,1,1,-4,0A4,4,0,1,1,4,0" fill="steelblue"/><path aria-label="January 2020: +5.7% change from prior year" role="graphics-symbol" aria-roledescription="symbol mark" transform="translate(228.61202187085146,20.695076449129235)" d="M4,0A4,4,0,1,1,-4,0A4,4,0,1,1,4,0" fill="steelblue"/><path aria-label="February 2020: +13.4% change from prior year" role="graphics-symbol" aria-roledescription="symbol mark" transform="translate(297.55737706566384,9.587662748507821)" d="M4,0A4,4,0,1,1,-4,0A4,4,0,1,1,4,0" fill="steelblue"/><path aria-label="March 2020: −55.6% change from prior year" role="graphics-symbol" aria-roledescription="symbol mark" transform="translate(362.05464482855274,109.65285552622753)" d="M4,0A4,4,0,1,1,-4,0A4,4,0,1,1,4,0" fill="steelblue"/><path aria-label="April 2020: −93.6% change from prior year" role="graphics-symbol" aria-roledescription="symbol mark" transform="translate(431.0000000233651,164.6837644873604)" d="M4,0A4,4,0,1,1,-4,0A4,4,0,1,1,4,0" fill="steelblue"/></g></g><path class="foreground" aria-hidden="true" d="" display="none"/></g></g></g></svg>