<?xml version="1.0" encoding="UTF-8" standalone="no"?><svg xmlns="http://www.w3.org/2000/svg" xmlns:xlink="http://www.w3.org/1999/xlink" contentScriptType="application/ecmascript" contentStyleType="text/css" height="391px" preserveAspectRatio="none" style="width:590px;height:391px;background:#FFFFFF;" version="1.1" viewBox="0 0 590 391" width="590px" zoomAndPan="magnify"><defs><filter height="300%" id="f681wl4q61tf3" width="300%" x="-1" y="-1"><feGaussianBlur result="blurOut" stdDeviation="2.0"/><feColorMatrix in="blurOut" result="blurOut2" type="matrix" values="0 0 0 0 0 0 0 0 0 0 0 0 0 0 0 0 0 0 .4 0"/><feOffset dx="4.0" dy="4.0" in="blurOut2" result="blurOut3"/><feBlend in="SourceGraphic" in2="blurOut3" mode="normal"/></filter></defs><g><!--MD5=[b4fa10df80476353258f72a232547d63]
class AbstractList--><rect codeLine="2" fill="#FEFECE" filter="url(#f681wl4q61tf3)" height="48" id="AbstractList" style="stroke:#A80036;stroke-width:1.5;" width="95" x="172.5" y="175"/><ellipse cx="187.5" cy="191" fill="#A9DCDF" rx="11" ry="11" style="stroke:#A80036;stroke-width:1.0;"/><path d="M188.4531,194.6563 Q188.4531,194.1563 188.7344,193.9844 Q189.0313,193.7969 189.5781,193.7969 L189.9688,193.7969 L189.5781,192.8125 L185.5313,192.8125 L185.1406,193.7969 L185.5313,193.7969 Q186.6406,193.7969 186.6406,194.6563 Q186.6406,195.5 185.5313,195.5 L183.2656,195.5 Q182.1406,195.5 182.1406,194.6563 Q182.1406,194.1406 182.4375,193.9688 Q182.7344,193.7969 183.2813,193.7969 L185.9219,187.2813 L184.8438,187.2813 Q183.7031,187.2813 183.7031,186.4375 Q183.7031,185.9219 184,185.7656 Q184.2969,185.5938 184.8438,185.5938 L188.5156,185.5938 L191.9063,193.7969 Q193.0625,193.7969 193.0625,194.6563 Q193.0625,195.5 191.9375,195.5 L189.5781,195.5 Q188.4531,195.5 188.4531,194.6563 Z M188.875,191.1094 L187.5469,187.8438 L186.2031,191.1094 L188.875,191.1094 Z " fill="#000000"/><text fill="#000000" font-family="sans-serif" font-size="12" font-style="italic" lengthAdjust="spacing" textLength="63" x="201.5" y="195.8">AbstractList</text><line style="stroke:#A80036;stroke-width:1.5;" x1="173.5" x2="266.5" y1="207" y2="207"/><line style="stroke:#A80036;stroke-width:1.5;" x1="173.5" x2="266.5" y1="215" y2="215"/><!--MD5=[8e34b16d8d8f96f4a11290cd523ed859]
class AbstractCollection--><rect codeLine="3" fill="#FEFECE" filter="url(#f681wl4q61tf3)" height="48" id="AbstractCollection" style="stroke:#A80036;stroke-width:1.5;" width="130" x="7" y="175"/><ellipse cx="22" cy="191" fill="#A9DCDF" rx="11" ry="11" style="stroke:#A80036;stroke-width:1.0;"/><path d="M22.9531,194.6563 Q22.9531,194.1563 23.2344,193.9844 Q23.5313,193.7969 24.0781,193.7969 L24.4688,193.7969 L24.0781,192.8125 L20.0313,192.8125 L19.6406,193.7969 L20.0313,193.7969 Q21.1406,193.7969 21.1406,194.6563 Q21.1406,195.5 20.0313,195.5 L17.7656,195.5 Q16.6406,195.5 16.6406,194.6563 Q16.6406,194.1406 16.9375,193.9688 Q17.2344,193.7969 17.7813,193.7969 L20.4219,187.2813 L19.3438,187.2813 Q18.2031,187.2813 18.2031,186.4375 Q18.2031,185.9219 18.5,185.7656 Q18.7969,185.5938 19.3438,185.5938 L23.0156,185.5938 L26.4063,193.7969 Q27.5625,193.7969 27.5625,194.6563 Q27.5625,195.5 26.4375,195.5 L24.0781,195.5 Q22.9531,195.5 22.9531,194.6563 Z M23.375,191.1094 L22.0469,187.8438 L20.7031,191.1094 L23.375,191.1094 Z " fill="#000000"/><text fill="#000000" font-family="sans-serif" font-size="12" font-style="italic" lengthAdjust="spacing" textLength="98" x="36" y="195.8">AbstractCollection</text><line style="stroke:#A80036;stroke-width:1.5;" x1="8" x2="136" y1="207" y2="207"/><line style="stroke:#A80036;stroke-width:1.5;" x1="8" x2="136" y1="215" y2="215"/><!--MD5=[3d4177ac58b4411586d067f34e84928f]
class List--><rect codeLine="4" fill="#FEFECE" filter="url(#f681wl4q61tf3)" height="48" id="List" style="stroke:#A80036;stroke-width:1.5;" width="51" x="172.5" y="27"/><ellipse cx="187.5" cy="43" fill="#B4A7E5" rx="11" ry="11" style="stroke:#A80036;stroke-width:1.0;"/><path d="M190.1719,46.2969 Q190.7188,46.2969 191,46.4844 Q191.2813,46.6563 191.2813,47.1563 Q191.2813,48 190.1719,48 L185.0313,48 Q183.9063,48 183.9063,47.1563 Q183.9063,46.6563 184.1875,46.4844 Q184.4844,46.2969 185.0313,46.2969 L186.75,46.2969 L186.75,39.7813 L185.0313,39.7813 Q183.9063,39.7813 183.9063,38.9375 Q183.9063,38.4531 184.1875,38.2813 Q184.4844,38.0938 185.0313,38.0938 L190.1719,38.0938 Q190.7188,38.0938 191,38.2813 Q191.2813,38.4531 191.2813,38.9375 Q191.2813,39.7813 190.1719,39.7813 L188.4531,39.7813 L188.4531,46.2969 L190.1719,46.2969 Z " fill="#000000"/><text fill="#000000" font-family="sans-serif" font-size="12" font-style="italic" lengthAdjust="spacing" textLength="19" x="201.5" y="47.8">List</text><line style="stroke:#A80036;stroke-width:1.5;" x1="173.5" x2="222.5" y1="59" y2="59"/><line style="stroke:#A80036;stroke-width:1.5;" x1="173.5" x2="222.5" y1="67" y2="67"/><!--MD5=[c160724f8e3bb89ca8141a12554ac2e3]
class Collection--><rect codeLine="5" fill="#FEFECE" filter="url(#f681wl4q61tf3)" height="48" id="Collection" style="stroke:#A80036;stroke-width:1.5;" width="86" x="40" y="27"/><ellipse cx="55" cy="43" fill="#B4A7E5" rx="11" ry="11" style="stroke:#A80036;stroke-width:1.0;"/><path d="M57.6719,46.2969 Q58.2188,46.2969 58.5,46.4844 Q58.7813,46.6563 58.7813,47.1563 Q58.7813,48 57.6719,48 L52.5313,48 Q51.4063,48 51.4063,47.1563 Q51.4063,46.6563 51.6875,46.4844 Q51.9844,46.2969 52.5313,46.2969 L54.25,46.2969 L54.25,39.7813 L52.5313,39.7813 Q51.4063,39.7813 51.4063,38.9375 Q51.4063,38.4531 51.6875,38.2813 Q51.9844,38.0938 52.5313,38.0938 L57.6719,38.0938 Q58.2188,38.0938 58.5,38.2813 Q58.7813,38.4531 58.7813,38.9375 Q58.7813,39.7813 57.6719,39.7813 L55.9531,39.7813 L55.9531,46.2969 L57.6719,46.2969 Z " fill="#000000"/><text fill="#000000" font-family="sans-serif" font-size="12" font-style="italic" lengthAdjust="spacing" textLength="54" x="69" y="47.8">Collection</text><line style="stroke:#A80036;stroke-width:1.5;" x1="41" x2="125" y1="59" y2="59"/><line style="stroke:#A80036;stroke-width:1.5;" x1="41" x2="125" y1="67" y2="67"/><!--MD5=[ab8871ed637f40707b866ba6597734bc]
class ArrayList--><rect codeLine="14" fill="#FEFECE" filter="url(#f681wl4q61tf3)" height="74.3998" id="ArrayList" style="stroke:#A80036;stroke-width:1.5;" width="115" x="162.5" y="303"/><ellipse cx="193.25" cy="319" fill="#ADD1B2" rx="11" ry="11" style="stroke:#A80036;stroke-width:1.0;"/><path d="M192.6094,322.7813 Q193.4063,322.7813 193.9688,322.5938 Q194.5469,322.3906 194.7813,322.1719 Q195.0313,321.9375 195.2656,321.75 Q195.5156,321.5469 195.7344,321.5469 Q196.0781,321.5469 196.3281,321.8125 Q196.5938,322.0625 196.5938,322.3906 Q196.5938,323.125 195.4219,323.8125 Q194.2656,324.4844 192.5625,324.4844 Q190.4063,324.4844 188.9844,323.2188 Q187.5625,321.9531 187.5625,320.0156 L187.5625,318.8906 Q187.5625,316.8594 188.8906,315.4844 Q190.2188,314.0938 192.1875,314.0938 Q193.375,314.0938 194.5938,314.6719 L194.7656,314.75 Q195.0625,314.3438 195.4844,314.3438 Q195.9688,314.3438 196.1406,314.6406 Q196.3281,314.9219 196.3281,315.4688 L196.3281,316.8906 Q196.3281,318.0156 195.4844,318.0156 Q195.1719,318.0156 194.9688,317.8438 Q194.7813,317.6719 194.7344,317.5313 Q194.7031,317.375 194.6563,317.1094 Q194.5469,316.5938 194.0313,316.2813 Q193.5156,315.9688 193.0625,315.8906 Q192.625,315.7969 192.25,315.7969 Q190.9688,315.7969 190.1094,316.6719 Q189.2656,317.5469 189.2656,318.8906 L189.2656,319.9844 Q189.2656,321.2656 190.1719,322.0313 Q191.0781,322.7813 192.6094,322.7813 Z " fill="#000000"/><text fill="#000000" font-family="sans-serif" font-size="12" lengthAdjust="spacing" textLength="48" x="210.75" y="323.8">ArrayList</text><line style="stroke:#A80036;stroke-width:1.5;" x1="163.5" x2="276.5" y1="335" y2="335"/><text fill="#000000" font-family="sans-serif" font-size="11" lengthAdjust="spacing" textLength="103" x="168.5" y="349.9999">Object[] elementData</text><line style="stroke:#A80036;stroke-width:1.5;" x1="163.5" x2="276.5" y1="356.1999" y2="356.1999"/><text fill="#000000" font-family="sans-serif" font-size="11" lengthAdjust="spacing" textLength="26" x="168.5" y="371.1998">size()</text><!--MD5=[15b68e006199004da79ea2a4d117d8e9]
class TimeUnit--><rect codeLine="19" fill="#FEFECE" filter="url(#f681wl4q61tf3)" height="87.5997" id="TimeUnit" style="stroke:#A80036;stroke-width:1.5;" width="80" x="329" y="7"/><ellipse cx="344" cy="23" fill="#EB937F" rx="11" ry="11" style="stroke:#A80036;stroke-width:1.0;"/><path d="M346.1563,25.4219 Q346.1563,24.2813 347,24.2813 Q347.8438,24.2813 347.8438,25.4219 L347.8438,28 L339.8438,28 Q338.7188,28 338.7188,27.1563 Q338.7188,26.2969 339.8438,26.2969 L340.0938,26.2969 L340.0938,19.7813 L339.8438,19.7813 Q338.7188,19.7813 338.7188,18.9375 Q338.7188,18.4531 339,18.2813 Q339.2969,18.0938 339.8438,18.0938 L347.4688,18.0938 L347.4688,20.6406 Q347.4688,21.7813 346.625,21.7813 Q345.7813,21.7813 345.7813,20.6406 L345.7813,19.7813 L341.7969,19.7813 L341.7969,22.1875 L343.25,22.1875 L343.25,22.0625 Q343.25,20.9219 344.0781,20.9219 Q344.9219,20.9219 344.9219,22.0625 L344.9219,23.9844 Q344.9219,25.1094 344.0938,25.1094 Q343.25,25.1094 343.25,23.9844 L343.25,23.875 L341.7969,23.875 L341.7969,26.2969 L346.1563,26.2969 L346.1563,25.4219 Z " fill="#000000"/><text fill="#000000" font-family="sans-serif" font-size="12" lengthAdjust="spacing" textLength="48" x="358" y="27.8">TimeUnit</text><line style="stroke:#A80036;stroke-width:1.5;" x1="330" x2="408" y1="39" y2="39"/><text fill="#000000" font-family="sans-serif" font-size="11" lengthAdjust="spacing" textLength="29" x="335" y="53.9999">DAYS</text><text fill="#000000" font-family="sans-serif" font-size="11" lengthAdjust="spacing" textLength="40" x="335" y="67.1998">HOURS</text><text fill="#000000" font-family="sans-serif" font-size="11" lengthAdjust="spacing" textLength="49" x="335" y="80.3997">MINUTES</text><line style="stroke:#A80036;stroke-width:1.5;" x1="330" x2="408" y1="86.5997" y2="86.5997"/><!--MD5=[0c8287f799745f7b534bf75518604c1e]
class SuppressWarnings--><rect codeLine="25" fill="#FEFECE" filter="url(#f681wl4q61tf3)" height="48" id="SuppressWarnings" style="stroke:#A80036;stroke-width:1.5;" width="132" x="444" y="27"/><ellipse cx="459" cy="43" fill="#E3664A" rx="11" ry="11" style="stroke:#A80036;stroke-width:1.0;"/><path d="M458.1406,49.5781 Q457.25,49.5781 456.5469,49.2188 Q455.8594,48.875 455.4531,48.3281 Q455.0469,47.7813 454.7656,47.0625 Q454.5,46.3438 454.3906,45.6875 Q454.2969,45.0313 454.2969,44.375 L454.2969,41.5156 Q454.2969,39.3125 455.375,37.8906 Q456.4531,36.4531 458.1094,36.4531 Q459.5,36.4531 460.375,37.375 Q461.2656,38.2969 461.2656,39.7031 L461.2656,44.4844 Q461.6563,44.6563 461.6563,45.0781 Q461.6563,45.7813 460.7188,45.7813 L459.9219,45.7813 L459.9219,45.7188 Q459.5313,45.7813 459.3594,45.7813 Q458.2656,45.7813 457.4844,45 Q456.7031,44.2188 456.7031,43.1563 Q456.7031,41.9688 457.5938,41.1719 Q458.4844,40.3594 459.9219,40.25 L459.9219,39.7031 Q459.9219,38.8594 459.4219,38.3281 Q458.9219,37.7969 458.1406,37.7969 Q457.0625,37.7969 456.3438,38.8906 Q455.6406,39.9844 455.6406,41.6094 L455.6406,44.2656 Q455.6406,44.9063 455.75,45.5469 Q455.875,46.1875 456.1406,46.8281 Q456.4063,47.4688 456.9219,47.8594 Q457.4531,48.2656 458.1875,48.2656 Q458.7656,48.2656 459.1719,48.125 Q459.5938,48 459.7656,47.8438 Q459.9375,47.6875 460.1094,47.5469 Q460.2969,47.4219 460.4688,47.4219 Q460.75,47.4219 460.9375,47.625 Q461.1406,47.8281 461.1406,48.125 Q461.1406,48.7188 460.25,49.1406 Q459.3594,49.5781 458.1406,49.5781 Z M459.9219,44.3594 L459.9219,41.625 Q459.0625,41.7188 458.5469,42.1406 Q458.0469,42.5469 458.0469,43.1719 Q458.0469,43.7031 458.4531,44.0625 Q458.8594,44.4063 459.4844,44.4063 Q459.6875,44.4063 459.9219,44.3594 Z " fill="#000000"/><text fill="#000000" font-family="sans-serif" font-size="12" lengthAdjust="spacing" textLength="100" x="473" y="47.8">SuppressWarnings</text><line style="stroke:#A80036;stroke-width:1.5;" x1="445" x2="575" y1="59" y2="59"/><line style="stroke:#A80036;stroke-width:1.5;" x1="445" x2="575" y1="67" y2="67"/><!--MD5=[faebc81c07309c527f2fda51bf6b78ab]
class Annotation--><rect codeLine="27" fill="#FEFECE" filter="url(#f681wl4q61tf3)" height="87.5997" id="Annotation" style="stroke:#A80036;stroke-width:1.5;" width="132" x="303" y="155"/><ellipse cx="338.7" cy="171" fill="#E3664A" rx="11" ry="11" style="stroke:#A80036;stroke-width:1.0;"/><path d="M337.8406,177.5781 Q336.95,177.5781 336.2469,177.2188 Q335.5594,176.875 335.1531,176.3281 Q334.7469,175.7813 334.4656,175.0625 Q334.2,174.3438 334.0906,173.6875 Q333.9969,173.0313 333.9969,172.375 L333.9969,169.5156 Q333.9969,167.3125 335.075,165.8906 Q336.1531,164.4531 337.8094,164.4531 Q339.2,164.4531 340.075,165.375 Q340.9656,166.2969 340.9656,167.7031 L340.9656,172.4844 Q341.3563,172.6563 341.3563,173.0781 Q341.3563,173.7813 340.4188,173.7813 L339.6219,173.7813 L339.6219,173.7188 Q339.2313,173.7813 339.0594,173.7813 Q337.9656,173.7813 337.1844,173 Q336.4031,172.2188 336.4031,171.1563 Q336.4031,169.9688 337.2938,169.1719 Q338.1844,168.3594 339.6219,168.25 L339.6219,167.7031 Q339.6219,166.8594 339.1219,166.3281 Q338.6219,165.7969 337.8406,165.7969 Q336.7625,165.7969 336.0438,166.8906 Q335.3406,167.9844 335.3406,169.6094 L335.3406,172.2656 Q335.3406,172.9063 335.45,173.5469 Q335.575,174.1875 335.8406,174.8281 Q336.1063,175.4688 336.6219,175.8594 Q337.1531,176.2656 337.8875,176.2656 Q338.4656,176.2656 338.8719,176.125 Q339.2938,176 339.4656,175.8438 Q339.6375,175.6875 339.8094,175.5469 Q339.9969,175.4219 340.1688,175.4219 Q340.45,175.4219 340.6375,175.625 Q340.8406,175.8281 340.8406,176.125 Q340.8406,176.7188 339.95,177.1406 Q339.0594,177.5781 337.8406,177.5781 Z M339.6219,172.3594 L339.6219,169.625 Q338.7625,169.7188 338.2469,170.1406 Q337.7469,170.5469 337.7469,171.1719 Q337.7469,171.7031 338.1531,172.0625 Q338.5594,172.4063 339.1844,172.4063 Q339.3875,172.4063 339.6219,172.3594 Z " fill="#000000"/><text fill="#000000" font-family="sans-serif" font-size="12" lengthAdjust="spacing" textLength="54" x="357.3" y="175.8">Annotation</text><line style="stroke:#A80036;stroke-width:1.5;" x1="304" x2="434" y1="187" y2="187"/><text fill="#000000" font-family="sans-serif" font-size="11" lengthAdjust="spacing" textLength="120" x="309" y="201.9999">annotation with members</text><line style="stroke:#A80036;stroke-width:1.5;" x1="304" x2="434" y1="208.1999" y2="208.1999"/><text fill="#000000" font-family="sans-serif" font-size="11" lengthAdjust="spacing" textLength="54" x="309" y="223.1998">String foo()</text><text fill="#000000" font-family="sans-serif" font-size="11" lengthAdjust="spacing" textLength="55" x="309" y="236.3997">String bar()</text><!--MD5=[00308d07b6a5721fb0cf5861877e6652]
reverse link List to AbstractList--><path codeLine="7" d="M204.52,95.27 C208.46,121.39 213.32,153.65 216.53,174.97 " fill="none" id="List-backto-AbstractList" style="stroke:#A80036;stroke-width:1.0;"/><polygon fill="none" points="197.54,95.95,201.49,75.13,211.39,93.87,197.54,95.95" style="stroke:#A80036;stroke-width:1.0;"/><!--MD5=[1822909749df1453bdd84de7a60a3406]
reverse link Collection to AbstractCollection--><path codeLine="8" d="M79.74,95.27 C77.77,121.39 75.34,153.65 73.73,174.97 " fill="none" id="Collection-backto-AbstractCollection" style="stroke:#A80036;stroke-width:1.0;"/><polygon fill="none" points="72.77,94.55,81.26,75.13,86.73,95.6,72.77,94.55" style="stroke:#A80036;stroke-width:1.0;"/><!--MD5=[0159284274f96a472eb2618ad803aaca]
reverse link Collection to List--><path codeLine="10" d="M146.39,51 C155.08,51 163.76,51 172.45,51 " fill="none" id="Collection-backto-List" style="stroke:#A80036;stroke-width:1.0;"/><polygon fill="none" points="146.13,58,126.12,51,146.12,44,146.13,58" style="stroke:#A80036;stroke-width:1.0;"/><!--MD5=[7a3a52e8f65ef1a8d8d29530ea5cd870]
reverse link AbstractCollection to AbstractList--><path codeLine="11" d="M157.18,199 C162.24,199 167.3,199 172.36,199 " fill="none" id="AbstractCollection-backto-AbstractList" style="stroke:#A80036;stroke-width:1.0;"/><polygon fill="none" points="157.04,206,137.04,199,157.04,192,157.04,206" style="stroke:#A80036;stroke-width:1.0;"/><!--MD5=[40e4bb1af59cca28d4643aaff05088cc]
reverse link AbstractList to ArrayList--><path codeLine="12" d="M220,243.48 C220,262.56 220,284.69 220,302.84 " fill="none" id="AbstractList-backto-ArrayList" style="stroke:#A80036;stroke-width:1.0;"/><polygon fill="none" points="213,243.27,220,223.27,227,243.27,213,243.27" style="stroke:#A80036;stroke-width:1.0;"/><!--MD5=[15ba339f95e55e255aeb8f9acd97a0d0]
link TimeUnit to SuppressWarnings--><!--MD5=[182cfeef173068f0bfc9dc722a1d88d2]
link TimeUnit to Annotation--><!--MD5=[2c7c2ffe100b84cbfb0aec6647b0b0ca]
@startuml

abstract class AbstractList
abstract AbstractCollection
interface List
interface Collection

List <|- - AbstractList
Collection <|- - AbstractCollection

Collection <|- List
AbstractCollection <|- AbstractList
AbstractList <|- - ArrayList

class ArrayList {
  Object[] elementData
  size()
}

enum TimeUnit {
  DAYS
  HOURS
  MINUTES
}

annotation SuppressWarnings

annotation Annotation {
  annotation with members
  String foo()
  String bar()
}


@enduml

PlantUML version 1.2021.16(Wed Dec 08 17:25:22 GMT 2021)
(GPL source distribution)
Java Runtime: OpenJDK Runtime Environment
JVM: OpenJDK 64-Bit Server VM
Default Encoding: UTF-8
Language: en
Country: US
--></g></svg>