<?xml version="1.0" encoding="UTF-8" standalone="no"?>
<!DOCTYPE svg PUBLIC "-//W3C//DTD SVG 1.1//EN"
 "http://www.w3.org/Graphics/SVG/1.1/DTD/svg11.dtd">
<!-- Generated by graphviz version 2.44.0 ()
 -->
<!-- Pages: 1 -->
<svg width="1357pt" height="660pt"
 viewBox="0.00 0.00 1357.00 660.00" xmlns="http://www.w3.org/2000/svg" xmlns:xlink="http://www.w3.org/1999/xlink">
<g id="graph0" class="graph" transform="scale(1 1) rotate(0) translate(4 656)">
<polygon fill="white" stroke="transparent" points="-4,4 -4,-656 1353,-656 1353,4 -4,4"/>
<text text-anchor="start" x="8" y="-632" font-family="Times,serif" font-size="20.00">nfldb Entity&#45;Relationship diagram (condensed)</text>
<!-- player -->
<g id="node1" class="node">
<title>player</title>
<polygon fill="#d0e0d0" stroke="transparent" points="628,-324.5 628,-477.5 818,-477.5 818,-324.5 628,-324.5"/>
<polygon fill="none" stroke="black" points="628,-449 628,-477 818,-477 818,-449 628,-449"/>
<text text-anchor="start" x="699" y="-460.2" font-family="Helvetica,sans-Serif" font-weight="bold" font-size="16.00">player</text>
<polygon fill="none" stroke="black" points="628,-424 628,-449 818,-449 818,-424 628,-424"/>
<text text-anchor="start" x="633" y="-433.8" font-family="Helvetica,sans-Serif" text-decoration="underline" font-size="14.00">player_id</text>
<text text-anchor="start" x="688" y="-433.8" font-family="Helvetica,sans-Serif" font-size="14.00"> [varchar, not null]</text>
<polygon fill="none" stroke="black" points="628,-399 628,-424 818,-424 818,-399 628,-399"/>
<text text-anchor="start" x="633" y="-408.8" font-family="Helvetica,sans-Serif" font-size="14.00">full_name</text>
<text text-anchor="start" x="692" y="-408.8" font-family="Helvetica,sans-Serif" font-size="14.00"> [varchar, null]</text>
<polygon fill="none" stroke="black" points="628,-374 628,-399 818,-399 818,-374 628,-374"/>
<text text-anchor="start" x="633" y="-383.8" font-family="Helvetica,sans-Serif" font-size="14.00">team</text>
<text text-anchor="start" x="664" y="-383.8" font-family="Helvetica,sans-Serif" font-size="14.00"> [varchar, not null]</text>
<polygon fill="none" stroke="black" points="628,-349 628,-374 818,-374 818,-349 628,-349"/>
<text text-anchor="start" x="633" y="-358.8" font-family="Helvetica,sans-Serif" font-size="14.00">position</text>
<text text-anchor="start" x="680" y="-358.8" font-family="Helvetica,sans-Serif" font-size="14.00"> [player_pos, not null]</text>
<polygon fill="none" stroke="black" points="628,-324 628,-349 818,-349 818,-324 628,-324"/>
<text text-anchor="start" x="633" y="-333.8" font-family="Helvetica,sans-Serif" font-size="14.00">status</text>
<text text-anchor="start" x="670" y="-333.8" font-family="Helvetica,sans-Serif" font-size="14.00"> [player_status, not null]</text>
</g>
<!-- team -->
<g id="node2" class="node">
<title>team</title>
<polygon fill="#d0e0d0" stroke="transparent" points="1174,-430.5 1174,-533.5 1341,-533.5 1341,-430.5 1174,-430.5"/>
<polygon fill="none" stroke="black" points="1174.5,-505 1174.5,-533 1341.5,-533 1341.5,-505 1174.5,-505"/>
<text text-anchor="start" x="1239" y="-516.2" font-family="Helvetica,sans-Serif" font-weight="bold" font-size="16.00">team</text>
<polygon fill="none" stroke="black" points="1174.5,-480 1174.5,-505 1341.5,-505 1341.5,-480 1174.5,-480"/>
<text text-anchor="start" x="1179.5" y="-489.8" font-family="Helvetica,sans-Serif" text-decoration="underline" font-size="14.00">team_id</text>
<text text-anchor="start" x="1228.5" y="-489.8" font-family="Helvetica,sans-Serif" font-size="14.00"> [varchar, not null]</text>
<polygon fill="none" stroke="black" points="1174.5,-455 1174.5,-480 1341.5,-480 1341.5,-455 1174.5,-455"/>
<text text-anchor="start" x="1179.5" y="-464.8" font-family="Helvetica,sans-Serif" font-size="14.00">city</text>
<text text-anchor="start" x="1200.5" y="-464.8" font-family="Helvetica,sans-Serif" font-size="14.00"> [varchar, not null]</text>
<polygon fill="none" stroke="black" points="1174.5,-430 1174.5,-455 1341.5,-455 1341.5,-430 1174.5,-430"/>
<text text-anchor="start" x="1179.5" y="-439.8" font-family="Helvetica,sans-Serif" font-size="14.00">name</text>
<text text-anchor="start" x="1213.5" y="-439.8" font-family="Helvetica,sans-Serif" font-size="14.00"> [varchar, not null]</text>
</g>
<!-- player&#45;&#45;team -->
<g id="edge1" class="edge">
<title>player&#45;&#45;team</title>
<path fill="none" stroke="#7f7f7f" stroke-dasharray="5,2" d="M826.04,-425.41C838.43,-427.01 850.95,-428 863,-428 863,-428 863,-428 1129,-428 1141.26,-428 1153.7,-430.14 1165.75,-433.58"/>
<text text-anchor="start" x="1158.75" y="-422.38" font-family="Times,serif" font-size="14.00">1</text>
<text text-anchor="start" x="826.04" y="-414.21" font-family="Times,serif" font-size="14.00">0..N</text>
</g>
<!-- play_player -->
<g id="node6" class="node">
<title>play_player</title>
<polygon fill="#ececfc" stroke="transparent" points="909,-215.5 909,-368.5 1083,-368.5 1083,-215.5 909,-215.5"/>
<polygon fill="none" stroke="black" points="909,-340 909,-368 1083,-368 1083,-340 909,-340"/>
<text text-anchor="start" x="951.5" y="-351.2" font-family="Helvetica,sans-Serif" font-weight="bold" font-size="16.00">play_player</text>
<polygon fill="none" stroke="black" points="909,-315 909,-340 1083,-340 1083,-315 909,-315"/>
<text text-anchor="start" x="914" y="-324.8" font-family="Helvetica,sans-Serif" font-style="italic" text-decoration="underline" font-size="14.00">gsis_id</text>
<text text-anchor="start" x="957" y="-324.8" font-family="Helvetica,sans-Serif" font-size="14.00"> [gameid, not null]</text>
<polygon fill="none" stroke="black" points="909,-290 909,-315 1083,-315 1083,-290 909,-290"/>
<text text-anchor="start" x="914" y="-299.8" font-family="Helvetica,sans-Serif" font-style="italic" text-decoration="underline" font-size="14.00">drive_id</text>
<text text-anchor="start" x="962" y="-299.8" font-family="Helvetica,sans-Serif" font-size="14.00"> [usmallint, not null]</text>
<polygon fill="none" stroke="black" points="909,-265 909,-290 1083,-290 1083,-265 909,-265"/>
<text text-anchor="start" x="914" y="-274.8" font-family="Helvetica,sans-Serif" font-style="italic" text-decoration="underline" font-size="14.00">play_id</text>
<text text-anchor="start" x="958" y="-274.8" font-family="Helvetica,sans-Serif" font-size="14.00"> [usmallint, not null]</text>
<polygon fill="none" stroke="black" points="909,-240 909,-265 1083,-265 1083,-240 909,-240"/>
<text text-anchor="start" x="914" y="-249.8" font-family="Helvetica,sans-Serif" font-style="italic" text-decoration="underline" font-size="14.00">player_id</text>
<text text-anchor="start" x="970" y="-249.8" font-family="Helvetica,sans-Serif" font-size="14.00"> [varchar, not null]</text>
<polygon fill="none" stroke="black" points="909,-215 909,-240 1083,-240 1083,-215 909,-215"/>
<text text-anchor="start" x="914" y="-224.8" font-family="Helvetica,sans-Serif" font-size="14.00">team</text>
<text text-anchor="start" x="945" y="-224.8" font-family="Helvetica,sans-Serif" font-size="14.00"> [varchar, not null]</text>
</g>
<!-- player&#45;&#45;play_player -->
<g id="edge13" class="edge">
<title>player&#45;&#45;play_player</title>
<path fill="none" stroke="#7f7f7f" stroke-dasharray="5,2" d="M826.07,-359.95C850.52,-350.11 876.53,-339.65 900.62,-329.96"/>
<text text-anchor="start" x="875.62" y="-318.76" font-family="Times,serif" font-size="14.00">0..N</text>
<text text-anchor="start" x="826.07" y="-348.75" font-family="Times,serif" font-size="14.00">1</text>
</g>
<!-- game -->
<g id="node3" class="node">
<title>game</title>
<polygon fill="#ececfc" stroke="transparent" points="8,-153 8,-431 246,-431 246,-153 8,-153"/>
<polygon fill="none" stroke="black" points="8,-403 8,-431 246,-431 246,-403 8,-403"/>
<text text-anchor="start" x="105.5" y="-414.2" font-family="Helvetica,sans-Serif" font-weight="bold" font-size="16.00">game</text>
<polygon fill="none" stroke="black" points="8,-378 8,-403 246,-403 246,-378 8,-378"/>
<text text-anchor="start" x="13" y="-387.8" font-family="Helvetica,sans-Serif" text-decoration="underline" font-size="14.00">gsis_id</text>
<text text-anchor="start" x="56" y="-387.8" font-family="Helvetica,sans-Serif" font-size="14.00"> [gameid, not null]</text>
<polygon fill="none" stroke="black" points="8,-353 8,-378 246,-378 246,-353 8,-353"/>
<text text-anchor="start" x="13" y="-362.8" font-family="Helvetica,sans-Serif" font-size="14.00">start_time</text>
<text text-anchor="start" x="73" y="-362.8" font-family="Helvetica,sans-Serif" font-size="14.00"> [utctime, not null]</text>
<polygon fill="none" stroke="black" points="8,-328 8,-353 246,-353 246,-328 8,-328"/>
<text text-anchor="start" x="13" y="-337.8" font-family="Helvetica,sans-Serif" font-size="14.00">week</text>
<text text-anchor="start" x="46" y="-337.8" font-family="Helvetica,sans-Serif" font-size="14.00"> [usmallint, not null]</text>
<polygon fill="none" stroke="black" points="8,-303 8,-328 246,-328 246,-303 8,-303"/>
<text text-anchor="start" x="13" y="-312.8" font-family="Helvetica,sans-Serif" font-size="14.00">season_year</text>
<text text-anchor="start" x="91" y="-312.8" font-family="Helvetica,sans-Serif" font-size="14.00"> [usmallint, not null]</text>
<polygon fill="none" stroke="black" points="8,-278 8,-303 246,-303 246,-278 8,-278"/>
<text text-anchor="start" x="13" y="-287.8" font-family="Helvetica,sans-Serif" font-size="14.00">season_type</text>
<text text-anchor="start" x="90" y="-287.8" font-family="Helvetica,sans-Serif" font-size="14.00"> [season_phase, not null]</text>
<polygon fill="none" stroke="black" points="8,-253 8,-278 246,-278 246,-253 8,-253"/>
<text text-anchor="start" x="13" y="-262.8" font-family="Helvetica,sans-Serif" font-size="14.00">finished</text>
<text text-anchor="start" x="60" y="-262.8" font-family="Helvetica,sans-Serif" font-size="14.00"> [boolean, not null]</text>
<polygon fill="none" stroke="black" points="8,-228 8,-253 246,-253 246,-228 8,-228"/>
<text text-anchor="start" x="13" y="-237.8" font-family="Helvetica,sans-Serif" font-size="14.00">home_team</text>
<text text-anchor="start" x="85" y="-237.8" font-family="Helvetica,sans-Serif" font-size="14.00"> [varchar, not null]</text>
<polygon fill="none" stroke="black" points="8,-203 8,-228 246,-228 246,-203 8,-203"/>
<text text-anchor="start" x="13" y="-212.8" font-family="Helvetica,sans-Serif" font-size="14.00">home_score</text>
<text text-anchor="start" x="88" y="-212.8" font-family="Helvetica,sans-Serif" font-size="14.00"> [usmallint, not null]</text>
<polygon fill="none" stroke="black" points="8,-178 8,-203 246,-203 246,-178 8,-178"/>
<text text-anchor="start" x="13" y="-187.8" font-family="Helvetica,sans-Serif" font-size="14.00">away_team</text>
<text text-anchor="start" x="83" y="-187.8" font-family="Helvetica,sans-Serif" font-size="14.00"> [varchar, not null]</text>
<polygon fill="none" stroke="black" points="8,-153 8,-178 246,-178 246,-153 8,-153"/>
<text text-anchor="start" x="13" y="-162.8" font-family="Helvetica,sans-Serif" font-size="14.00">away_score</text>
<text text-anchor="start" x="86" y="-162.8" font-family="Helvetica,sans-Serif" font-size="14.00"> [usmallint, not null]</text>
</g>
<!-- game&#45;&#45;team -->
<g id="edge2" class="edge">
<title>game&#45;&#45;team</title>
<path fill="none" stroke="#7f7f7f" stroke-dasharray="5,2" d="M249.82,-435.11C251.29,-438.06 252.68,-441.02 254,-444 284.09,-511.92 216.71,-607 291,-607 291,-607 291,-607 1129,-607 1171.62,-607 1205.24,-570.94 1227.23,-537.55"/>
<text text-anchor="start" x="704" y="-610.8" font-family="Times,serif" font-size="14.00"> home </text>
<text text-anchor="start" x="1220.23" y="-541.35" font-family="Times,serif" font-size="14.00">1</text>
<text text-anchor="start" x="224.82" y="-438.91" font-family="Times,serif" font-size="14.00">0..N</text>
</g>
<!-- game&#45;&#45;team -->
<g id="edge3" class="edge">
<title>game&#45;&#45;team</title>
<path fill="none" stroke="#7f7f7f" stroke-dasharray="5,2" d="M248.84,-435.02C250.62,-438 252.34,-441 254,-444 279.39,-489.86 238.58,-556 291,-556 291,-556 291,-556 1129,-556 1150.37,-556 1171.36,-548.13 1189.95,-537.52"/>
<text text-anchor="start" x="705" y="-559.8" font-family="Times,serif" font-size="14.00"> away </text>
<text text-anchor="start" x="1182.95" y="-541.32" font-family="Times,serif" font-size="14.00">1</text>
<text text-anchor="start" x="248.84" y="-438.82" font-family="Times,serif" font-size="14.00">0..N</text>
</g>
<!-- drive -->
<g id="node4" class="node">
<title>drive</title>
<polygon fill="#ececfc" stroke="transparent" points="337,-178 337,-406 537,-406 537,-178 337,-178"/>
<polygon fill="none" stroke="black" points="337,-378 337,-406 537,-406 537,-378 337,-378"/>
<text text-anchor="start" x="417.5" y="-389.2" font-family="Helvetica,sans-Serif" font-weight="bold" font-size="16.00">drive</text>
<polygon fill="none" stroke="black" points="337,-353 337,-378 537,-378 537,-353 337,-353"/>
<text text-anchor="start" x="342" y="-362.8" font-family="Helvetica,sans-Serif" font-style="italic" text-decoration="underline" font-size="14.00">gsis_id</text>
<text text-anchor="start" x="385" y="-362.8" font-family="Helvetica,sans-Serif" font-size="14.00"> [gameid, not null]</text>
<polygon fill="none" stroke="black" points="337,-328 337,-353 537,-353 537,-328 337,-328"/>
<text text-anchor="start" x="342" y="-337.8" font-family="Helvetica,sans-Serif" text-decoration="underline" font-size="14.00">drive_id</text>
<text text-anchor="start" x="390" y="-337.8" font-family="Helvetica,sans-Serif" font-size="14.00"> [usmallint, not null]</text>
<polygon fill="none" stroke="black" points="337,-303 337,-328 537,-328 537,-303 337,-303"/>
<text text-anchor="start" x="342" y="-312.8" font-family="Helvetica,sans-Serif" font-size="14.00">start_field</text>
<text text-anchor="start" x="401" y="-312.8" font-family="Helvetica,sans-Serif" font-size="14.00"> [field_pos, null]</text>
<polygon fill="none" stroke="black" points="337,-278 337,-303 537,-303 537,-278 337,-278"/>
<text text-anchor="start" x="342" y="-287.8" font-family="Helvetica,sans-Serif" font-size="14.00">start_time</text>
<text text-anchor="start" x="402" y="-287.8" font-family="Helvetica,sans-Serif" font-size="14.00"> [game_time, not null]</text>
<polygon fill="none" stroke="black" points="337,-253 337,-278 537,-278 537,-253 337,-253"/>
<text text-anchor="start" x="342" y="-262.8" font-family="Helvetica,sans-Serif" font-size="14.00">end_field</text>
<text text-anchor="start" x="397" y="-262.8" font-family="Helvetica,sans-Serif" font-size="14.00"> [field_pos, null]</text>
<polygon fill="none" stroke="black" points="337,-228 337,-253 537,-253 537,-228 337,-228"/>
<text text-anchor="start" x="342" y="-237.8" font-family="Helvetica,sans-Serif" font-size="14.00">end_time</text>
<text text-anchor="start" x="398" y="-237.8" font-family="Helvetica,sans-Serif" font-size="14.00"> [game_time, not null]</text>
<polygon fill="none" stroke="black" points="337,-203 337,-228 537,-228 537,-203 337,-203"/>
<text text-anchor="start" x="342" y="-212.8" font-family="Helvetica,sans-Serif" font-size="14.00">pos_team</text>
<text text-anchor="start" x="402" y="-212.8" font-family="Helvetica,sans-Serif" font-size="14.00"> [varchar, not null]</text>
<polygon fill="none" stroke="black" points="337,-178 337,-203 537,-203 537,-178 337,-178"/>
<text text-anchor="start" x="342" y="-187.8" font-family="Helvetica,sans-Serif" font-size="14.00">pos_time</text>
<text text-anchor="start" x="397" y="-187.8" font-family="Helvetica,sans-Serif" font-size="14.00"> [pos_period, null]</text>
</g>
<!-- game&#45;&#45;drive -->
<g id="edge7" class="edge">
<title>game&#45;&#45;drive</title>
<path fill="none" stroke="#7f7f7f" stroke-dasharray="5,2" d="M254.16,-292C278.92,-292 304.66,-292 328.73,-292"/>
<text text-anchor="start" x="303.73" y="-280.8" font-family="Times,serif" font-size="14.00">0..N</text>
<text text-anchor="start" x="254.16" y="-280.8" font-family="Times,serif" font-size="14.00">1</text>
</g>
<!-- play -->
<g id="node5" class="node">
<title>play</title>
<polygon fill="#ececfc" stroke="transparent" points="634,-32 634,-260 812,-260 812,-32 634,-32"/>
<polygon fill="none" stroke="black" points="634,-232 634,-260 812,-260 812,-232 634,-232"/>
<text text-anchor="start" x="706.5" y="-243.2" font-family="Helvetica,sans-Serif" font-weight="bold" font-size="16.00">play</text>
<polygon fill="none" stroke="black" points="634,-207 634,-232 812,-232 812,-207 634,-207"/>
<text text-anchor="start" x="639" y="-216.8" font-family="Helvetica,sans-Serif" font-style="italic" text-decoration="underline" font-size="14.00">gsis_id</text>
<text text-anchor="start" x="682" y="-216.8" font-family="Helvetica,sans-Serif" font-size="14.00"> [gameid, not null]</text>
<polygon fill="none" stroke="black" points="634,-182 634,-207 812,-207 812,-182 634,-182"/>
<text text-anchor="start" x="639" y="-191.8" font-family="Helvetica,sans-Serif" font-style="italic" text-decoration="underline" font-size="14.00">drive_id</text>
<text text-anchor="start" x="687" y="-191.8" font-family="Helvetica,sans-Serif" font-size="14.00"> [usmallint, not null]</text>
<polygon fill="none" stroke="black" points="634,-157 634,-182 812,-182 812,-157 634,-157"/>
<text text-anchor="start" x="639" y="-166.8" font-family="Helvetica,sans-Serif" text-decoration="underline" font-size="14.00">play_id</text>
<text text-anchor="start" x="682" y="-166.8" font-family="Helvetica,sans-Serif" font-size="14.00"> [usmallint, not null]</text>
<polygon fill="none" stroke="black" points="634,-132 634,-157 812,-157 812,-132 634,-132"/>
<text text-anchor="start" x="639" y="-141.8" font-family="Helvetica,sans-Serif" font-size="14.00">time</text>
<text text-anchor="start" x="665" y="-141.8" font-family="Helvetica,sans-Serif" font-size="14.00"> [game_time, not null]</text>
<polygon fill="none" stroke="black" points="634,-107 634,-132 812,-132 812,-107 634,-107"/>
<text text-anchor="start" x="639" y="-116.8" font-family="Helvetica,sans-Serif" font-size="14.00">pos_team</text>
<text text-anchor="start" x="699" y="-116.8" font-family="Helvetica,sans-Serif" font-size="14.00"> [varchar, not null]</text>
<polygon fill="none" stroke="black" points="634,-82 634,-107 812,-107 812,-82 634,-82"/>
<text text-anchor="start" x="639" y="-91.8" font-family="Helvetica,sans-Serif" font-size="14.00">yardline</text>
<text text-anchor="start" x="687" y="-91.8" font-family="Helvetica,sans-Serif" font-size="14.00"> [field_pos, null]</text>
<polygon fill="none" stroke="black" points="634,-57 634,-82 812,-82 812,-57 634,-57"/>
<text text-anchor="start" x="639" y="-66.8" font-family="Helvetica,sans-Serif" font-size="14.00">down</text>
<text text-anchor="start" x="672" y="-66.8" font-family="Helvetica,sans-Serif" font-size="14.00"> [smallint, null]</text>
<polygon fill="none" stroke="black" points="634,-32 634,-57 812,-57 812,-32 634,-32"/>
<text text-anchor="start" x="639" y="-41.8" font-family="Helvetica,sans-Serif" font-size="14.00">yards_to_go</text>
<text text-anchor="start" x="714" y="-41.8" font-family="Helvetica,sans-Serif" font-size="14.00"> [smallint, null]</text>
</g>
<!-- game&#45;&#45;play -->
<g id="edge8" class="edge">
<title>game&#45;&#45;play</title>
<path fill="none" stroke="#7f7f7f" stroke-dasharray="5,2" d="M254.26,-152.94C265.9,-148.54 278.18,-146 291,-146 291,-146 291,-146 583,-146 596.88,-146 611.53,-146 625.92,-146"/>
<text text-anchor="start" x="600.92" y="-134.8" font-family="Times,serif" font-size="14.00">0..N</text>
<text text-anchor="start" x="254.26" y="-141.74" font-family="Times,serif" font-size="14.00">1</text>
</g>
<!-- game&#45;&#45;play_player -->
<g id="edge9" class="edge">
<title>game&#45;&#45;play_player</title>
<path fill="none" stroke="#7f7f7f" stroke-dasharray="5,2" d="M152.87,-148.99C174.83,-75.01 215.67,0 291,0 291,0 291,0 845,0 940.46,0 975.22,-125.01 987.84,-211.44"/>
<text text-anchor="start" x="962.84" y="-200.24" font-family="Times,serif" font-size="14.00">0..N</text>
<text text-anchor="start" x="145.87" y="-137.79" font-family="Times,serif" font-size="14.00">1</text>
</g>
<!-- drive&#45;&#45;team -->
<g id="edge4" class="edge">
<title>drive&#45;&#45;team</title>
<path fill="none" stroke="#7f7f7f" stroke-dasharray="5,2" d="M470.25,-410.25C492.09,-461.5 527.23,-510 582,-510 582,-510 582,-510 1129,-510 1141.01,-510 1153.51,-508.8 1165.79,-506.9"/>
<text text-anchor="start" x="1158.79" y="-495.7" font-family="Times,serif" font-size="14.00">1</text>
<text text-anchor="start" x="445.25" y="-414.05" font-family="Times,serif" font-size="14.00">0..N</text>
</g>
<!-- drive&#45;&#45;play -->
<g id="edge10" class="edge">
<title>drive&#45;&#45;play</title>
<path fill="none" stroke="#7f7f7f" stroke-dasharray="5,2" d="M545.37,-236.8C571.76,-223.24 599.85,-208.8 625.68,-195.52"/>
<text text-anchor="start" x="600.68" y="-184.32" font-family="Times,serif" font-size="14.00">0..N</text>
<text text-anchor="start" x="545.37" y="-225.6" font-family="Times,serif" font-size="14.00">1</text>
</g>
<!-- drive&#45;&#45;play_player -->
<g id="edge11" class="edge">
<title>drive&#45;&#45;play_player</title>
<path fill="none" stroke="#7f7f7f" stroke-dasharray="5,2" d="M545.34,-292C557.7,-292 570.12,-292 582,-292 582,-292 582,-292 864,-292 875.94,-292 888.49,-292 900.9,-292"/>
<text text-anchor="start" x="875.9" y="-280.8" font-family="Times,serif" font-size="14.00">0..N</text>
<text text-anchor="start" x="545.34" y="-280.8" font-family="Times,serif" font-size="14.00">1</text>
</g>
<!-- play&#45;&#45;team -->
<g id="edge5" class="edge">
<title>play&#45;&#45;team</title>
<path fill="none" stroke="#7f7f7f" stroke-dasharray="5,2" d="M820.3,-48.36C833.69,-41.96 848.03,-38 863,-38 863,-38 863,-38 1129,-38 1208.9,-38 1241.66,-306.97 1252.26,-426.22"/>
<text text-anchor="start" x="1245.26" y="-415.02" font-family="Times,serif" font-size="14.00">1</text>
<text text-anchor="start" x="820.3" y="-37.16" font-family="Times,serif" font-size="14.00">0..N</text>
</g>
<!-- play&#45;&#45;play_player -->
<g id="edge12" class="edge">
<title>play&#45;&#45;play_player</title>
<path fill="none" stroke="#7f7f7f" stroke-dasharray="5,2" d="M820.31,-197.89C846.47,-211.98 874.78,-227.23 900.82,-241.26"/>
<text text-anchor="start" x="875.82" y="-230.06" font-family="Times,serif" font-size="14.00">0..N</text>
<text text-anchor="start" x="820.31" y="-186.69" font-family="Times,serif" font-size="14.00">1</text>
</g>
<!-- play_player&#45;&#45;team -->
<g id="edge6" class="edge">
<title>play_player&#45;&#45;team</title>
<path fill="none" stroke="#7f7f7f" stroke-dasharray="5,2" d="M1091.05,-360.86C1120.5,-382.42 1152.6,-405.93 1180.63,-426.45"/>
<text text-anchor="start" x="1173.63" y="-415.25" font-family="Times,serif" font-size="14.00">1</text>
<text text-anchor="start" x="1091.05" y="-349.66" font-family="Times,serif" font-size="14.00">0..N</text>
</g>
<!-- meta -->
<g id="node7" class="node">
<title>meta</title>
<polygon fill="#fcecec" stroke="transparent" points="19.5,-457 19.5,-585 234.5,-585 234.5,-457 19.5,-457"/>
<polygon fill="none" stroke="black" points="20,-557 20,-585 235,-585 235,-557 20,-557"/>
<text text-anchor="start" x="108.5" y="-568.2" font-family="Helvetica,sans-Serif" font-weight="bold" font-size="16.00">meta</text>
<polygon fill="none" stroke="black" points="20,-532 20,-557 235,-557 235,-532 20,-532"/>
<text text-anchor="start" x="25" y="-541.8" font-family="Helvetica,sans-Serif" font-size="14.00">version</text>
<text text-anchor="start" x="69" y="-541.8" font-family="Helvetica,sans-Serif" font-size="14.00"> [smallint, null]</text>
<polygon fill="none" stroke="black" points="20,-507 20,-532 235,-532 235,-507 20,-507"/>
<text text-anchor="start" x="25" y="-516.8" font-family="Helvetica,sans-Serif" font-size="14.00">season_type</text>
<text text-anchor="start" x="102" y="-516.8" font-family="Helvetica,sans-Serif" font-size="14.00"> [season_phase, null]</text>
<polygon fill="none" stroke="black" points="20,-482 20,-507 235,-507 235,-482 20,-482"/>
<text text-anchor="start" x="25" y="-491.8" font-family="Helvetica,sans-Serif" font-size="14.00">season_year</text>
<text text-anchor="start" x="103" y="-491.8" font-family="Helvetica,sans-Serif" font-size="14.00"> [usmallint, null]</text>
<polygon fill="none" stroke="black" points="20,-457 20,-482 235,-482 235,-457 20,-457"/>
<text text-anchor="start" x="25" y="-466.8" font-family="Helvetica,sans-Serif" font-size="14.00">week</text>
<text text-anchor="start" x="58" y="-466.8" font-family="Helvetica,sans-Serif" font-size="14.00"> [usmallint, null]</text>
</g>
</g>
</svg>
