<?xml version="1.0" encoding="UTF-8" standalone="no"?><svg xmlns="http://www.w3.org/2000/svg" xmlns:xlink="http://www.w3.org/1999/xlink" contentScriptType="application/ecmascript" contentStyleType="text/css" height="915px" preserveAspectRatio="none" style="width:422px;height:915px;background:#FFFFFF;" version="1.1" viewBox="0 0 422 915" width="422px" zoomAndPan="magnify"><defs><filter height="300%" id="f1k8obe8e17j6b" width="300%" x="-1" y="-1"><feGaussianBlur result="blurOut" stdDeviation="2.0"/><feColorMatrix in="blurOut" result="blurOut2" type="matrix" values="0 0 0 0 0 0 0 0 0 0 0 0 0 0 0 0 0 0 .4 0"/><feOffset dx="4.0" dy="4.0" in="blurOut2" result="blurOut3"/><feBlend in="SourceGraphic" in2="blurOut3" mode="normal"/></filter></defs><g><ellipse cx="164.625" cy="20" fill="#000000" filter="url(#f1k8obe8e17j6b)" rx="10" ry="10" style="stroke:none;stroke-width:1.0;"/><rect fill="#FEFECE" filter="url(#f1k8obe8e17j6b)" height="34.4001" rx="12.5" ry="12.5" style="stroke:#A80036;stroke-width:1.5;" width="172" x="78.625" y="50"/><text fill="#000000" font-family="sans-serif" font-size="12" lengthAdjust="spacing" textLength="152" x="88.625" y="72.0001">ClickServlet.handleRequest()</text><rect fill="#FEFECE" filter="url(#f1k8obe8e17j6b)" height="34.4001" rx="12.5" ry="12.5" style="stroke:#A80036;stroke-width:1.5;" width="71" x="129.125" y="104.4001"/><text fill="#000000" font-family="sans-serif" font-size="12" lengthAdjust="spacing" textLength="51" x="139.125" y="126.4002">new page</text><rect fill="#FEFECE" filter="url(#f1k8obe8e17j6b)" height="34.4001" rx="12.5" ry="12.5" style="stroke:#A80036;stroke-width:1.5;" width="86" x="121.625" y="207.4002"/><text fill="#000000" font-family="sans-serif" font-size="12" lengthAdjust="spacing" textLength="66" x="131.625" y="229.4002">Page.onInit()</text><rect fill="#FEFECE" filter="url(#f1k8obe8e17j6b)" height="34.4001" rx="12.5" ry="12.5" style="stroke:#A80036;stroke-width:1.5;" width="105" x="112.125" y="310.4002"/><text fill="#000000" font-family="sans-serif" font-size="12" lengthAdjust="spacing" textLength="85" x="122.125" y="332.4003">Process controls</text><polygon fill="#FEFECE" filter="url(#f1k8obe8e17j6b)" points="113.625,364.8003,215.625,364.8003,227.625,376.8003,215.625,388.8003,113.625,388.8003,101.625,376.8003,113.625,364.8003" style="stroke:#A80036;stroke-width:1.5;"/><text fill="#000000" font-family="sans-serif" font-size="11" lengthAdjust="spacing" textLength="102" x="113.625" y="381.2003">continue processing?</text><text fill="#000000" font-family="sans-serif" font-size="11" lengthAdjust="spacing" textLength="12" x="227.625" y="374.6003">no</text><ellipse cx="261.625" cy="376.8003" fill="#FFFFFF" filter="url(#f1k8obe8e17j6b)" rx="11" ry="11" style="stroke:#000000;stroke-width:1.0;"/><ellipse cx="261.625" cy="376.8003" fill="#000000" rx="6" ry="6" style="stroke:#7F7F7F;stroke-width:1.0;"/><polygon fill="#FEFECE" filter="url(#f1k8obe8e17j6b)" points="147.625,433.1003,181.625,433.1003,193.625,445.1003,181.625,457.1003,147.625,457.1003,135.625,445.1003,147.625,433.1003" style="stroke:#A80036;stroke-width:1.5;"/><text fill="#000000" font-family="sans-serif" font-size="11" lengthAdjust="spacing" textLength="34" x="147.625" y="449.5002">isPost?</text><text fill="#000000" font-family="sans-serif" font-size="11" lengthAdjust="spacing" textLength="16" x="119.625" y="442.9003">yes</text><text fill="#000000" font-family="sans-serif" font-size="11" lengthAdjust="spacing" textLength="12" x="193.625" y="442.9003">no</text><rect fill="#FEFECE" filter="url(#f1k8obe8e17j6b)" height="34.4001" rx="12.5" ry="12.5" style="stroke:#A80036;stroke-width:1.5;" width="94" x="61.875" y="467.1003"/><text fill="#000000" font-family="sans-serif" font-size="12" lengthAdjust="spacing" textLength="74" x="71.875" y="489.1003">Page.onPost()</text><rect fill="#FEFECE" filter="url(#f1k8obe8e17j6b)" height="34.4001" rx="12.5" ry="12.5" style="stroke:#A80036;stroke-width:1.5;" width="89" x="175.875" y="467.1003"/><text fill="#000000" font-family="sans-serif" font-size="12" lengthAdjust="spacing" textLength="69" x="185.875" y="489.1003">Page.onGet()</text><polygon fill="#FEFECE" filter="url(#f1k8obe8e17j6b)" points="164.625,507.5004,176.625,519.5004,164.625,531.5004,152.625,519.5004,164.625,507.5004" style="stroke:#A80036;stroke-width:1.5;"/><rect fill="#FEFECE" filter="url(#f1k8obe8e17j6b)" height="34.4001" rx="12.5" ry="12.5" style="stroke:#A80036;stroke-width:1.5;" width="109" x="110.125" y="551.5004"/><text fill="#000000" font-family="sans-serif" font-size="12" lengthAdjust="spacing" textLength="89" x="120.125" y="573.5004">Page.onRender()</text><polygon fill="#FEFECE" filter="url(#f1k8obe8e17j6b)" points="137.625,261.8003,191.625,261.8003,203.625,273.8003,191.625,285.8003,137.625,285.8003,125.625,273.8003,137.625,261.8003" style="stroke:#A80036;stroke-width:1.5;"/><text fill="#000000" font-family="sans-serif" font-size="11" lengthAdjust="spacing" textLength="12" x="168.625" y="296.8002">no</text><text fill="#000000" font-family="sans-serif" font-size="11" lengthAdjust="spacing" textLength="54" x="137.625" y="278.2002">isForward?</text><polygon fill="#FEFECE" filter="url(#f1k8obe8e17j6b)" points="164.625,605.9005,176.625,617.9005,164.625,629.9005,152.625,617.9005,164.625,605.9005" style="stroke:#A80036;stroke-width:1.5;"/><polygon fill="#FEFECE" filter="url(#f1k8obe8e17j6b)" points="109.125,158.8002,220.125,158.8002,232.125,170.8002,220.125,182.8002,109.125,182.8002,97.125,170.8002,109.125,158.8002" style="stroke:#A80036;stroke-width:1.5;"/><text fill="#000000" font-family="sans-serif" font-size="11" lengthAdjust="spacing" textLength="19" x="168.625" y="193.8001">true</text><text fill="#000000" font-family="sans-serif" font-size="11" lengthAdjust="spacing" textLength="111" x="109.125" y="175.2002">Page.onSecurityCheck</text><text fill="#000000" font-family="sans-serif" font-size="11" lengthAdjust="spacing" textLength="22" x="232.125" y="168.6002">false</text><polygon fill="#FEFECE" filter="url(#f1k8obe8e17j6b)" points="164.625,649.9005,176.625,661.9005,164.625,673.9005,152.625,661.9005,164.625,649.9005" style="stroke:#A80036;stroke-width:1.5;"/><polygon fill="#FEFECE" filter="url(#f1k8obe8e17j6b)" points="135.625,693.9005,193.625,693.9005,205.625,705.9005,193.625,717.9005,135.625,717.9005,123.625,705.9005,135.625,693.9005" style="stroke:#A80036;stroke-width:1.5;"/><text fill="#000000" font-family="sans-serif" font-size="11" lengthAdjust="spacing" textLength="58" x="135.625" y="710.3004">do redirect?</text><text fill="#000000" font-family="sans-serif" font-size="11" lengthAdjust="spacing" textLength="16" x="107.625" y="703.7005">yes</text><rect fill="#FEFECE" filter="url(#f1k8obe8e17j6b)" height="34.4001" rx="12.5" ry="12.5" style="stroke:#A80036;stroke-width:1.5;" width="103" x="11" y="727.9005"/><text fill="#000000" font-family="sans-serif" font-size="12" lengthAdjust="spacing" textLength="83" x="21" y="749.9005">redirect process</text><polygon fill="#FEFECE" filter="url(#f1k8obe8e17j6b)" points="237.75,727.9005,295.75,727.9005,307.75,739.9005,295.75,751.9005,237.75,751.9005,225.75,739.9005,237.75,727.9005" style="stroke:#A80036;stroke-width:1.5;"/><text fill="#000000" font-family="sans-serif" font-size="11" lengthAdjust="spacing" textLength="58" x="237.75" y="744.3004">do forward?</text><text fill="#000000" font-family="sans-serif" font-size="11" lengthAdjust="spacing" textLength="16" x="209.75" y="737.7005">yes</text><text fill="#000000" font-family="sans-serif" font-size="11" lengthAdjust="spacing" textLength="12" x="307.75" y="737.7005">no</text><rect fill="#FEFECE" filter="url(#f1k8obe8e17j6b)" height="34.4001" rx="12.5" ry="12.5" style="stroke:#A80036;stroke-width:1.5;" width="105" x="144" y="761.9005"/><text fill="#000000" font-family="sans-serif" font-size="12" lengthAdjust="spacing" textLength="85" x="154" y="783.9005">Forward request</text><rect fill="#FEFECE" filter="url(#f1k8obe8e17j6b)" height="34.4001" rx="12.5" ry="12.5" style="stroke:#A80036;stroke-width:1.5;" width="136" x="269" y="761.9005"/><text fill="#000000" font-family="sans-serif" font-size="12" lengthAdjust="spacing" textLength="116" x="279" y="783.9005">Render page template</text><polygon fill="#FEFECE" filter="url(#f1k8obe8e17j6b)" points="266.75,802.3006,278.75,814.3006,266.75,826.3006,254.75,814.3006,266.75,802.3006" style="stroke:#A80036;stroke-width:1.5;"/><polygon fill="#FEFECE" filter="url(#f1k8obe8e17j6b)" points="164.625,832.3006,176.625,844.3006,164.625,856.3006,152.625,844.3006,164.625,832.3006" style="stroke:#A80036;stroke-width:1.5;"/><ellipse cx="164.625" cy="887.3006" fill="#FFFFFF" filter="url(#f1k8obe8e17j6b)" rx="11" ry="11" style="stroke:#000000;stroke-width:1.0;"/><ellipse cx="164.625" cy="887.3006" fill="#000000" rx="6" ry="6" style="stroke:#7F7F7F;stroke-width:1.0;"/><line style="stroke:#A80036;stroke-width:1.5;" x1="164.625" x2="164.625" y1="30" y2="50"/><polygon fill="#A80036" points="160.625,40,164.625,50,168.625,40,164.625,44" style="stroke:#A80036;stroke-width:1.0;"/><line style="stroke:#A80036;stroke-width:1.5;" x1="164.625" x2="164.625" y1="84.4001" y2="104.4001"/><polygon fill="#A80036" points="160.625,94.4001,164.625,104.4001,168.625,94.4001,164.625,98.4001" style="stroke:#A80036;stroke-width:1.0;"/><line style="stroke:#A80036;stroke-width:1.5;" x1="164.625" x2="164.625" y1="388.8003" y2="433.1003"/><polygon fill="#A80036" points="160.625,423.1003,164.625,433.1003,168.625,423.1003,164.625,427.1003" style="stroke:#A80036;stroke-width:1.0;"/><line style="stroke:#A80036;stroke-width:1.5;" x1="227.625" x2="250.625" y1="376.8003" y2="376.8003"/><polygon fill="#A80036" points="240.625,372.8003,250.625,376.8003,240.625,380.8003,244.625,376.8003" style="stroke:#A80036;stroke-width:1.0;"/><line style="stroke:#A80036;stroke-width:1.5;" x1="164.625" x2="164.625" y1="344.8003" y2="364.8003"/><polygon fill="#A80036" points="160.625,354.8003,164.625,364.8003,168.625,354.8003,164.625,358.8003" style="stroke:#A80036;stroke-width:1.0;"/><line style="stroke:#A80036;stroke-width:1.5;" x1="135.625" x2="108.875" y1="445.1003" y2="445.1003"/><line style="stroke:#A80036;stroke-width:1.5;" x1="108.875" x2="108.875" y1="445.1003" y2="467.1003"/><polygon fill="#A80036" points="104.875,457.1003,108.875,467.1003,112.875,457.1003,108.875,461.1003" style="stroke:#A80036;stroke-width:1.0;"/><line style="stroke:#A80036;stroke-width:1.5;" x1="193.625" x2="220.375" y1="445.1003" y2="445.1003"/><line style="stroke:#A80036;stroke-width:1.5;" x1="220.375" x2="220.375" y1="445.1003" y2="467.1003"/><polygon fill="#A80036" points="216.375,457.1003,220.375,467.1003,224.375,457.1003,220.375,461.1003" style="stroke:#A80036;stroke-width:1.0;"/><line style="stroke:#A80036;stroke-width:1.5;" x1="108.875" x2="108.875" y1="501.5004" y2="519.5004"/><line style="stroke:#A80036;stroke-width:1.5;" x1="108.875" x2="152.625" y1="519.5004" y2="519.5004"/><polygon fill="#A80036" points="142.625,515.5004,152.625,519.5004,142.625,523.5004,146.625,519.5004" style="stroke:#A80036;stroke-width:1.0;"/><line style="stroke:#A80036;stroke-width:1.5;" x1="220.375" x2="220.375" y1="501.5004" y2="519.5004"/><line style="stroke:#A80036;stroke-width:1.5;" x1="220.375" x2="176.625" y1="519.5004" y2="519.5004"/><polygon fill="#A80036" points="186.625,515.5004,176.625,519.5004,186.625,523.5004,182.625,519.5004" style="stroke:#A80036;stroke-width:1.0;"/><line style="stroke:#A80036;stroke-width:1.5;" x1="164.625" x2="164.625" y1="531.5004" y2="551.5004"/><polygon fill="#A80036" points="160.625,541.5004,164.625,551.5004,168.625,541.5004,164.625,545.5004" style="stroke:#A80036;stroke-width:1.0;"/><line style="stroke:#A80036;stroke-width:1.5;" x1="164.625" x2="164.625" y1="285.8003" y2="310.4002"/><polygon fill="#A80036" points="160.625,300.4002,164.625,310.4002,168.625,300.4002,164.625,304.4002" style="stroke:#A80036;stroke-width:1.0;"/><line style="stroke:#A80036;stroke-width:1.5;" x1="203.625" x2="294.625" y1="273.8003" y2="273.8003"/><polygon fill="#A80036" points="290.625,418.8003,294.625,428.8003,298.625,418.8003,294.625,422.8003" style="stroke:#A80036;stroke-width:1.5;"/><line style="stroke:#A80036;stroke-width:1.5;" x1="294.625" x2="294.625" y1="273.8003" y2="617.9005"/><line style="stroke:#A80036;stroke-width:1.5;" x1="294.625" x2="176.625" y1="617.9005" y2="617.9005"/><polygon fill="#A80036" points="186.625,613.9005,176.625,617.9005,186.625,621.9005,182.625,617.9005" style="stroke:#A80036;stroke-width:1.0;"/><line style="stroke:#A80036;stroke-width:1.5;" x1="164.625" x2="164.625" y1="585.9005" y2="605.9005"/><polygon fill="#A80036" points="160.625,595.9005,164.625,605.9005,168.625,595.9005,164.625,599.9005" style="stroke:#A80036;stroke-width:1.0;"/><line style="stroke:#A80036;stroke-width:1.5;" x1="164.625" x2="164.625" y1="241.8003" y2="261.8003"/><polygon fill="#A80036" points="160.625,251.8003,164.625,261.8003,168.625,251.8003,164.625,255.8003" style="stroke:#A80036;stroke-width:1.0;"/><line style="stroke:#A80036;stroke-width:1.5;" x1="164.625" x2="164.625" y1="182.8002" y2="207.4002"/><polygon fill="#A80036" points="160.625,197.4002,164.625,207.4002,168.625,197.4002,164.625,201.4002" style="stroke:#A80036;stroke-width:1.0;"/><line style="stroke:#A80036;stroke-width:1.5;" x1="232.125" x2="316.625" y1="170.8002" y2="170.8002"/><polygon fill="#A80036" points="312.625,398.8003,316.625,408.8003,320.625,398.8003,316.625,402.8003" style="stroke:#A80036;stroke-width:1.5;"/><line style="stroke:#A80036;stroke-width:1.5;" x1="316.625" x2="316.625" y1="170.8002" y2="661.9005"/><line style="stroke:#A80036;stroke-width:1.5;" x1="316.625" x2="176.625" y1="661.9005" y2="661.9005"/><polygon fill="#A80036" points="186.625,657.9005,176.625,661.9005,186.625,665.9005,182.625,661.9005" style="stroke:#A80036;stroke-width:1.0;"/><line style="stroke:#A80036;stroke-width:1.5;" x1="164.625" x2="164.625" y1="629.9005" y2="649.9005"/><polygon fill="#A80036" points="160.625,639.9005,164.625,649.9005,168.625,639.9005,164.625,643.9005" style="stroke:#A80036;stroke-width:1.0;"/><line style="stroke:#A80036;stroke-width:1.5;" x1="164.625" x2="164.625" y1="138.8002" y2="158.8002"/><polygon fill="#A80036" points="160.625,148.8002,164.625,158.8002,168.625,148.8002,164.625,152.8002" style="stroke:#A80036;stroke-width:1.0;"/><line style="stroke:#A80036;stroke-width:1.5;" x1="225.75" x2="196.5" y1="739.9005" y2="739.9005"/><line style="stroke:#A80036;stroke-width:1.5;" x1="196.5" x2="196.5" y1="739.9005" y2="761.9005"/><polygon fill="#A80036" points="192.5,751.9005,196.5,761.9005,200.5,751.9005,196.5,755.9005" style="stroke:#A80036;stroke-width:1.0;"/><line style="stroke:#A80036;stroke-width:1.5;" x1="307.75" x2="337" y1="739.9005" y2="739.9005"/><line style="stroke:#A80036;stroke-width:1.5;" x1="337" x2="337" y1="739.9005" y2="761.9005"/><polygon fill="#A80036" points="333,751.9005,337,761.9005,341,751.9005,337,755.9005" style="stroke:#A80036;stroke-width:1.0;"/><line style="stroke:#A80036;stroke-width:1.5;" x1="196.5" x2="196.5" y1="796.3006" y2="814.3006"/><line style="stroke:#A80036;stroke-width:1.5;" x1="196.5" x2="254.75" y1="814.3006" y2="814.3006"/><polygon fill="#A80036" points="244.75,810.3006,254.75,814.3006,244.75,818.3006,248.75,814.3006" style="stroke:#A80036;stroke-width:1.0;"/><line style="stroke:#A80036;stroke-width:1.5;" x1="337" x2="337" y1="796.3006" y2="814.3006"/><line style="stroke:#A80036;stroke-width:1.5;" x1="337" x2="278.75" y1="814.3006" y2="814.3006"/><polygon fill="#A80036" points="288.75,810.3006,278.75,814.3006,288.75,818.3006,284.75,814.3006" style="stroke:#A80036;stroke-width:1.0;"/><line style="stroke:#A80036;stroke-width:1.5;" x1="123.625" x2="62.5" y1="705.9005" y2="705.9005"/><line style="stroke:#A80036;stroke-width:1.5;" x1="62.5" x2="62.5" y1="705.9005" y2="727.9005"/><polygon fill="#A80036" points="58.5,717.9005,62.5,727.9005,66.5,717.9005,62.5,721.9005" style="stroke:#A80036;stroke-width:1.0;"/><line style="stroke:#A80036;stroke-width:1.5;" x1="205.625" x2="266.75" y1="705.9005" y2="705.9005"/><line style="stroke:#A80036;stroke-width:1.5;" x1="266.75" x2="266.75" y1="705.9005" y2="727.9005"/><polygon fill="#A80036" points="262.75,717.9005,266.75,727.9005,270.75,717.9005,266.75,721.9005" style="stroke:#A80036;stroke-width:1.0;"/><line style="stroke:#A80036;stroke-width:1.5;" x1="62.5" x2="62.5" y1="762.3006" y2="844.3006"/><line style="stroke:#A80036;stroke-width:1.5;" x1="62.5" x2="152.625" y1="844.3006" y2="844.3006"/><polygon fill="#A80036" points="142.625,840.3006,152.625,844.3006,142.625,848.3006,146.625,844.3006" style="stroke:#A80036;stroke-width:1.0;"/><line style="stroke:#A80036;stroke-width:1.5;" x1="266.75" x2="266.75" y1="826.3006" y2="844.3006"/><line style="stroke:#A80036;stroke-width:1.5;" x1="266.75" x2="176.625" y1="844.3006" y2="844.3006"/><polygon fill="#A80036" points="186.625,840.3006,176.625,844.3006,186.625,848.3006,182.625,844.3006" style="stroke:#A80036;stroke-width:1.0;"/><line style="stroke:#A80036;stroke-width:1.5;" x1="164.625" x2="164.625" y1="673.9005" y2="693.9005"/><polygon fill="#A80036" points="160.625,683.9005,164.625,693.9005,168.625,683.9005,164.625,687.9005" style="stroke:#A80036;stroke-width:1.0;"/><line style="stroke:#A80036;stroke-width:1.5;" x1="164.625" x2="164.625" y1="856.3006" y2="876.3006"/><polygon fill="#A80036" points="160.625,866.3006,164.625,876.3006,168.625,866.3006,164.625,870.3006" style="stroke:#A80036;stroke-width:1.0;"/><!--MD5=[1650c83479ccac84e1183f10a48ab8c2]
@startuml
start
:ClickServlet.handleRequest();
:new page;
if (Page.onSecurityCheck) then (true)
  :Page.onInit();
  if (isForward?) then (no)
    :Process controls;
    if (continue processing?) then (no)
      stop
    endif

    if (isPost?) then (yes)
      :Page.onPost();
    else (no)
      :Page.onGet();
    endif
    :Page.onRender();
  endif
else (false)
endif

if (do redirect?) then (yes)
  :redirect process;
else
  if (do forward?) then (yes)
    :Forward request;
  else (no)
    :Render page template;
  endif
endif

stop
@enduml

PlantUML version 1.2021.16(Wed Dec 08 17:25:22 GMT 2021)
(GPL source distribution)
Java Runtime: OpenJDK Runtime Environment
JVM: OpenJDK 64-Bit Server VM
Default Encoding: UTF-8
Language: en
Country: US
--></g></svg>